<?xml version="1.0" encoding="utf-8"?>
<!-- Generator: Adobe Illustrator 24.1.3, SVG Export Plug-In . SVG Version: 6.00 Build 0)  -->
<svg version="1.1" id="Ebene_1" xmlns="http://www.w3.org/2000/svg" xmlns:xlink="http://www.w3.org/1999/xlink" x="0px" y="0px"
	 viewBox="0 0 196.2 200" style="enable-background:new 0 0 196.2 200;" xml:space="preserve">
<style type="text/css">
	.st0{fill:#FFFFFF;}
</style>
<g>
	<path class="st0" d="M59.3,0l0.9,21l3,25.4c2.1-0.7,4-1.1,6.1-1.1c1.1,0,2.1,0.1,3.1,0.3c5.2,0.9,9.8,4.1,13.7,8.9l-1.9-23.7
		c-0.3-3,1.8-5.6,4.4-5.9c2.7-0.2,5,2,5.3,4.9l4.7,59.1c0.7,4.8,1.1,10,1.3,15.3l5.2,65.7c0.3,3-1.8,5.6-4.4,5.9c-0.2,0-0.3,0-0.4,0
		c-2.5,0-4.7-2.1-4.9-5l-1.5-19.1c-3.3,11.6-7.8,21.9-12.9,30.1c7.2,9.6,23.9,16.8,48.1,16.8c30.3,0,48.9-11.2,51.7-24.4h1.4
		l14-152.6V0H59.3z M134.2,170.7c0,3-2.2,5.4-4.9,5.4c-2.7,0-4.9-2.4-4.9-5.4V29.1c0-3,2.2-5.4,4.9-5.4c2.7,0,4.9,2.4,4.9,5.4V170.7
		z M161,170.9c-0.2,2.8-2.3,5-4.9,5c-0.2,0-0.3,0-0.4,0c-2.7-0.3-4.7-2.9-4.5-5.9l11.2-140.1c0.3-3,2.7-5.2,5.3-4.9
		c2.7,0.3,4.7,2.9,4.4,5.9L161,170.9z"/>
	<path class="st0" d="M71.9,49.2c-0.8-0.2-1.7-0.3-2.6-0.3h-0.1c-1.7-1.1-3.5-2-5.4-2.3c-0.4-0.1-0.7-0.1-1.1-0.1
		c-17-1.5-35.5,31.2-41.2,71.4c-5.8,41.1,3.2,78.9,20.5,81.9c0.6,0.1,1.3,0.2,1.9,0.2c2.2,0.1,4.2-0.4,6.4-1.3
		c0.1,0,0.2,0.1,0.3,0.1c0.9,0.2,1.7,0.2,2.6,0.2c17.7,0,36.4-30.9,41.8-68.9C100.9,89.4,90.3,52.4,71.9,49.2z M46.3,138.3
		c-2.2-0.4-3.6-3.5-4.2-7.8l-8.4-1.8l3.7-21.1l8,1.7c1.7-3.4,3.8-5.4,5.7-5.1c3.6,0.6,5.4,9.1,4,18.2S49.9,138.9,46.3,138.3z
		 M40,111.8l9.3,2l-2.4,14l-9.3-2L40,111.8z"/>
</g>
</svg>
