<?xml version="1.0" encoding="utf-8"?>
<!-- Generator: Adobe Illustrator 24.1.3, SVG Export Plug-In . SVG Version: 6.00 Build 0)  -->
<svg version="1.1" id="Ebene_1" xmlns="http://www.w3.org/2000/svg" xmlns:xlink="http://www.w3.org/1999/xlink" x="0px" y="0px"
	 viewBox="0 0 200 200" style="enable-background:new 0 0 200 200;" xml:space="preserve">
<style type="text/css">
	.st0{fill:#FFFFFF;}
</style>
<g>
	<path class="st0" d="M121.52,53.09c14.48-0.77,25.62-13.17,24.77-27.65c-0.79-14.55-13.22-25.69-27.76-24.9
		c-14.49,0.79-25.62,13.35-24.78,27.7C94.55,42.79,106.98,54.06,121.52,53.09z"/>
	<path class="st0" d="M57.36,94.74c3.19,0.53,5.65-2.93,7.74-4.79c2.59-2.44,5.34-4.74,8.37-6.73c6.38-4.05,12.75-1.91,9.98,7.58
		c-2.7,9.45-22.56,59.74-25.28,82.8c-2.64,23.17,17.53,31.62,40.95,22c7.22-3.11,13.56-7.97,19.57-12.91
		c6.13-4.98,12.08-10.5,17.41-16.26c1.24-1.27,2.33-2.63,3.62-3.85c1.3-1.25,3.37-3.38,3.79-5.18c0.35-1.63-0.26-3.11-1.35-4.05
		c-1.46-1.21-3.72-1.67-5.58-1.04c-1.48,0.56-2.59,1.88-3.65,3.13c-1.14,1.24-2.46,2.41-3.69,3.56c-2.86,2.67-5.74,5.14-8.79,7.55
		c-7.22,5.6-12.49,3.04-8.89-10.33c3.52-13.44,9.37-31.43,17.65-57.71c11.46-36.7-20.43-42.34-38.98-36.68
		c-12.7,3.92-23.11,12.13-32.48,21.15c-1.69,1.78-3.62,3.61-4.03,6.07C53.35,91.53,54.74,94.33,57.36,94.74z"/>
</g>
</svg>
