<?xml version="1.0" encoding="utf-8"?>
<!-- Generator: Adobe Illustrator 24.1.3, SVG Export Plug-In . SVG Version: 6.00 Build 0)  -->
<svg version="1.1" id="Ebene_1" xmlns="http://www.w3.org/2000/svg" xmlns:xlink="http://www.w3.org/1999/xlink" x="0px" y="0px"
	 viewBox="0 0 200 200" style="enable-background:new 0 0 200 200;" xml:space="preserve">
<style type="text/css">
	.st0{fill-rule:evenodd;clip-rule:evenodd;fill:#FFFFFF;}
</style>
<path class="st0" d="M126.31,1l27.03,5.3l40.33,40.33l5.29,27.03l-18.92,18.92l-31.32-6.22l-35.1-35.11l-6.23-31.32L126.31,1
	L126.31,1z M65.67,173.17l-33.83,8.08c-1.63-7.3-5.58-12.13-13.15-12.98l8.1-33.96h3.98l34.9,34.88V173.17L65.67,173.17z
	 M169.89,30.08c-6.79-6.79-15.51-9.08-19.48-5.12c-3.96,3.97-1.66,12.68,5.13,19.47c6.79,6.79,15.52,9.09,19.48,5.12
	C178.97,45.59,176.68,36.88,169.89,30.08L169.89,30.08z M166.32,106.31l-27.04-5.37L99.04,60.68l-5.38-27.02l-72.61,72.61
	L2.53,185.65c-3.65,15.68-1.36,14.86,13.45,11.4l77.72-18.14L166.32,106.31z"/>
</svg>
