<?xml version="1.0" encoding="utf-8"?>
<!-- Generator: Adobe Illustrator 24.2.3, SVG Export Plug-In . SVG Version: 6.00 Build 0)  -->
<svg version="1.1" id="Ebene_1" xmlns="http://www.w3.org/2000/svg" xmlns:xlink="http://www.w3.org/1999/xlink" x="0px" y="0px"
	 viewBox="0 0 23.4 22.3" style="enable-background:new 0 0 23.4 22.3;" xml:space="preserve">
<style type="text/css">
	.st0{fill-rule:evenodd;clip-rule:evenodd;}
</style>
<desc>Created with Sketch.</desc>
<g id="Icons">
	<g id="detail_merken_filled" transform="translate(-12.000000, -12.000000)">
		<g id="Shape" transform="translate(12.000000, 12.000000)">
			<path class="st0" d="M12.2,0.4l3,7l7.6,0.7c0.5,0,0.7,0.7,0.3,1.1l-5.8,5l1.7,7.4c0.1,0.5-0.4,0.9-0.9,0.6l-6.5-3.9l-6.5,3.9
				c-0.5,0.3-1-0.1-0.9-0.6L6,14.1l-5.8-5c-0.4-0.3-0.2-1,0.3-1.1l7.6-0.7l3-7C11.3-0.1,12-0.1,12.2,0.4L12.2,0.4z"/>
		</g>
	</g>
</g>
</svg>
