<?xml version="1.0" encoding="utf-8"?>
<!-- Generator: Adobe Illustrator 24.2.3, SVG Export Plug-In . SVG Version: 6.00 Build 0)  -->
<svg version="1.1" id="Ebene_1" xmlns="http://www.w3.org/2000/svg" xmlns:xlink="http://www.w3.org/1999/xlink" x="0px" y="0px"
	 viewBox="0 0 919.3 258.2" style="enable-background:new 0 0 919.3 258.2;" xml:space="preserve">
<style type="text/css">
	.st0{fill:#FDC5CE;}
	.st1{fill:#232020;}
</style>
<g id="XMLID_3136_">
	<g id="XMLID_3213_">
		<g id="XMLID_3230_">
			<path id="XMLID_3231_" class="st0" d="M40.2,92.2c0.6-0.2,1.2-0.4,1.8-0.6c-0.5-0.1-1-0.1-1.5-0.2c-0.4,0.2-0.8,0.4-1.1,0.6
				C39.7,92.1,39.9,92.1,40.2,92.2z"/>
		</g>
		<g id="XMLID_3228_">
			<path id="XMLID_3229_" class="st0" d="M16.9,97.5c-2-0.5-4-1.1-6.9-1C9.3,96.8,9,97,8.8,97.1c1.1,0.3,2.5,0.8,4,1.2
				C15.6,99.1,17.1,98.5,16.9,97.5z"/>
		</g>
		<g id="XMLID_3226_">
			<path id="XMLID_3227_" class="st0" d="M8.8,97.1c-1-0.3-1.7-0.5-1.7-0.5c0.4,0.2,0.7,0.4,1.1,0.7c0.3,0,0.3-0.1,0.3-0.1
				S8.6,97.2,8.8,97.1z"/>
		</g>
		<g id="XMLID_3224_">
			<path id="XMLID_3225_" class="st0" d="M555.4,84.2c38.7,1.5,77.6,2.5,116.5,3.2c1.3,0,2.4-0.3,2.5-0.7c0.1-0.4-0.9-0.8-2.2-0.8
				c-38.9-0.8-77.6-1.8-116.3-3.3c-1.3,0-2.4,0.3-2.6,0.7C553.3,83.8,554.2,84.1,555.4,84.2z"/>
		</g>
		<g id="XMLID_3222_">
			<path id="XMLID_3223_" class="st0" d="M845.4,127.4c-0.9,0.3-0.9,0.8,0.1,1.1c0.8,0.3,2.3,0.3,3.2,0c0.8-0.3,0.7-0.8-0.1-1.1
				C847.7,127.1,846.2,127.1,845.4,127.4z"/>
		</g>
		<g id="XMLID_3214_">
			<path id="XMLID_3215_" class="st0" d="M869.6,146.1c-28-1.2-56.2-2.3-84.4-3.2c2-0.4,3.9-0.7,5.9-1.1c2-0.1,3.9-0.3,5.9-0.4
				c18.2-0.1,36.3-0.4,54.5-0.8c6.8,0.1,12.4-1.7,12.8-4.1c0.1-2.3-4.9-4.2-11.5-4.4c1.1-0.1,2.1-0.3,3.2-0.4
				c1.1-0.1,1.8-0.6,1.5-0.9c-0.4-0.4-1.8-0.7-2.8-0.6c-3.8,0.5-7.6,1.1-11.4,1.7c-34.6-0.9-69.2-0.6-103.9-0.1
				c37.3-2.7,75.1-4.6,113.1-5.3c-0.8,0.3-0.9,0.8,0.1,1.1c0.8,0.3,2.4,0.3,3.2,0c0.9-0.3,0.7-0.8-0.1-1.1c0,0,0,0-0.1,0
				c20.4-0.4,40.9-0.4,61.4-0.1c1.2,0,2.2-0.3,2.2-0.8c0-0.5-1.1-0.8-2.5-0.8c-68-1.1-135.5,1.9-201.5,7.4c-3.6,0-7.2,0.1-10.8,0.1
				c0,0,0,0,0,0c-1.1-1.8-3.5-3.4-6.8-4.6c23.3-0.8,46.6-1.7,69.9-2.8c19.4,0.1,38.8,0.3,58.3,0.4c2.8,0,5.1-0.7,5.2-1.8
				c0.1-1-2.2-1.7-5.2-1.8c-4.8-0.1-9.5-0.1-14.3-0.1c3.9-1.2,6.5-3,6.8-4.9c0.3-1.9-1.7-3.6-5-4.9c21-1.8,41.9-3.8,62.2-6.4
				c1.2-0.1,1.8-0.6,1.4-1c-0.4-0.4-1.7-0.6-2.8-0.5c-29.6,1.1-58.8,2.8-88,4.1c-23.1-2.3-45.7-4.8-70.7-5.7
				c-36.4-1.2-70.5,1.2-104.6,3.6c-12.3-0.6-24.5-1.1-36.6-1.4c1.7-0.9,2.7-2,2.7-3.1c0-0.3-0.1-0.6-0.3-0.9
				c10.7,0.2,21.4,0.3,32.3,0.4c101.2,1,196.2-6.9,293-13.5c6.2-0.3,10.7-2.2,9.9-4.3c-0.7-2.1-6.4-3.7-12.6-3.4
				c-46.4,0-89.2,3.7-136.2,7.3c-33.4,2.6-62.8,4.5-96.4,6.3c-39.3,2.1-75.9,1.6-114.5,1.6c-3.8-0.3-7.6-0.6-11.4-0.4
				c-3.9,0.1-7.7,0.2-11.6,0.4c-30.2-0.3-59.8-1.7-89.2-3.1c35.2-1.3,70.4-2.8,105.1-5.7c2.5-0.1,4.1-0.9,3.9-1.7
				c-0.4-0.8-2.7-1.4-5.2-1.3c-48.3,1.8-96.8,2.5-145.3,3.4c-13.2-7.3-41.2-11.6-66.2-11.9c-9.2-0.1-17.8,0.7-26.4,1.9
				c4,0.3,8,0.6,12,0.9c-11.9,0.3-22,2.1-32,4.1c-0.9-0.1-1.7-0.2-2.7-0.3c-23.3-4-50.4-3.2-75.6-5c0.5,0.9,1.2,1.9,1.7,2.8
				c-4.6-0.7-7.4-2.4-12.5-2.9c1.4,0.7,2.8,1.4,4.2,2.1c-0.1,0-0.2,0-0.3,0c-5.4-1.5-12-2.2-18.8-2.2c-15.5-4.3-34.3-6.8-54.1-8
				c-2.6-1.1-6.4-1.9-10.9-2c-1.9-0.4-4.1-0.6-5.5-1.1c-12.3-4.6-27.3-7.7-43.9-10c3.2,0.9,6.5,1.7,9.7,2.6
				c-4.8-0.7-9.5-1.5-14.8-1.5c0.6,0.5,1.3,1.1,1.8,1.6c-16.5-3.9-39-2.5-50.4,3.1C2.5,66,6.6,73.7,23,77.6l2.4,0.6
				C17,79.1,9.7,80.9,5.5,84.1c-2.2,1.8-0.3,4,0.2,6.1c-0.7,3,6,5.6,14.8,5.8c2.4,0.1,4.7-0.1,6.8-0.4c10.2,1.1,20.6,2,30.5,3.3
				c2,0.3,4.3,0,5.4-0.7c0.9-0.7,0-1.5-2-1.8c-7.1-1.4-14-2.9-20.9-4.4c-0.6,0.2-1.1,0.3-1.7,0.5c0.2-0.3,0.6-0.5,0.9-0.7
				c-0.6-0.1-1.3-0.3-1.9-0.4c0.5-0.1,0.9-0.3,1.4-0.4c0.5,0.1,1,0.1,1.6,0.2c0.9-0.4,1.9-0.7,3-1c12.3,1,24.5,2.2,36,4.2
				c0.7,0.1-0.5,1.5,0.8,2c0.6,0.2,1.3,0.5,1.9,0.7c-2.1-0.3-4.2-0.5-6.6-0.7c-8.8,1.9-12.2,2.6-14.5,3.1c0,0,0,0,0,0s0,0-0.7,0.2
				c-1.1,0.2-2,0.4-3.3,0.7c0,0,0,0,0,0.1c-0.3,0.1-0.6,0.1-0.8,0.2c-1.3-0.1-2.6-0.2-4-0.3c-1.5-0.1-2.9,0.1-3.7,0.5
				c-0.5-0.3-1.1-0.7-1.8-1c-7.5-0.7-7.5-0.7-15.3-1.2c0,0,0,0.3,0.3,0.8c-0.3,0-2.9,0.4-5.9,0.2c-2.9,0.1-2.9,0.1-10.1-0.5
				c0,0,0,0,3.5,1.3c0,0,0,0-3.1-0.9c0,0,0,0,0.8,1.5c0,0,0,0-1.4-1.7c0,0,0,0-1.3,1.3c0,0,0,0-6.1-3.6c-0.5,0.1-1.6,0.3-4.4,0.7
				c0,0-0.8,0.3-1.4,0.8c-0.1,0.4-0.1,0.4-2.5,2c0,0-0.1,0.5,0.2,1.1c0.7,0.5,0.7,0.5,0.9,1.9c0,0,0.8,0.5,2.1,1
				c1.2,0.3,1.5,0.3,5.8,1.2c-0.4,0.2-0.7,0.5-1,0.7c-0.8,2.6-0.8,2.6,4.6,8.7c0,0,3,1.7,7.9,2.8c5.7,0.6,5.7,0.6,12.2,1.2
				c0,0,1.4,0.2,3.9,0.5c1.8,1,2.2,1.2,3.6,2.1c0,0,0,0,0,0c-1.2,0.1-2.5,0.2-3.5,0.5c-2.9,0.8-3.4,2.3-0.9,3.3
				c-3.3,4-1.3,7.6,2.8,11.1c-1.3,1.3-1.8,2.7-1.7,4.2c-4.8,3.4-7.8,7.1-9.1,10.9l-0.6,3.4c1.4,2.9,5.4,5.5,11.4,7.6l1.8,0.8
				l-1.7,2.8c7.7,7.4,22.9,13.4,32.3,20.5l7.1,3.7c5.1,3,13.3,5.2,22.8,6.3l10.1,1.1c2.1,0.1,4.2,0.1,6.4,0.1
				c-10.7,3.5-16.6,8.6-14.7,14c3.4,8.9,27.3,15.2,53.3,14c69.6-0.4,136.8-0.9,207.9-4.6c52.7-2.7,100.4-6.3,152.1-6.3
				c49.4-3.8,96.9-8.8,145.1-14.8c40.5-5,71.4-14.9,107.3-22.5c1-0.2,1.1-0.7,0.6-1.1c-0.8-0.4-2.3-0.4-3.2-0.2
				c-56.8,6.6-114,12.3-174.9,13.7c-7,0.1-13.8,0.2-20.6,0.1c-0.7-0.1-1.6-0.2-2.5-0.3c-6.2-0.4-12.4-0.8-18.6-1.2
				c2.2,0,4.3-0.1,6.5-0.1c4.3,0.1,7.9-1.1,8.2-2.6c0-0.6-0.6-1.2-1.6-1.7c15.8-1.6,31.3-3.7,46.7-5.8c4.6-0.2,8.8-0.7,12.5-1.5
				c17.8,1.1,35.8,1.9,53.7,2.9l4.4,0.4c5.9,0.3,11.6-0.6,14.4-2.3c0.9-0.5,1.5-1.1,1.7-1.6c40.9-3.1,82.4-5.4,120.9-11.3
				c2-0.3,3-0.9,2.7-1.6c0.7,0.2,1.7,0.2,2.5,0c4.6-1.2,9.8-1.9,15.2-2.5c1.2-0.2,1.8-0.7,1.3-1c-0.6-0.5-1.9-0.6-3-0.4
				c-5.6,0.7-11,1.5-16,2.6c-0.5,0.1-0.9,0.3-1,0.6c-1.1-0.4-2.9-0.6-4.6-0.4c-39.9,2-78.5,6.4-118.7,7.3c19.7-2.7,39.8-4.5,61-6.6
				c25.6-2.4,49.1-5.9,74.9-7.3c1.3,0,2.2-0.4,2.1-0.8c-0.2-0.4-1.3-0.8-2.6-0.7c-52.8,2.1-99.1,12.2-153.7,12.2
				c-2.1,0-4.3,0-6.4-0.1c16.8-3.5,33.3-7.1,49.8-10.7c50.2-1.5,100.2-3.7,149.5-7c2.4,0,4.4-0.7,4.3-1.5
				C874,146.8,872,146.1,869.6,146.1z M29.7,108.9c0.7,0.2,1.2,0.5,2,1C31.7,109.8,31.7,109.8,29.7,108.9z M151.3,107.1
				c-10-0.6-20.1-1.1-30.6-1.3c-3.9-0.1-7.7,0.1-11.4,0.5c-4.1-2.2-8.4-4.4-14-6.1c9.3,1.3,20,1.8,29.8,2.7
				c10.9,1,21.6,1.9,32.2,2.8c-1.2,0.1-2.5,0.2-3.8,0.3C152.4,106,150,105.9,151.3,107.1z M173.6,84.4c1.9,0.8,3.8,1.6,5.8,2.5
				c-0.3,0-0.5,0-0.8,0c-2.5-0.3-5.1-0.7-7.6-1c0.5,0.2,0.9,0.5,1.4,0.7c-9.8-0.6-19.6-1.2-29.4-1.9c-14.1-2.2-29.2-3.7-44.5-4.3
				c4.4-0.9,8.6-1.9,12.5-3c19.5,2.4,38.2,5.5,58.5,6.5C170.9,83.9,172.2,84.1,173.6,84.4z M75,125.1C75,125.1,75,125.1,75,125.1
				c-0.8-0.5-1.7-1.1-2.8-1.9C72.2,123.2,73.4,124,75,125.1z M41.7,161.8l-0.5-0.4l6-8.5L41.7,161.8z"/>
		</g>
	</g>
	<g id="XMLID_3177_">
		<g id="XMLID_3205_">
			<path id="XMLID_3206_" class="st1" d="M154.6,213.3c-0.2-0.9-1.5-2-2-2.9c0.7-1.1,1.6-1.7,2-2.5c0.6-2.6,0.6-5.4,1.2-7.9
				c0.1-1.1,0.2-2,0.4-3.1c1.9-3.7,2.5-7.1,2.1-10.8c0.1-0.6,1.1-2,1.2-3.1c0.4-0.6,1-1.4,0.8-2c-0.7-1.1,0-2.6,1.7-4.5
				c1-1.4,1.2-2.8,1.9-4.2c2.4-6.2,4-12.4,6.4-18.4c-1.4-10.8,26.4-47.6,5.4-42.3c-1.2,0.8-3,1.4-4.5,1.6
				c-22,9.3-20.1,7.9-28.1,27.7c-0.6,2.8-1.5,5.4-2.4,8.2c-0.4,1.1-0.3,2.3-1,3.7c-4.5,9.3-6.1,18.7-13,28.2c-0.6,0.3-0.6,0.6-1,1.1
				c-6.2,6.7-5.3,6.4-12.5,6.1c-1.1,0-2.2-0.6-3.2,0c-3.2,0.5-4.7-1.2-4.8-3.2c0-2.8,0.4-5.7,1.3-8.8c4.1-13,9.3-26.6,14.8-39.8
				c6.6-13-6.9-4.6-6.6-15.4c-0.1-1.7-0.4-3.7,0.3-5.4c1.2-3.4,1.6-6.5,2.8-9.6c0.8-2.3,1-4,0.3-4.8c2.5-3.9,4.6-7.6,7.1-11.8
				c3.8,1.8,8.3-0.2,14.2-0.9c3.8-0.8,8.1-5.8,9.1-9.2c4.8-11.9,9.3-18.3,16-30.2c4.3-7.6,10.1-15.5,15.3-23.3
				c1.4-2,2.9-2.5,4.8-2.2c2.3,0.3,3.9,0.6,6.2,0.9c2.8,0.9,2.9,2.6,1.7,5.1c-2.2,4.5-5,8.4-6.6,12.4c-2.2,4.5-4.4,8.5-6.6,12.7
				c-19.7,26.4-1.7,25,20.7,17.4c0.7-1.4,1.7-2,2.1-3.1c3.5-8.2,6.3-13,10.8-21.4c0.8-2.3,2.9-5.1,3.1-7.3c0.4-3.7,3.3-6.8,5.5-10.1
				c1.4-2.2,2.5-4.5,3.1-7.3c0.2-2,2-4.8,3.1-7.1c3.4-5.1,7.2-10.1,10.6-15.5c4,0.1,8,0.1,11.8,0.2c6,0.1,11.3,1.6,15.6,4.2
				c4,2.3,6,5.8,4.2,11.1c-1.8,3.4-2.5,6.8-5.1,9.9c-7,10.7-12.2,21.7-17.2,32.4c-6,12.4,9.1,8.4,16.8,6.8c1.5-0.3,3.2-0.5,3.6,1.2
				c-5.5,0.8-11.7,2.1-16.7,3.2c-2.9,0.5-5,1.3-7.5,2.4c-3.3,1.7-5.1,4.5-6.3,7.9c1.4,0,3.7,0.3,5.4,0.4c0.9,0,2.3-0.3,3.2-0.8
				c3.5-0.2,7-1,10.4-0.4c1.4,0.3,4.6,0.1,6.7-0.5c2.3-0.3,4.3-0.2,6.9-0.2c-0.7-1.4-1.4-2.6-1.8-4c-0.1-1.4,0.9-3.1,1.8-5.4
				c0.6,0,1.4,0,2,0c0.3-0.3,0.3-0.3,0.6-0.6c-0.7-1.2-2-2.3-2.5-3.5c3.9,1.5,6.7,4.1,7.4,8.1l0.1-0.6c-0.6,0.6-1.2,0.8-2.4,0.8
				c-2.5,4.5,0.9,4.6,4.6,4.6c-4.4,3.1-6.7,1-9.9,1.3c1.9,1.2,2.9,2,4.5,3.2c-2.1,0.5-4.3,0.2-5.8,3.3c1.4,0.3,3.1,0.3,5.4,0.6
				c-2.1,0.5-3.6,1.4-4.8,1.6c-1.2,0.3-2.6,0.5-4,2.2c1.1,0,2.2,0.6,3.6,0.9c-7.1,1.9-14.2,3.8-21.4,6.5c-4.8,1.3-10.1,2.7-15.1,4.3
				c-4.1,1.1-6.7,3.6-8.3,7c-2.9,5.1-4.3,10.2-5.7,15.3c-1.3,3.7-2.3,7.4-4.1,11c-2.7,6.2-3.7,12.4-6.1,18.4
				c-1.8,5.7-3.6,11.3-5.9,17c-0.1,0.6-1,1.1-1.7,2c-0.1,0.6-0.7,1.4-0.5,1.7c1.3,4-1.3,8.8-2.9,13c-0.1,0.9-0.5,1.7-0.5,2.3
				c0.4,4-2.3,7.6-4.1,11.3c-0.5,1.7-3.3,3.3-5.2,5.3c-1.4,0-2.9,0.2-3.8,0.5c-0.9,0-1.7,0-2.3,0.3c-4.1,3.3-8.3,2.4-12.4,5.8
				c-1.5,0.8-0.7-1.4-1.9-0.6c-1,0.8-1.6,1.7-1.9,1.7c-1.1,0-1.7-0.6-2.8-0.9c-0.6,0.6-1.9,1.7-2.6,2.2
				C155.7,216.1,155.4,215.8,154.6,213.3z M135.9,91.1c-3.5,0.8-4.5,1.9-6.4,5.6c1.4,0,3.1,0.6,4.8,0.6c1.7,0.3,1.9,1.2,2.3,2.6
				c-2.7,1.1-5.3,1.1-7.9,3.9c3.5-0.5,6.1-1,9.1-1.9c2.2-3.9,4-7.6,6.3-12.1C140.9,90.6,138.8,90.8,135.9,91.1z M170.7,83.6
				c-1.8,0.3-3.2,0.8-3.4,2.5c0.9,0,1.4,0.3,1.7,0c4.8-1.9,8.8-3.8,13.3-5.5c2-0.3,3.8-0.2,5.8-0.2c0-0.3,0.7-0.8,0.7-1.1
				c-2.3,0.2-4.4,1.1-6.5,1.3C178.4,81.8,174.5,82.6,170.7,83.6z M173.8,89.4c-1.8,0.3-3.5,0.8-5.4,1.6
				C170.1,91.6,172.1,91.3,173.8,89.4z M192.5,88.5c-2.8-0.3-6.1,0.5-9.9,1.6c-2.1,0.8-4.2,1.4-6.5,1.3c-2,0-3.8,0.5-5.7,1.9
				c7.2-0.2,14.5-1.2,23.4-3.3C193.3,89.4,193,89.1,192.5,88.5z M191.7,93.1c-2-0.3-3.5-1.8-7.3,1.3C187.6,93.8,189.2,95,191.7,93.1
				z"/>
		</g>
		<g id="XMLID_3201_">
			<path id="XMLID_3202_" class="st1" d="M280.5,100.4c0,0,0,0,0.3-0.3c1-1.1,1.6-1.4,2.5-2c3.2-0.5,11-5.5,13.6-3.8
				c0.7,1.1,3.4,2.6,4.5,3.8c1,1.4,1.1,3.4-0.1,6.2c-2.1,3.7-4.5,7-7.3,11.5c-0.8,1.7-1.5,3.1-1.9,4.2c-1.4,2.5-3,5.9-4.7,8.5
				c-1.5,3.4,4.9-7.3,4-4.5c-0.1,0.8-0.8,1.7-1.1,2.3c-2.9,5.6-2.8,4.5-3.7,9.6c-0.3,2.8-3.1,17.3-3.1,19.8c0.1,2,1.1,3.1,1.8,4.3
				c1.1,0.6,2.4,1.7,4,2.3c1.3,1.2,2.8,0.6,4.6,0.4c24.8-8.1,16.5-11.4,31.9-25.7c3-3.7,6.5-7,8.5-11.5c0-0.3,0-0.3,1.1-1.7
				c1.1,2.9-2.5,6.8,1.4,7.7c-7.2,10.7-13.3,26.2-23.7,31.8c-3.3,3.6-24.7,20.4-36.8,15.3c-4.2,1.4-7.5-2.7-11.6-4.4
				c-2.7-1.2-5.3-3.5-7.6-6.4c-1-3.7-2-7.7-1.6-11.4c-0.4-1.7-0.2-3.7,0-5.1c1.2-3.4,1.4-9.9,2.8-12.2c0.4-1.4,1.2-2.8,1.4-4.5
				c0.6-0.3,0.2-1.7,2.2-2c0.3,0,0.7-1.1,1-1.4c1.7-2,2.1-3.7,3.8-5.6c0,0-6.7,5.9-2.6,0.2c2.9-5.6,8.8-11.8,11-15.7
				c0.1-0.6,0.7-1.4,0.7-1.4c1.1-1.7,2-2.8,1.7-4.8c-0.2-1.1,0.3-2.3,1.3-4C279.4,100.3,279.6,100.6,280.5,100.4z M310.4,69.8
				c-0.7,0.8-1.3,1.4-1.7,2.5c0,0.3-0.1,0.9-0.7,1.4c-1,0.8-1.9,2-3.3,3.4c-0.7,0.8-3.1,1.9-4.6,2.2c-0.5-0.3-1.5,0.3-2.1,0.8
				c-1.8,1.1-3,0.8-4,0.2c-0.8-0.6-1.4-0.6-2.2-0.6c-1.1,0-2,0-3.1-0.3c0.3-0.3,0.7-0.8,1-1.1c0.1-0.9,0.8-1.7,1.2-2.8
				c0.7-1.4,1.4-2.3,2.4-3.7c0.1-0.6,1-1.1,1-1.4c0.2-1.7,1.8-3.1,2.8-4.8c0.7-0.8,1.3-1.7,2-2.5c0.6-0.6,1.3-1.1,1.8-1.1
				c0.6-0.3,1.2-0.3,1.4,0c-0.1,0.6,0.5,0.6,1.1,0.3c0.6-0.3,0.9-0.6,1.2-0.3c1.1,0.6,2.5,0.9,3.6,1.2c1.9,0.9,3.2,2.3,4.1,4.3
				C311.4,68.4,311.1,69.3,310.4,69.8z"/>
		</g>
		<g id="XMLID_3197_">
			<path id="XMLID_3198_" class="st1" d="M421.9,136c-0.5,7.1,2.1,4.6,12.9,3c3.5-0.5,8.8-1.9,14.6-6.9c2.9-2.5,5.7,0.7,6.9,2.1
				c-0.1,1.1-4.5,6.7-5.1,7.3c-12.8,6.9-19.2,6.8-28.2,7.8c-7.4,1.6-8.4,5.3-11.6,10.9l-1.4,2.3c-1.2,3.4-3.5,5.9-5.3,8.4
				c-0.6,0.6-1.3,1.4-1.9,1.7l-3.2,3.4c-1.4,2-3.4,4.2-5.5,5.6l-2.3,2.2l-3.2,2.5c-0.9,0.3-1.7,0.3-2.6,0c-0.8-0.6-1.8-1.4-2.7-1.7
				c-0.2-0.9-0.1-1.7,0-2.6c-0.3-2.6-0.9-4.8-3.4-5.2c-1.1-0.6-1.8-1.7-2.6-2.6c-1-1.7-1.8-2.3-3.1-3.2c-2.4-1.7-2.4-6.3,0.3-9.9
				c1.4-2.5,3-3.9,4.9-5c1.9-1.4,4-2.5,6.1-3.3c3.7-2.2,6.9-2.2,10.8-3.8c2.1-1.1,3.8-3.1,5.3-6.2c2.8-7.4,6.4-18.1,8.1-25.7
				l1.1-9.6c0.1-0.6,0.1-1.1-0.1-1.7c-0.1-1.4-1.5-2-2.5-0.9c-0.6,0.3-0.9,0.6-1.3,1.4c-2.4,3.1-4.7,6.2-6.5,9.6
				c-5.2,8.2-10.2,16.9-15.4,24.8c-3.8,5.9-7.3,11.3-10.6,17.5c-5.5,10.1-16.4,20.2-21.3,31.2c-1.1,2-1.9,4-3.7,5.1
				c-1.5,0.6-2.3,2.8-2.5,4.5c-0.2,2-0.8,4.2-1.5,5.9c-0.7,1.1-1.4,2.3-2,2.8c-1.9,2-2.7,3.4-3.7,4.8c-3.7,7-6.8,14.1-8.2,21.7
				c-0.7,3.4-1.1,6.8-2.3,10.2c-0.6,2.5-1.9,4.5-4,5.3c-1.5,0.8-2.8,1.9-3.9,4.2c-0.3,0.3-1.3,1.4-1.6,1.4c-0.9,0-1.4,2-2,2.8
				l-0.3,0c-4.7,0.8-7.2-2.7-8.3-8.1c-1.1-5.4-1-11.4-0.7-17.1c1-13.6,3.3-26.7,6.6-40.2c1.2-5.4,3-11,4.4-16.1
				c2.1-8.8,5.1-17.5,8.4-25.7c4.6-12.4,9.4-24.6,14.5-36.4c1.2-2.8,2.6-5.4,3.9-8.8c4.4-8.5,8.3-17.5,12.7-26.2
				c1.9-4.2,4.8-9,7.2-13.2c1.6-1.1,3-1.1,4.3,0.1l6.4,4.4l0.3,0.3c3.7,5.2,5.6,11.5,5.5,20c0.1,4.3-0.7,9.1-2.4,13.9
				c-2.5,6.8-5.3,14.1-8.7,21.2c-2.2,4.5-4.6,10.2-6.9,15.2c-6.4,15.8,3,14,5.6,9.2c1.1-2.3,6.1-7.9,7.2-10.7l11.6-19.1
				c1.9-3.7,3.6-6.2,6.2-9c2.3-2.2,4.6-5,7.1-7.3c1.9-1.7,4.6-3,6.7-3l4.9,0.1c2.6-0.5,4.7,1.8,6.8,3.8c1.3,0.9,2.2,3.2,2.3,5.4
				c0,2.3,0.3,4.8,0.1,6.8l0.2,8.2L421.9,136z M385.8,157.9c-1.8,0.8-3.2,2.8-3.6,6.2c0.1,1.4,0.9,2.6,1.7,2.6
				c0.6-0.6,1.5-0.5,2.1-1.1c1.5-0.8,3.1-1.9,4.1-3.3c3.6-4.2,5.3-8.7,4.2-7C391.1,156.6,388.6,156,385.8,157.9z"/>
		</g>
		<g id="XMLID_3193_">
			<path id="XMLID_3194_" class="st1" d="M454,222.3c-1.1,0-1.1,0-3.9,1.6c0,0,0.1-0.6,0.1-0.9c-0.5-0.3-0.5-0.3-0.8-0.9
				c-0.6,0.6-1.5,0.5-1.9,1.4c-1.6,1.1-3,1.4-4.8,1.9c-0.6,0.3-0.6,0.3-2-0.3c0.4-0.6,0.4-0.9,0.7-1.4c-0.9,0-1.5,0.5-2.3,0.5
				c-0.4,0.6-1,0.8-1.5,0.8c-2.5,1.4-3.5,0.8-4.4-1.5c-0.4-1.7-0.5-3.4-1.5-4.6c-1.5-2.3-1.4-5.1-1.6-8.3c0.1-1.1,0.6-3.1,1.4-4.5
				c1.3-3.7,3.4-6.8,6-10.1c5.3-6.5,10.8-12.1,16.8-16.8c12-9.8,10.6-12.6,8.1-21.2c-1-6.5-3.3-11.4-5.6-16.6
				c-0.2-1.1-0.9-2-1.1-3.1c-2.2-3.7-5.3-24.5-4.7-29.6c0.6-0.6,0.4-1.1,1.1-2.3c-0.1-1.7,0.7-3.4,2-5.1c0.4-0.8,1.4-2.5,0.7-4
				c1-1.4,1.5-3.4,2.6-4.8c0.7-1.4,1.4-2.2,2.2-3.9c0.7-0.8,1.1-1.7,2-2.5c1.1-1.7,2.1-3.4,3.2-5.1c1.4-2.3,3.3-3.9,4.7-5.9
				c0.4-0.6,0.6-0.6,1.2-0.8c0.9-0.6,1.2-0.8,1.9-2c1-1.1,1.6-1.7,2.1-1.1c1.9,0.9,3.2,1.8,4.8,3.5c0,0,0.3,0,0.5,0.3
				c2.5,1.2,5.9,11.7,5.7,15.4c-0.1,0.9-0.2,1.7,0.3,2.3c-0.2,1.7-0.4,3.4-1.2,5.1c-0.8,2.3-1.7,5.1-3.1,7.3c-0.7,1.1-1.1,2-2.3,2.2
				c-0.9,0.6-1.9,1.7-2.6,2.8c-0.4,0.8-1.6,1.7-1.5,3.1c0,0-0.1,0.6-0.4,0.8c-1,1.4-2.1,3.1-2.8,4.5c-1.5,2.8-2,7.9-1.4,10.2
				c0.4,1.4,1.7,2.9,2.5,3.7c3.4,3.2,5.3,14,8.1,17.2c1.3,1.2,1,4.3,2,5.4c1.9,6.3,11.9-1.2,19.6-3.1c4.7-3.1,9.3-6.1,14-9.4
				c3.4-2.2,6.9-4.7,10-7.2c2.2-1.7,4.1-3.6,6.1-5.6c1.6-1.4,3.2-3.1,4.8-4.8c0.4,1.1,0.6,2,0.8,2.8c0.4,1.7,0.5,3.4-0.9,5.1
				c-0.4,0.8-1,1.4-1.1,2.3c-0.8,2-1.9,3.7-3.2,5.3c-1.6,1.7-2.7,3.9-4.4,5.6c-1.6,1.1-2.8,2.2-4.1,3.4c-2.2,1.7-4.4,3.3-6.6,5
				c-0.3,0.3-1,0.8-1.3,1.1c-3.3,1.6-6.5,4.4-9.9,6.7c-1,0.8-2.2,1.7-3.4,2.5c-6.2,4.2-14.8,4-15.7,11.7c0.5,5.7,0.6,4.6-1.9,11.3
				c0.2,0.9-0.4,1.4-0.3,2.3c-0.7,0.8-0.4,1.1-0.4,1.1c-1.3,1.7-1.1,4.8-1.9,6.5c-0.4,0.6-1,1.1-1.6,1.4c-0.3,0.3-0.6,0.3-0.9,0.6
				c-1.3,1.7-3,3.4-4,5.3c-1.8,3.1-10.4,10.9-13,13.2c-1,1.1-1.7,2-2.6,2.8c-1.3,1.7-4,2.5-5.8,3.3c-0.3,0.3-0.6,0.3-0.6,0.6
				c-1.9,2-4,2.8-5.8,3c-0.6,0.3-0.6,0.6-1.2,0.8C450.1,226.5,452.1,224.6,454,222.3z M445.5,198.6c-1.8,0.5-3.7,2.2-4.8,4.2
				c-1.1,1.7-2,2.8-3.3,3.6c-1.3,1.1-2.5,2.2-3.3,3.6c-0.5,1.7-0.6,3.1-1.4,4.5c-0.8,1.7-0.6,2.8,0.2,3.7c1,1.4,2,2.6,3,4
				c0.8,0.6,1.9,0.9,3.2-0.2c1.2-0.8,2.2-1.7,3.8-2.8c1.3-1.1,2.6-2.5,3.9-3.6c2.8-1.9,5.1-4.2,7.2-7.6c0.6-0.6,1-1.4,1.4-2
				c1.7-2.2,3.1-4.8,4.3-7.3c1.7-2.5,1.8-5.4,3.2-8.2c0.3,0,0.3-0.6,0.4-0.8c1-9.1-10.8,3.8-14.6,7.2
				C447.6,197.8,446.7,198.3,445.5,198.6z"/>
		</g>
		<g id="XMLID_3188_">
			<path id="XMLID_3189_" class="st1" d="M623.7,129.4c-0.2,1.7-1.1,1.7-0.9,3.1c0.2,1.1-3.9,9.3-4.6,10.4c-2.2,4.5-4.8,9-7,13.5
				c-3.2,5.1-6.3,9.6-9.4,14.4c-1.4,2-16.8,18.8-18.3,19.9c-4,2.5-11.2,9.8-14.9,12c-2.5,1.4-11.4,4.4-13.4,4.6
				c-3.8,0.2-7.8,0.4-11.2-0.5c-5.9-0.9-13.8-9.9-16-15.6c-1.1-2.6-2.6-4.9-3.1-7.7c-0.7-3.7-0.9-9.7-0.7-13.9
				c2.7-23.8,5.9-27.2,15.4-50.1c0.8-2,1.3-3.7,2.1-5.6c0.5-2,1.6-4,2.4-5.6c1.2-3.1,2.4-6.2,3.6-9c2.1-6.2,10.8-16.9,4.1-18.4
				c-2-0.3-3.7-0.1-5.3-1.5c-1.6-1.2-3.2-2-4.8-3.2c-0.5-0.6-1.3-1.2-1.4-2.6c0.6-0.3,1.2-0.6,1.5-0.5c4.1-0.8,7.9-1.6,12-2.4
				c2.6-0.5,5.5-0.8,8.4-1c1.2-0.3,2.4-0.8,3.1-2.2c1.1-2.2,2.8-4.2,3.6-6.8c3.5-5.3,6.1-11,9.9-16c3.4-4.5,6.7-8.4,10.8-11.8
				c0.7-0.8,1.6-1.7,2.3-2.2c1.2-0.8,2.5-1.4,3.9-1.1c1.7,0.6,3.5-0.2,5.5-0.2c0.3,0,0.3,0,0.6-0.3c4.1-0.8,5.4,0.9,6.1,4.1
				c1.1,2.9,1.4,5.7,1,9.1c-0.2,1.7-0.1,3.1,0.1,4.6c0.2,1.1,0,2.5-0.4,4c-0.4,1.4-0.9,2.8-1.4,4.5c-0.8,2.3-1.7,4.5-2.5,6.8
				c-0.1,0.9-0.2,1.4-0.5,2.3c0.8,0.6,1.7,0.6,2.8,0.6c3.5-0.2,7.2-0.5,10.7-0.7c4.9,0.1,10,0.2,14.9,0.2c1.7,0,3.4,0.6,5.4,0.9
				c-0.7,0.8-1,1.4-1.3,1.7c-0.6,0.6-1.6,1.1-2.2,1.4c-2.1,0.8-4.5,1.9-6.6,2.7c0,0.3-0.3,0.3-0.3,0.3c-3.2,0.2-6.8,1.6-10.2,1.3
				c-2,0-4,0.2-6.1,0.8c-1.2,0.6-2.6,0.5-3.8,0.8c-2.3,0.3-4.4,0.5-6.7,0.8c-1.2,0.3-1.8,1.1-2.6,2.2c-0.3,0.3-0.4,0.6-0.7,0.8
				c-4.5,9.6-10.1,18.6-14.9,27.9c-0.7,1.1-1.4,2.2-1.8,3.1c-1.8,2.8-3.2,5.3-4.4,8.5c-1.1,2.5-2.9,5.1-4.6,7.3
				c-1.4,2-1.4,4.5-3,6.5c-4,7-10.1,28.5-10.8,39.3c-0.2,4.5,0.4,8.8,1.4,13.1c0.4,1.4,1.5,2.3,2.2,3.5c0.3,0,0.5,0.3,1.1,0.3
				c2.6,0,7.7,0.4,10.5-1.3c1.8-1.1,11.2-7.8,13.1-9.2c4.8-4.2,15.7-14.5,19.2-20.2c3.1-4.8,5.3-11,8.4-15.5c1.5-2.8,5-9,6.8-12.1
				C621.9,129.7,624.1,128.6,623.7,129.4z M584,86.8c3.7-7.1,5.2-12.7-5-6.9c-4.2,9.3-6.1,15.8-9.7,24.6c-9,23.4,2.2,6,7.4-4.4
				C579.4,94.7,580.8,91.8,584,86.8z M596.6,54.3c0.4-1.1,0.9-2.5,1.3-4c0.5-2.3,1.4-4.5,1.9-6.8c0.6-2.5,0.6-5.1,0.6-7.7
				c-0.2-1.1-1-1.4-1.6-0.9c-1.2,0.8-2.2,1.4-2.9,2.8c-1.4,2.2-2.8,4.8-3.7,7.3c-0.4,0.8-1,1.7-1.4,2.5c-0.7,1.1-1.4,2.2-2.1,3.7
				c-0.9,2.8-1.8,5.9-3,9c-2,7.4,6,7.8,8.3,2.7C594.8,60.2,595.6,57.4,596.6,54.3z"/>
		</g>
		<g id="XMLID_3181_">
			<path id="XMLID_3182_" class="st1" d="M649.7,130.7c-0.1,0.6-0.7,1.1-1.3,1.4c-0.3,0.3-0.9,0.6-1,1.4c-0.4,1.1-0.7,1.4-1.6,1.7
				c-0.6,0.3-0.6,0.6-1.1,2.3c0.6,0,0.9,0,1.1,0.3c0,0,0,0,0,0.3c-0.6,0-1.1,0-2,0c0.4-0.8,0.5-1.7,0.5-2.3c-0.3,0-0.6,0-0.6,0
				c-0.5,2-1,4-1.5,5.9c0.5,0.3,0.8,0.6,1.1,0.6c0.1,2-0.1,3.7-0.4,5.7c-0.2,2,0.2,3.7,0.6,5.1c0.7,1.2,2.3,7.4,3.1,8.6
				c3.6,4,7.9,9.2,12.4,9.6c1.4,0.3,9.9-1,11.3-1.2c7.1-1.9,14.1-5.5,21-10.2c5.3-3.6,10.4-7.8,15.7-11.7c0.3-0.3,0.6-0.6,1-0.8
				c1.9-2,3.9-3.6,5.8-5.6c3.5-3.1,6.7-6.1,9.7-9.8c1-1.4,2-2.8,3.8-3.4c-0.9,2.5-1.7,4.8-3.1,7.1c-0.4,0.8-1,1.7-1.7,2.2
				c-1.9,2-3.6,3.6-5,5.9c-1,1.1-2.3,2.2-3.3,3.4c-0.3,0.3-0.7,0.8-1.3,1.7c0.9-0.3,1.5-0.5,2.4-0.8c-0.5,1.7-1.9,2-2.4,3.4
				c0.3,0.3,0.2,0.6,0.8,0.9c-1,1.4-2,2.2-3.3,3.4c-1.9,1.4-3.8,3.1-5.4,4.7c-2.9,2.8-6,5-9.2,7.3c-1.6,1.1-2.8,2.2-4.4,3.1
				c-1.2,0.8-2.5,1.4-3.7,2.2c-1.8,0.8-3.6,1.7-5.5,2.8c-3.1,1.7-6.4,3-9.6,3.6c-0.9,0.3-1.8,0.5-2.7,0.8c-3.6,1.1-7.1,1.6-10.5,1.8
				c-4.1,0.5-20.6-2.9-24.2-4.3c-9.6-4.1-11-9-15.2-13c-1.6-1.4-2.7-3.7-3.3-6c-1-3.7-0.9-7.7-0.7-11.9c1-8.8,4.3-17.3,8.9-25.2
				c1-1.7,1-1.7,1.1-4.3c-1.5,0.8-2.5,1.4-3.2,3.1c-1.1,2.5-2.6,4.8-4.3,7.3c0.3-2.5,1.6-4.2,2.7-6.2c2.9-5.1,6-9.8,9.7-14.3
				c3.7-4.8,7.6-9,12.1-12.9c4.5-4.2,9.2-7.8,14.1-10.6c1.2-0.6,2.1-0.8,3-1.4c1.5-0.6,3-0.8,3.7,0.6c0.8,0.9,1.9,0.6,2.5,1.2
				c0.8,0.6,0.9,1.7,1.5,2.3c2.7,1.5,13.3,4.5,15.7,6.2c0.8,0.6,1.2,1.7,1.7,2.9c1.1,2.6,2,5.4,3.8,7.2c0.5,0.6,0.7,1.7,0.9,2.6
				c0.2,3.4,0.1,6.5-1.2,10.2c-1,4-3.2,7.6-5.6,11c-1.4,2-2.7,3.7-3.8,5.9c-0.8,2-2.1,3.7-3.5,5.6c-1.4,2.3-3.6,3.6-5.6,4.2
				c-1.8,0.8-3.9,1.1-5.5,0.8c-0.8-0.3-1.7,0-2.2-1.2c0-0.3-0.3-0.3-0.3-0.3c-2.3,0.3-3.5-2.3-5.1-3.2c-0.3-0.3-0.4-1.1-0.4-1.4
				c0.7-1.1,0.2-1.7,0-2.5c-0.9-2.3-1.7-4.9-2.9-7.2c-0.2-0.9-1-1.2-2-0.3C651.2,127.8,649.9,129,649.7,130.7z M619.6,155.8
				c0.2,0.9,0.4,1.4,0.6,2.3c-0.1,0.9,0.7,1.4,0,2.6c-0.3-0.3-0.5-0.3-0.5-0.6c-1.1-2.9-1.3-6.6-1.4-10.3c-0.3-0.3,0.1-0.6,0.1-0.9
				c0.5-4.3,0.9-8.2,2.6-12.5c0.4-0.8,0.8-1.7,0.9-2.5c0.1-0.6,0.1-0.9,0.2-2c-1.1,1.7-1.7,2.8-2.2,3.9c-0.4,1.4-0.9,2.5-1.3,4
				c-2,7.4-2.5,14.2,0,20.2c0.4,1.1,1.2,2,1.9,3.1c0.5,0.6,1,0.9,1.9,1.2c0,0.3,0.3,0,0.9,0c-0.7-1.4-1.4-2.6-1.8-4
				c-0.7-1.7-0.5-3.4-1.2-4.8C619.9,155.5,619.6,155.8,619.6,155.8z M621.6,137.6c-1.9,4.5-2.1,8.8-2.1,13c0,0.3,0.3,0.3,0.5,0.6
				c0.6-3.1,1.2-5.9,1.9-8.8c0.5-2,1-4,0.4-5.7C622,137.1,621.7,137.4,621.6,137.6z M641.2,145c0,0.3,0,0.3-0.1,0.6
				C641.1,145.3,641.1,145.3,641.2,145z M660.3,115.5c-0.7,0.8-1.7,2-2.4,3.1c-1.4,2-1.2,3.4,0.1,4.3c0.8,0.6,1.9,1.2,2.4,2
				c1.5,2,3.8,1.8,6.1,1.5c2.1-0.5,3.7-2.5,5.1-4.5c2.6-4.8,3.8-5.6,6.1-10.4c5.8-10.7-3.7-8.3-8.3-5
				C666,108.8,663.3,112.4,660.3,115.5z"/>
		</g>
		<g id="XMLID_3178_">
			<path id="XMLID_3179_" class="st1" d="M757.9,141.4c1.6-4.2,13.9-24.2,16.3-27.6c2-2.5,4-5.1,5.8-7.9c2-2.2,4-4.8,5.4-7
				c1.4-2,3.2-3.1,5-3.3c2,0,3.8-0.2,5.5-0.2c3.4,0,5.2,2.6,6.5,6.3c0,0.3-0.1,0.6-0.1,1.1c0.2,3.7,0.6,7.7,0.7,11.7
				c0.2,3.7-0.6,7.7-1,11.3c-0.3,2.5-0.3,5.1-0.9,7.7c1.3,0.9,0.9,2,1.2,1.7c0.6-0.6,2.5,0.3,3.2-0.2c0.4-0.6,1-0.8,1.3-1.4
				c1.2-0.8,2.5-1.7,3.8-3.1c1-1.4,1.9-1.4,2.9,0.1c-0.1,0.9-0.5,1.7-1.4,2.2c-0.3,0.3-0.7,0.8-1,1.4c-0.4,0.9-1.1,1.7-1.9,2
				c-0.3,0.3-0.6,0.6-1,0.8c-0.3,0.3-0.9,0.6-1,0.8c-0.3,0.3-0.6,0.3-0.9,0.6c-1.3,1.1-2.2,1.4-3.3,1.4c-0.3,0-1.5,0.3-2.7,1.1
				c-0.9,0.6-1.8,0.5-2.3,0c-1.9-1.2-3.9-1.5-5.8-2.4c-3.3-0.9-5.6-4.1-6.6-8.1c-1.1-5.1-0.5-10.8,1-16.2c0.9-2.5,1.1-4.8,1.7-7.1
				c0.5-1.7,1-3.4,1.4-5.1c0.7-1.1,0.8-2,0.6-3.1c-0.3,0-0.8-0.3-0.9,0.3c-0.3,0.3-1,0.8-1.3,1.4c-1.4,2.3-3.1,4.5-4.8,7
				c-1,1.4-1.8,3.1-2.3,5.1c0.2,1.1-0.8,2-1.2,2.8c-3.1,4.8-5.9,9.3-8.3,14.7c-1.9,4-4.3,7.3-6.4,11.3c-3.3,5.9-7,11.3-9.7,17.5
				c-0.8,2-2.2,4.2-3.3,6.5c-0.8,1.7-9.5,15.2-11.4,16.6c-0.1,0.6-1,0.8-1.6,1.4c-4,4.8-8,4.4-12.4,3.2c-0.6,0.6-1.1,0-1.7-0.6
				c-4.5-1.2-6.3-5.5-6.8-11.2c-0.3-4.8,0.3-9.9,0.8-14.8c1.1-7.4,2.2-14.7,3.7-22.1c2.4-8.2,1.2-7.7,4.3-15.3
				c3.3-11,1.9-9.3,7.2-20.3c0.5-2,1.8-3.4,2.6-5.4c2.6-5.1,4.8-9.6,7.6-14.1c1.6-3.7,2.8-4.2,5.6-3.6c2,0,4.5,0.6,7,1.2
				c1.7,0.3,3.3,0.9,5.4,2.9c1.6,3.7,4.2,6.3,6.7,9.8c2.1,4.6,2.3,8-0.1,13.4c-2.1,5.6-2.2,1.4-4.3,7.3c-5.1,11.9-13,21.1-17.4,31.8
				C741.5,159.3,756.2,146.2,757.9,141.4z"/>
		</g>
	</g>
</g>
</svg>
