<?xml version="1.0" encoding="utf-8"?>
<!-- Generator: Adobe Illustrator 24.2.3, SVG Export Plug-In . SVG Version: 6.00 Build 0)  -->
<svg version="1.1" id="Ebene_1" xmlns="http://www.w3.org/2000/svg" xmlns:xlink="http://www.w3.org/1999/xlink" x="0px" y="0px"
	 viewBox="0 0 24 22.5" style="enable-background:new 0 0 24 22.5;" xml:space="preserve">
<style type="text/css">
	.st0{fill-rule:evenodd;clip-rule:evenodd;}
</style>
<desc>Created with Sketch.</desc>
<g id="Icons">
	<g id="detail_kalender" transform="translate(-12.000000, -13.000000)">
		<g id="Shape" transform="translate(12.000000, 13.000000)">
			<path class="st0" d="M20.2,1.5h-3V0.7c0-0.4-0.3-0.7-0.7-0.7c-0.4,0-0.7,0.3-0.7,0.7v0.7H8.2V0.7C8.2,0.3,7.9,0,7.5,0
				C7,0,6.7,0.3,6.7,0.7v0.7h-3C1.6,1.5,0,3.1,0,5.2v13.5c0,2.1,1.6,3.7,3.7,3.7h16.5c2.1,0,3.7-1.6,3.7-3.7V5.2
				C24,3.1,22.3,1.5,20.2,1.5L20.2,1.5z M1.5,5.2C1.5,4,2.5,3,3.7,3h3v0.7c0,0.4,0.3,0.7,0.7,0.7c0.4,0,0.7-0.3,0.7-0.7V3h7.5v0.7
				c0,0.4,0.3,0.7,0.7,0.7c0.4,0,0.7-0.3,0.7-0.7V3h3c1.2,0,2.2,1,2.2,2.2v2.2h-21V5.2L1.5,5.2z M22.5,18.7c0,1.2-1,2.2-2.2,2.2H3.7
				c-1.2,0-2.2-1-2.2-2.2V9h21V18.7L22.5,18.7z"/>
			<path class="st0" d="M5.2,18.7c0.4,0,0.7-0.1,1-0.4c0.3-0.3,0.4-0.7,0.4-1s-0.1-0.7-0.4-1c-0.6-0.6-1.5-0.6-2.1,0
				c-0.3,0.3-0.4,0.6-0.4,1c0,0.3,0.1,0.7,0.4,1C4.5,18.6,4.8,18.7,5.2,18.7L5.2,18.7z"/>
			<path class="st0" d="M5.2,14.2c0.4,0,0.7-0.1,1-0.4c0.3-0.3,0.4-0.7,0.4-1s-0.1-0.7-0.4-1c-0.6-0.6-1.5-0.6-2.1,0
				c-0.3,0.3-0.4,0.6-0.4,1s0.1,0.7,0.4,1C4.5,14.1,4.8,14.2,5.2,14.2L5.2,14.2z"/>
			<path class="st0" d="M9.7,18.7c0.4,0,0.7-0.1,1-0.4c0.3-0.3,0.4-0.7,0.4-1s-0.1-0.7-0.4-1c-0.6-0.6-1.5-0.6-2.1,0
				c-0.3,0.3-0.4,0.7-0.4,1s0.1,0.7,0.4,1S9.3,18.7,9.7,18.7L9.7,18.7z"/>
			<path class="st0" d="M9.7,14.2c0.4,0,0.7-0.1,1-0.4c0.3-0.3,0.4-0.7,0.4-1s-0.1-0.7-0.4-1c-0.6-0.6-1.5-0.6-2.1,0
				c-0.3,0.3-0.4,0.7-0.4,1s0.1,0.7,0.4,1S9.3,14.2,9.7,14.2L9.7,14.2z"/>
			<path class="st0" d="M14.2,18.7c0.4,0,0.7-0.1,1-0.4c0.3-0.3,0.4-0.6,0.4-1s-0.1-0.7-0.4-1c-0.6-0.6-1.5-0.6-2.1,0
				c-0.3,0.3-0.4,0.7-0.4,1s0.1,0.7,0.4,1C13.5,18.6,13.8,18.7,14.2,18.7L14.2,18.7z"/>
			<path class="st0" d="M14.2,14.2c0.4,0,0.7-0.1,1-0.4c0.3-0.3,0.4-0.6,0.4-1c0-0.3-0.1-0.7-0.4-1c-0.6-0.6-1.5-0.6-2.1,0
				c-0.3,0.3-0.4,0.7-0.4,1s0.1,0.7,0.4,1C13.5,14.1,13.8,14.2,14.2,14.2L14.2,14.2z"/>
			<path class="st0" d="M18.7,18.7c0.4,0,0.7-0.1,1-0.4c0.3-0.3,0.4-0.7,0.4-1s-0.1-0.7-0.4-1c-0.6-0.6-1.5-0.6-2.1,0
				c-0.3,0.3-0.4,0.6-0.4,1c0,0.3,0.1,0.7,0.4,1S18.3,18.7,18.7,18.7L18.7,18.7z"/>
			<path class="st0" d="M18.7,14.2c0.4,0,0.7-0.1,1-0.4c0.3-0.3,0.4-0.6,0.4-1c0-0.3-0.1-0.7-0.4-1c-0.6-0.6-1.5-0.6-2.1,0
				c-0.3,0.3-0.4,0.7-0.4,1s0.1,0.7,0.4,1S18.3,14.2,18.7,14.2L18.7,14.2z"/>
		</g>
	</g>
</g>
</svg>
