<?xml version="1.0" encoding="utf-8"?>
<!-- Generator: Adobe Illustrator 24.2.3, SVG Export Plug-In . SVG Version: 6.00 Build 0)  -->
<svg version="1.1" id="Ebene_1" xmlns="http://www.w3.org/2000/svg" xmlns:xlink="http://www.w3.org/1999/xlink" x="0px" y="0px"
	 viewBox="0 0 23.6 22.5" style="enable-background:new 0 0 23.6 22.5;" xml:space="preserve">
<style type="text/css">
	.st0{fill-rule:evenodd;clip-rule:evenodd;fill:#1E201D;}
</style>
<desc>Created with Sketch.</desc>
<g id="Icons">
	<g id="detail_merken" transform="translate(-12.000000, -13.000000)">
		<g id="Shape" transform="translate(12.000000, 13.000000)">
			<path class="st0" d="M12.4,0.4l2.5,7.7l8.1,0c0.3,0,0.6,0.3,0.6,0.6c0,0.2-0.1,0.4-0.3,0.5l0,0L16.8,14l2.5,7.7
				c0.1,0.3-0.1,0.7-0.4,0.8c-0.2,0.1-0.4,0-0.6-0.1l-6.5-4.8l-6.6,4.8c-0.3,0.2-0.7,0.1-0.8-0.1c-0.1-0.2-0.1-0.4-0.1-0.5h0L6.8,14
				L0.3,9.2C0,9-0.1,8.6,0.1,8.4c0.1-0.2,0.3-0.3,0.5-0.3l8.1,0l2.5-7.7C11.3,0.1,11.7-0.1,12,0C12.2,0.1,12.3,0.2,12.4,0.4
				L12.4,0.4L12.4,0.4z M13.8,8.9l-2-6.3L9.7,8.9l0,0C9.7,9.2,9.4,9.4,9.2,9.4l-6.7,0l5.4,3.9l0,0c0.2,0.2,0.3,0.4,0.2,0.7L6,20.3
				l5.4-3.9c0.2-0.2,0.5-0.2,0.7,0l5.4,3.9L15.5,14c-0.1-0.3,0-0.5,0.2-0.7l5.4-3.9l-6.6,0C14.2,9.4,13.9,9.2,13.8,8.9L13.8,8.9
				L13.8,8.9z"/>
		</g>
	</g>
</g>
</svg>
