<?xml version="1.0" encoding="utf-8"?>
<!-- Generator: Adobe Illustrator 24.2.3, SVG Export Plug-In . SVG Version: 6.00 Build 0)  -->
<svg version="1.1" id="Ebene_1" xmlns="http://www.w3.org/2000/svg" xmlns:xlink="http://www.w3.org/1999/xlink" x="0px" y="0px"
	 viewBox="0 0 15.7 24" style="enable-background:new 0 0 15.7 24;" xml:space="preserve">
<style type="text/css">
	.st0{fill-rule:evenodd;clip-rule:evenodd;}
</style>
<desc>Created with Sketch.</desc>
<g id="Icons">
	<g id="detail_place" transform="translate(-16.000000, -12.000000)">
		<g id="Shape" transform="translate(16.000000, 12.000000)">
			<path class="st0" d="M7.9,0C3.5,0,0,3.5,0,7.9C0,12,7.1,23.3,7.5,23.8C7.5,23.9,7.7,24,7.9,24c0.2,0,0.3-0.1,0.4-0.2
				c0.3-0.5,7.5-11.7,7.5-15.9C15.7,3.5,12.2,0,7.9,0L7.9,0z M7.9,22.6c-0.6-1-2-3.2-3.3-5.6C2.2,12.6,1,9.4,1,7.9
				C1,4.1,4.1,1,7.9,1s6.9,3.1,6.9,6.9c0,1.6-1.3,4.7-3.6,9.1C9.8,19.4,8.5,21.5,7.9,22.6L7.9,22.6z"/>
			<path class="st0" d="M7.9,3.7c-2.1,0-3.7,1.6-3.7,3.6c0,2,1.7,3.6,3.7,3.6s3.7-1.6,3.7-3.6C11.6,5.3,9.9,3.7,7.9,3.7L7.9,3.7z
				 M7.9,10c-1.5,0-2.7-1.2-2.7-2.6c0-1.5,1.2-2.6,2.7-2.6s2.7,1.2,2.7,2.6C10.6,8.8,9.4,10,7.9,10L7.9,10z"/>
		</g>
	</g>
</g>
</svg>
