<?xml version="1.0" encoding="utf-8"?>
<!-- Generator: Adobe Illustrator 24.2.0, SVG Export Plug-In . SVG Version: 6.00 Build 0)  -->
<svg version="1.1" id="Ebene_1" xmlns="http://www.w3.org/2000/svg" xmlns:xlink="http://www.w3.org/1999/xlink" x="0px" y="0px"
	 viewBox="0 0 24 22.3" style="enable-background:new 0 0 24 22.3;" xml:space="preserve">
<path id="Shape" d="M11.9,22.3L11.9,22.3l-8.4-7.6c-1.6-1.5-2.8-3.4-3.3-5.5C0,8.4,0,7.5,0,6.7C0.4,2.8,3.1,0,6.5,0
	c2.2,0,4.3,1.2,5.4,3.2c0.6-1,1.4-1.8,2.4-2.3c1-0.6,2.1-0.9,3.2-0.9c3.4,0,6.1,2.8,6.5,6.7c0.1,0.8,0,1.7-0.2,2.5
	c-0.5,2.1-1.7,4.1-3.3,5.5L11.9,22.3L11.9,22.3z M7.4,2.8c-2.5,0-4.6,2.1-4.6,4.6c0,0.3,0.2,0.5,0.5,0.4c0.2,0,0.4-0.2,0.4-0.4
	c0-2,1.7-3.7,3.7-3.7c0.3,0,0.5-0.2,0.5-0.4C7.9,3,7.7,2.8,7.4,2.8C7.4,2.8,7.4,2.8,7.4,2.8L7.4,2.8z"/>
</svg>
