<?xml version="1.0" encoding="utf-8"?>
<!-- Generator: Adobe Illustrator 24.2.1, SVG Export Plug-In . SVG Version: 6.00 Build 0)  -->
<svg version="1.1" id="Logo" xmlns="http://www.w3.org/2000/svg" xmlns:xlink="http://www.w3.org/1999/xlink" x="0px" y="0px"
	 viewBox="0 0 153.8 22.5" style="enable-background:new 0 0 153.8 22.5;" xml:space="preserve">
<style type="text/css">
	.st0{enable-background:new    ;}
	.st1{fill:#FFFFFF;}
</style>
<g class="st0">
	<path class="st1" d="M113.5,5.6c0,1.7-0.8,3.2-2.4,4.5c-1.5,1.2-3.3,1.9-5.4,2.2c-0.5,1.2-1,2.2-1.4,2.9c-0.6,0.9-1.4,1.7-2.3,2.2
		c2.1,0.1,3.5,0.1,4.3,0.1c2.6-0.1,4-0.4,4.3-0.9c0.1-0.1,0.2-0.2,0.3-0.2c0.1,0,0.1,0.1,0.1,0.3c-0.2,1.1-0.6,1.9-1.3,2.4
		s-1.5,0.7-2.7,0.7c-0.9,0-2.1-0.2-3.5-0.5c-1.7-0.4-2.7-0.7-3.1-0.7c-1.2,0.7-2.2,1.1-2.9,1.1c-1.1,0-1.6-0.3-1.6-0.9
		c0-0.4,0.3-0.7,0.9-1s1.5-0.4,2.6-0.4c0.4,0,0.7,0,1.1,0c0.5-0.2,0.9-0.7,1.2-1.3c0.4-0.7,0.9-1.9,1.4-3.6
		c-1.4-0.2-2.5-0.6-3.4-1.4c-1-0.8-1.5-1.9-1.5-3.3c0-1,0.4-1.9,1.1-2.7c0.7-0.7,1.5-1.2,2.4-1.3c0.2,0,0.3,0,0.3,0.1
		c0,0.1-0.1,0.1-0.2,0.2c-0.9,0.6-1.4,1.6-1.4,2.9c0,1,0.3,1.8,0.8,2.6c0.6,0.8,1.3,1.2,2.3,1.4c0.7-2.3,1.7-4,2.9-5.3
		c1.3-1.4,2.8-2.1,4.6-2.1c0.7,0,1.3,0.2,1.7,0.5C113.2,4.4,113.5,5,113.5,5.6z M110.8,4.6c-0.8,0-1.6,0.7-2.5,2.1
		c-0.7,1.1-1.4,2.6-2,4.3c1.4-0.2,2.7-1,3.9-2.2c1.1-1.2,1.6-2.2,1.6-3.2C111.8,4.9,111.4,4.6,110.8,4.6z"/>
	<path class="st1" d="M121.1,12.8c0,1.7-0.6,3.2-1.7,4.5c-1.2,1.3-2.6,2-4.3,2c-1,0-1.7-0.3-2.3-0.8c-0.5-0.5-0.8-1.3-0.8-2.3
		c0-1.7,0.6-3.2,1.8-4.4c1.2-1.2,2.7-1.8,4.4-1.8C120.1,10.1,121.1,11,121.1,12.8z M118.6,13c0-1.2-0.4-1.8-1.1-1.8
		c-0.9,0-1.6,0.7-2.2,2.1c-0.5,1.2-0.8,2.3-0.8,3.2c0,1.2,0.4,1.7,1.1,1.7c0.9,0,1.6-0.7,2.2-2C118.3,15.1,118.6,14,118.6,13z"/>
	<path class="st1" d="M131,10.7c0,1-0.4,2.1-1.2,3.5c-0.9,1.5-2.3,3.1-4,4.7c-0.4,0.4-0.8,0.6-1.3,0.6c-0.3,0-0.7-0.1-1.1-0.2
		c0-0.8,0-1.8,0-3.2c-0.1-1.3-0.2-2.3-0.3-3c-0.2-1.2-0.5-2-1-2.3c0.8-0.3,1.4-0.5,1.9-0.5c0.7,0,1.1,0.4,1.3,1.1
		c0.2,1.2,0.3,2.5,0.3,4.1c0,0.8,0,1.5-0.1,2.2c2.4-2.6,3.6-4.8,3.6-6.5c0-0.5-0.1-0.9-0.4-1.3c-0.1-0.2-0.1-0.3,0.2-0.3
		c0.3-0.1,0.6-0.1,0.9-0.1C130.5,9.4,131,9.8,131,10.7z"/>
	<path class="st1" d="M139.1,11.7c0,1.1-0.5,2.1-1.5,2.8c-0.9,0.7-2,1.1-3.3,1.1c-0.3,0-0.5,0-0.8,0c0,0.3-0.1,0.5-0.1,0.8
		c0,1.2,0.5,1.8,1.4,1.8c1.2,0.1,2.5-0.5,3.8-1.7l0.1-0.1c0.1,0,0.1,0.1,0.1,0.4c0,0.6-0.1,1-0.3,1.1c-1.2,1-2.6,1.5-4.2,1.5
		c-1.1,0-2-0.3-2.5-0.8c-0.6-0.6-0.9-1.5-0.8-2.6c0.1-1.6,0.8-2.9,2.1-4.1c1.2-1.1,2.5-1.7,3.8-1.7c0.8,0,1.3,0.1,1.7,0.4
		C138.9,10.7,139.1,11.1,139.1,11.7z M136.8,11.9c0-0.5-0.2-0.8-0.6-0.8c-0.5,0-1,0.3-1.4,1c-0.4,0.6-0.8,1.5-1.1,2.6
		c0.1,0,0.2,0,0.4,0c0.7,0,1.3-0.3,1.9-0.9C136.5,13.2,136.8,12.6,136.8,11.9z"/>
	<path class="st1" d="M146.2,13.1c-0.1-0.3-0.4-0.4-0.7-0.4c-0.8,0-1.6,0.7-2.4,2.1c-0.6,1-1,2.2-1.4,3.6c-0.1,0.6-0.6,0.9-1.3,0.9
		c-0.4,0-0.8-0.1-1.3-0.2c0.9-2.7,1.4-4.9,1.6-6.4c0.1-0.8,0-1.4-0.3-1.9c0.9-0.5,1.6-0.7,2-0.7c0.3,0,0.5,0.1,0.7,0.3
		c0.1,0.2,0.2,0.5,0.1,0.8c-0.1,1-0.4,2.1-0.8,3.1c1.5-2.7,2.8-4.1,3.9-4.2c0.6,0,0.9,0.2,0.9,0.8C147.3,11.6,146.9,12.4,146.2,13.1
		z"/>
	<path class="st1" d="M153.2,9.7c0.1,0.1,0,0.3-0.2,0.4c-0.3,0.2-0.6,0.4-0.7,0.9c-0.1,0.3-0.2,0.6-0.2,0.9c0,0.3,0.1,1,0.3,1.9
		s0.3,1.6,0.2,2.1c-0.1,1-0.6,1.9-1.7,2.6c-1,0.7-2,1-3,1c-0.7,0-1-0.3-1-0.9c0-0.1,0-0.3,0.1-0.5c0.1-0.3,0.2-0.4,0.3-0.2
		c0.4,0.3,0.7,0.5,1.1,0.5c1.2,0,1.9-0.8,1.9-2.3c0-1.1-0.1-2.1-0.4-3c-0.4,0.9-1,1.8-1.7,2.8c-0.9,1.1-1.8,1.9-2.7,2.6
		c-0.2,0.1-0.4,0.2-0.7,0.1s-0.5-0.2-0.5-0.3c0,0,0.1-0.1,0.2-0.2c1.9-1.5,3.6-3.6,5-6.4c0.3-0.7,0.7-1.1,1.2-1.4
		c0.7-0.4,1.4-0.7,2-0.8C153,9.4,153.1,9.5,153.2,9.7z"/>
</g>
<path id="Shape" class="st1" d="M82.1,22.5L82.1,22.5l-8.4-7.6c-1.6-1.5-2.8-3.4-3.3-5.5c-0.2-0.8-0.3-1.7-0.2-2.5
	c0.3-3.9,3.1-6.7,6.5-6.7c2.2,0,4.3,1.2,5.4,3.2c0.6-1,1.4-1.8,2.4-2.3c1-0.6,2.1-0.9,3.2-0.9c3.4,0,6.1,2.8,6.5,6.7
	c0.1,0.8,0,1.7-0.2,2.5c-0.5,2.1-1.7,4.1-3.3,5.5L82.1,22.5L82.1,22.5z M77.6,3C75,3,73,5.1,73,7.6c0,0.3,0.2,0.5,0.5,0.4
	c0.2,0,0.4-0.2,0.4-0.4c0-2,1.7-3.7,3.7-3.7c0.3,0,0.5-0.2,0.5-0.4C78.1,3.2,77.9,3,77.6,3L77.6,3L77.6,3z"/>
<g class="st0">
	<path class="st1" d="M16.3,3.1c-0.3,1-0.6,1.6-1,1.9s-1.1,0.4-2.1,0.5c-0.4,0-1.3,0-3-0.1C9.8,6,9.5,6.8,9.2,7.7
		C8.8,8.9,8.4,10,8.1,11.1h1.6c1.1,0,1.8-0.1,2.1-0.2c0.1,0,0.1,0,0.1,0s0,0.1,0,0.2c-0.2,1-0.7,1.5-1.4,1.5c-0.5,0-1.4,0-2.9,0
		c-0.3,1-0.7,2.5-1.2,4.5C6.1,18.4,6,19.4,6,19.9c0,0.3,0,0.4,0.1,0.5s0.1,0.2,0,0.2c0,0.1-0.1,0.1-0.3,0.1
		c-1.3-0.2-1.9-1.1-1.9-2.5c0-0.4,0-0.7,0.1-1.2c0.2-1.1,0.6-2.6,1.2-4.4c-0.8,0-1.3,0-1.7,0.2c-0.1,0.1-0.2,0-0.2-0.1
		c0-0.2,0-0.5,0.2-0.9c0.1-0.3,0.2-0.5,0.3-0.5c0.1-0.1,0.3-0.2,0.5-0.2h1.3c0.5-1.5,0.9-2.7,1.2-3.7c0.2-0.6,0.4-1,0.7-1.2
		C7.8,6,8.2,5.7,8.9,5.4c-1.8,0-3.2,0-4,0.1c-2.1,0.2-3.2,1-3.2,2.3c0,0.7,0.1,1.2,0.4,1.5c0.1,0.1,0.1,0.2,0.1,0.2
		c0,0.1-0.1,0.2-0.4,0.2c-0.5,0-0.9-0.2-1.3-0.5C0.2,8.8,0,8.3,0,7.8c0-1.3,0.8-2.3,2.2-3c1.5-0.8,3.5-1.2,6-1.2c0.2,0,0.7,0,1.6,0
		c0.9,0,1.6,0,2.2,0c2.2,0,3.6-0.2,4-0.7c0.1-0.1,0.2-0.1,0.2-0.1S16.3,2.9,16.3,3.1C16.4,3,16.4,3.1,16.3,3.1z"/>
	<path class="st1" d="M20.3,11.7c0,1.1-0.5,2.1-1.5,2.8c-0.9,0.7-2,1.1-3.3,1.1c-0.3,0-0.5,0-0.8,0c0,0.3-0.1,0.5-0.1,0.8
		c0,1.2,0.5,1.8,1.4,1.8c1.2,0.1,2.5-0.5,3.8-1.7l0.1-0.1c0.1,0,0.1,0.1,0.1,0.4c0,0.6-0.1,1-0.3,1.1c-1.2,1-2.6,1.5-4.2,1.5
		c-1.1,0-2-0.3-2.5-0.8c-0.6-0.6-0.9-1.5-0.8-2.6c0.1-1.6,0.8-2.9,2.1-4.1c1.2-1.1,2.5-1.7,3.8-1.7c0.8,0,1.3,0.1,1.7,0.4
		C20.1,10.7,20.3,11.1,20.3,11.7z M18,11.9c0-0.5-0.2-0.8-0.6-0.8c-0.5,0-1,0.3-1.4,1c-0.4,0.6-0.8,1.5-1.1,2.6c0.1,0,0.2,0,0.4,0
		c0.7,0,1.3-0.3,1.9-0.9C17.7,13.2,18,12.6,18,11.9z"/>
	<path class="st1" d="M26.8,9.7c0.1,0.1,0,0.3-0.2,0.4c-0.3,0.2-0.6,0.4-0.7,0.9c-0.1,0.3-0.2,0.6-0.2,0.9c0,0.3,0.1,1,0.3,1.9
		c0.2,0.9,0.3,1.6,0.2,2.1c-0.1,1-0.6,1.9-1.6,2.6s-2,1-3,1c-0.7,0-1-0.3-1-0.9c0-0.1,0-0.3,0.1-0.5c0.1-0.3,0.2-0.4,0.3-0.2
		c0.4,0.3,0.7,0.5,1.1,0.5c1.2,0,1.9-0.8,1.9-2.3c0-1.1-0.1-2.1-0.4-3c-0.4,0.9-1,1.8-1.7,2.8c-0.9,1.1-1.8,1.9-2.7,2.6
		c-0.2,0.1-0.4,0.2-0.7,0.1c-0.3-0.1-0.5-0.2-0.5-0.3c0,0,0.1-0.1,0.2-0.2c1.9-1.5,3.6-3.6,5-6.4c0.3-0.7,0.7-1.1,1.2-1.4
		c0.7-0.4,1.4-0.7,2-0.8C26.6,9.4,26.7,9.5,26.8,9.7z"/>
	<path class="st1" d="M35,14.5c-0.1,0.7-0.2,1.2-0.4,1.5c-0.7,0.9-1.5,1.7-2.4,2.4c-0.9,0.7-1.8,1-2.4,1c-1.2,0-1.8-0.7-1.8-2
		c0-0.4,0.1-0.8,0.2-1.3c0.3-1.2,0.6-2.6,1.1-4L28.6,12c-0.2,0-0.4-0.1-0.4-0.2c0-0.1,0-0.2,0.1-0.3l0.2-0.5
		c0.1-0.2,0.3-0.4,0.6-0.4h0.7c0.1-0.2,0.1-0.4,0.2-0.6c0.3-0.9,0.7-1.4,1.1-1.7s1-0.4,2-0.4c0.1,0,0.1,0,0.2,0.1c0,0.1,0,0.1,0,0.2
		c-0.4,0.3-0.8,1.1-1.2,2.4h2.2c0.1,0,0.1,0,0.1,0.1s-0.1,0.3-0.2,0.6c-0.2,0.3-0.4,0.5-0.6,0.5L31.7,12c-0.4,1.4-0.8,2.7-1.1,3.9
		c-0.1,0.4-0.2,0.8-0.2,1.1c0,0.6,0.2,0.8,0.6,0.8C31.9,17.8,33.2,16.7,35,14.5c0.1-0.1,0.2-0.2,0.2-0.2C35,14.1,35,14.2,35,14.5z"
		/>
	<path class="st1" d="M40.2,15.4c-0.1,0.6-0.2,1-0.4,1.2c-0.5,0.7-1.2,1.4-2.2,1.9c-0.9,0.5-1.6,0.8-2.1,0.8c-1.2,0-1.8-0.6-1.8-1.8
		c0-0.3,0.1-0.7,0.2-1.1c0.4-1.1,0.8-2.5,1.3-4.2c0.1-0.3,0.1-0.6,0.1-0.9c0-0.4-0.1-0.8-0.4-1c0.6-0.2,1.2-0.4,1.7-0.4
		c0.8,0,1.2,0.3,1.2,1c0,0.2,0,0.4-0.1,0.7s-0.4,1.2-0.9,2.6c-0.4,1.1-0.6,1.9-0.7,2.4c-0.1,0.5,0.1,0.7,0.4,0.7
		c0.4,0,1-0.4,1.8-1.1c0.6-0.6,1.1-1.1,1.5-1.6c0.1-0.2,0.2-0.2,0.3-0.2C40.2,14.9,40.2,15.1,40.2,15.4z M39.3,6.3
		c0,0.4-0.2,0.8-0.7,1.1c-0.5,0.3-0.9,0.4-1.4,0.4c-0.3,0-0.6-0.1-0.9-0.2c-0.3-0.2-0.4-0.4-0.4-0.7c0-0.5,0.2-0.8,0.7-1.1
		c0.4-0.3,0.9-0.4,1.3-0.4c0.3,0,0.6,0.1,0.9,0.3C39.2,5.8,39.3,6,39.3,6.3z"/>
	<path class="st1" d="M48.5,10.7c0,1-0.4,2.1-1.2,3.5c-0.9,1.5-2.3,3.1-4,4.7c-0.4,0.4-0.8,0.6-1.3,0.6c-0.3,0-0.7-0.1-1.1-0.2
		c0-0.8,0-1.8,0-3.2c-0.1-1.3-0.2-2.3-0.3-3c-0.2-1.2-0.5-2-1-2.3c0.8-0.3,1.4-0.5,1.9-0.5c0.7,0,1.1,0.4,1.3,1.1
		c0.2,1.2,0.3,2.5,0.3,4.1c0,0.8,0,1.5-0.1,2.2c2.4-2.6,3.6-4.8,3.6-6.5c0-0.5-0.1-0.9-0.4-1.3c-0.2-0.2-0.2-0.3,0-0.4
		c0.3-0.1,0.6-0.1,0.9-0.1C48,9.4,48.5,9.8,48.5,10.7z"/>
	<path class="st1" d="M60.9,14.7c0,0.5-0.1,0.9-0.3,1.1c-1.8,2.3-3.3,3.5-4.8,3.5c-1.2,0-1.8-0.8-1.7-2.5c-1.4,1.8-2.8,2.6-4.2,2.5
		c-0.6-0.1-1-0.4-1.3-0.9c-0.2-0.4-0.4-0.9-0.3-1.5c0.1-1.7,0.7-3.2,2-4.6c1.2-1.4,2.5-2.2,4-2.3c0.8,0,1.4,0.1,1.8,0.5
		c0.3-0.3,0.7-0.5,1.2-0.5s1,0.2,1.4,0.5c-0.4,0.3-0.8,1.3-1.4,3.1c-0.5,1.7-0.8,2.8-0.8,3.4c0,0.4,0.2,0.6,0.5,0.5
		c0.4-0.1,0.9-0.4,1.7-1.1s1.5-1.4,2.1-2.3l0.1-0.1C60.9,14.2,60.9,14.4,60.9,14.7z M55.4,11.8c0-0.5-0.4-0.7-1.1-0.7
		c-0.7,0.1-1.4,0.6-2.1,1.7c-0.7,1-1.2,2.2-1.4,3.4c0,0.2,0,0.4,0,0.6c0,0.7,0.2,1.1,0.7,1c0.7,0,1.5-0.9,2.5-2.6
		C54.9,13.7,55.4,12.5,55.4,11.8z"/>
	<path class="st1" d="M66,14.6c0,0.5-0.1,0.9-0.3,1.1c-0.8,1.1-1.6,2-2.5,2.7c-0.8,0.6-1.5,0.9-2.1,0.9c-1,0-1.5-0.6-1.5-1.8
		c0-0.4,0.1-1,0.2-1.6c0.5-2.9,1.4-6,2.7-9.2c0.3-0.7,0.6-1.2,1-1.4C63.9,5.1,64.6,5,65.6,5c0.1,0,0.2,0,0.2,0.1s0,0.2-0.1,0.2
		c-0.4,0.3-0.7,0.9-1.1,1.8c-1.1,2.7-2,5.8-2.7,9.3c0,0.2-0.1,0.4-0.1,0.5c0,0.4,0.1,0.6,0.4,0.6c0.2,0,0.4-0.1,0.7-0.3
		c0.7-0.5,1.7-1.5,2.9-3c0.1-0.1,0.1-0.1,0.2-0.1l0,0C66.1,14.1,66.1,14.3,66,14.6z"/>
</g>
</svg>
