<?xml version="1.0" encoding="utf-8"?>
<!-- Generator: Adobe Illustrator 24.2.1, SVG Export Plug-In . SVG Version: 6.00 Build 0)  -->
<svg version="1.1" id="Ebene_2_1_" xmlns="http://www.w3.org/2000/svg" xmlns:xlink="http://www.w3.org/1999/xlink" x="0px" y="0px"
	 viewBox="0 0 1599.9 117.9" style="enable-background:new 0 0 1599.9 117.9;" xml:space="preserve">
<style type="text/css">
	.st0{fill:#5E35B1;}
</style>
<g id="Electronic" transform="translate(0 -0.236)">
	<path id="AudioElectronic" class="st0" d="M1455.2,118.2H5.4c-1.4,0-2.8-0.6-3.8-1.6S0,114.3,0,112.8v-10.7c0-1.4,0.6-2.8,1.6-3.8
		s2.3-1.6,3.8-1.6h1589.3c2.9,0,5.3,2.4,5.4,5.4v10.7c0,2.9-2.4,5.3-5.4,5.4H1455.2z M1487.4,86c-2.9,0-5.3-2.4-5.4-5.4V69.9
		c0-2.9,2.4-5.3,5.4-5.4h107.2c2.9,0,5.3,2.4,5.4,5.4v10.7c0,2.9-2.4,5.3-5.4,5.4H1487.4z M1356.3,86c-2.9,0-5.3-2.4-5.4-5.4V69.9
		c0-2.9,2.4-5.3,5.4-5.4h107.2c2.9,0,5.3,2.4,5.4,5.4v10.7c0,2.9-2.4,5.3-5.4,5.4H1356.3z M1223.2,86c-2.9,0-5.3-2.4-5.4-5.4V69.9
		c0-2.9,2.4-5.3,5.4-5.4h107.2c2.9,0,5.3,2.4,5.4,5.4v10.7c0,2.9-2.4,5.3-5.4,5.4H1223.2z M1092.2,86c-2.9,0-5.3-2.4-5.4-5.4V69.9
		c0-2.9,2.4-5.3,5.4-5.4h107.2c2.9,0,5.3,2.4,5.4,5.4v10.7c0,2.9-2.4,5.3-5.4,5.4H1092.2z M960.1,86c-2.9,0-5.3-2.4-5.4-5.4V69.9
		c0-2.9,2.4-5.3,5.4-5.4h107.2c2.9,0,5.3,2.4,5.4,5.4v10.7c0,2.9-2.4,5.3-5.4,5.4H960.1z M829,86c-2.9,0-5.3-2.4-5.4-5.4V69.9
		c0-2.9,2.4-5.3,5.4-5.4h107.2c2.9,0,5.3,2.4,5.4,5.4v10.7c0,2.9-2.4,5.3-5.4,5.4H829z M695.9,86c-2.9,0-5.3-2.4-5.4-5.4V69.9
		c0-2.9,2.4-5.3,5.4-5.4h107.2c2.9,0,5.3,2.4,5.4,5.4v10.7c0,2.9-2.4,5.3-5.4,5.4H695.9z M564.9,86c-2.9,0-5.3-2.4-5.4-5.4V69.9
		c0-2.9,2.4-5.3,5.4-5.4h107.2c2.9,0,5.3,2.4,5.4,5.4v10.7c0,2.9-2.4,5.3-5.4,5.4H564.9z M432.8,86c-2.9,0-5.3-2.4-5.4-5.4V69.9
		c0-2.9,2.4-5.3,5.4-5.4H540c2.9,0,5.3,2.4,5.4,5.4v10.7c0,2.9-2.4,5.3-5.4,5.4H432.8z M301.7,86c-2.9,0-5.3-2.4-5.4-5.4V69.9
		c0-2.9,2.4-5.3,5.4-5.4h107.2c2.9,0,5.3,2.4,5.4,5.4v10.7c0,2.9-2.4,5.3-5.4,5.4H301.7z M168.6,86c-2.9,0-5.3-2.4-5.4-5.4V69.9
		c0-2.9,2.4-5.3,5.4-5.4h107.2c2.9,0,5.3,2.4,5.4,5.4v10.7c0,2.9-2.4,5.3-5.4,5.4H168.6z M37.5,86c-2.9,0-5.3-2.4-5.4-5.4V69.9
		c0-2.9,2.4-5.3,5.4-5.4h107.2c2.9,0,5.3,2.4,5.4,5.4v10.7c0,2.9-2.4,5.3-5.4,5.4H37.5z M1466,53.8c-0.8-0.2-1.6-0.2-2.4,0h-128.7
		c-1.4-0.6-3-0.6-4.4,0h-128.7c-0.8-0.2-1.6-0.2-2.4,0h-128.7c-1.1-0.4-2.3-0.4-3.4,0H938.6c-0.8-0.2-1.6-0.2-2.4,0H807.6
		c-1.4-0.6-3-0.6-4.4,0H674.5c-0.8-0.2-1.6-0.2-2.4,0H543.4c-1.1-0.4-2.3-0.4-3.4,0H411.3c-0.8-0.2-1.6-0.2-2.4,0H280.3
		c-0.8,0-1.5-0.2-2.2-0.5c-0.7,0.3-1.5,0.5-2.2,0.5H147.2c-0.4,0-0.8,0-1.2-0.1c-0.4,0.1-0.8,0.1-1.2,0.1H16.1
		c-1.4,0-2.8-0.6-3.8-1.6s-1.6-2.3-1.6-3.8V37.8c0-1.4,0.6-2.8,1.6-3.8s2.3-1.6,3.8-1.6h128.7c0.4,0,0.8,0,1.2,0.1
		c0.4-0.1,0.8-0.1,1.2-0.1h128.7c0.8,0,1.5,0.2,2.2,0.5c0.7-0.3,1.5-0.5,2.2-0.5H409c0.8,0.2,1.6,0.2,2.4,0H540
		c1.1,0.4,2.3,0.4,3.4,0h128.7c0.8,0.2,1.6,0.2,2.4,0h128.7c1.4,0.6,3,0.6,4.4,0h128.7c0.8,0.2,1.6,0.2,2.4,0h128.7
		c1.1,0.4,2.3,0.4,3.4,0h128.7c0.8,0.2,1.6,0.2,2.4,0h128.7c1.4,0.6,3,0.6,4.4,0h128.7c0.8,0.2,1.6,0.2,2.4,0h128.7
		c2.9,0,5.3,2.4,5.4,5.4v10.7c0,2.9-2.4,5.3-5.4,5.4H1466V53.8z M1498.1,21.7c-2.9,0-5.3-2.4-5.4-5.4V5.6c0-1.4,0.6-2.8,1.6-3.8
		s2.3-1.6,3.8-1.6h96.5c1.4,0,2.8,0.6,3.8,1.6s1.6,2.3,1.6,3.8v10.7c0,2.9-2.4,5.3-5.4,5.4L1498.1,21.7z M1367.1,21.7
		c-2.9,0-5.3-2.4-5.4-5.4V5.6c0-1.4,0.6-2.8,1.6-3.8s2.3-1.6,3.8-1.6h96.5c1.4,0,2.8,0.6,3.8,1.6s1.6,2.3,1.6,3.8v10.7
		c0,2.9-2.4,5.3-5.4,5.4L1367.1,21.7z M1234,21.7c-2.9,0-5.3-2.4-5.4-5.4V5.6c0-1.4,0.6-2.8,1.6-3.8s2.3-1.6,3.8-1.6h96.5
		c1.4,0,2.8,0.6,3.8,1.6s1.6,2.3,1.6,3.8v10.7c0,2.9-2.4,5.3-5.4,5.4L1234,21.7z M1102.9,21.7c-2.9,0-5.3-2.4-5.4-5.4V5.6
		c0-1.4,0.6-2.8,1.6-3.8s2.3-1.6,3.8-1.6h96.5c1.4,0,2.8,0.6,3.8,1.6s1.6,2.3,1.6,3.8v10.7c0,2.9-2.4,5.3-5.4,5.4L1102.9,21.7z
		 M970.8,21.7c-2.9,0-5.3-2.4-5.4-5.4V5.6c0-1.4,0.6-2.8,1.6-3.8s2.3-1.6,3.8-1.6h96.5c1.4,0,2.8,0.6,3.8,1.6s1.6,2.3,1.6,3.8v10.7
		c0,2.9-2.4,5.3-5.4,5.4L970.8,21.7z M839.7,21.7c-2.9,0-5.3-2.4-5.4-5.4V5.6c0-1.4,0.6-2.8,1.6-3.8s2.3-1.6,3.8-1.6h96.5
		c1.4,0,2.8,0.6,3.8,1.6s1.6,2.3,1.6,3.8v10.7c0,2.9-2.4,5.3-5.4,5.4L839.7,21.7z M706.6,21.7c-2.9,0-5.3-2.4-5.4-5.4V5.6
		c0-1.4,0.6-2.8,1.6-3.8s2.3-1.6,3.8-1.6h96.5c1.4,0,2.8,0.6,3.8,1.6s1.6,2.3,1.6,3.8v10.7c0,2.9-2.4,5.3-5.4,5.4L706.6,21.7z
		 M575.6,21.7c-2.9,0-5.3-2.4-5.4-5.4V5.6c0-1.4,0.6-2.8,1.6-3.8s2.3-1.6,3.8-1.6h96.5c1.4,0,2.8,0.6,3.8,1.6s1.6,2.3,1.6,3.8v10.7
		c0,2.9-2.4,5.3-5.4,5.4L575.6,21.7z M443.5,21.7c-2.9,0-5.3-2.4-5.4-5.4V5.6c0-1.4,0.6-2.8,1.6-3.8s2.3-1.6,3.8-1.6H540
		c1.4,0,2.8,0.6,3.8,1.6s1.6,2.3,1.6,3.8v10.7c0,2.9-2.4,5.3-5.4,5.4L443.5,21.7z M312.4,21.7c-2.9,0-5.3-2.4-5.4-5.4V5.6
		c0-1.4,0.6-2.8,1.6-3.8s2.3-1.6,3.8-1.6h96.5c1.4,0,2.8,0.6,3.8,1.6s1.6,2.3,1.6,3.8v10.7c0,2.9-2.4,5.3-5.4,5.4L312.4,21.7z
		 M179.3,21.7c-2.9,0-5.3-2.4-5.4-5.4V5.6c0-1.4,0.6-2.8,1.6-3.8s2.3-1.6,3.8-1.6h96.5c1.4,0,2.8,0.6,3.8,1.6s1.6,2.3,1.6,3.8v10.7
		c0,2.9-2.4,5.3-5.4,5.4L179.3,21.7z M48.3,21.7c-2.9,0-5.3-2.4-5.4-5.4V5.6c0-1.4,0.6-2.8,1.6-3.8s2.3-1.6,3.8-1.6h96.5
		c1.4,0,2.8,0.6,3.8,1.6s1.6,2.3,1.6,3.8v10.7c0,2.9-2.4,5.3-5.4,5.4L48.3,21.7z"/>
</g>
</svg>
