<?xml version="1.0" encoding="utf-8"?>
<!-- Generator: Adobe Illustrator 24.2.1, SVG Export Plug-In . SVG Version: 6.00 Build 0)  -->
<svg version="1.1" id="Ebene_1" xmlns="http://www.w3.org/2000/svg" xmlns:xlink="http://www.w3.org/1999/xlink" x="0px" y="0px"
	 viewBox="0 0 1600 171.4" style="enable-background:new 0 0 1600 171.4;" xml:space="preserve">
<style type="text/css">
	.st0{fill:#D81B60;}
</style>
<g id="Ebene_1_1_">
</g>
<g id="Ebene_2_1_">
	<path id="AudioHipHop" class="st0" d="M1192.1,160.7v-150c0-5.9,4.8-10.7,10.7-10.7s10.7,4.8,10.7,10.7v150
		c0,5.9-4.8,10.7-10.7,10.7S1192.1,166.7,1192.1,160.7z M1031,160.7v-150c0-5.9,4.8-10.7,10.7-10.7s10.7,4.8,10.7,10.7v150
		c0,5.9-4.8,10.7-10.7,10.7S1031,166.7,1031,160.7z M869.8,160.7v-150c0-5.9,4.8-10.7,10.7-10.7s10.7,4.8,10.7,10.7v150
		c0,5.9-4.8,10.7-10.7,10.7S869.8,166.7,869.8,160.7z M708.8,160.7v-150c0-5.9,4.8-10.7,10.7-10.7s10.7,4.8,10.7,10.7v150
		c0,5.9-4.8,10.7-10.7,10.7C713.5,171.4,708.8,166.7,708.8,160.7z M547.6,160.7v-150c0-5.9,4.8-10.7,10.7-10.7S569,4.8,569,10.7v150
		c0,5.9-4.8,10.7-10.7,10.7C552.5,171.4,547.6,166.7,547.6,160.7z M386.5,160.7v-150c0-5.9,4.8-10.7,10.7-10.7
		c5.9,0,10.7,4.8,10.7,10.7v150c0,5.9-4.8,10.7-10.7,10.7S386.5,166.7,386.5,160.7z M225.4,160.7v-150c0-5.9,4.9-10.7,10.7-10.7
		c5.9,0,10.7,4.8,10.7,10.7v150c0,5.9-4.8,10.7-10.7,10.7S225.4,166.7,225.4,160.7L225.4,160.7z M64.3,160.7v-150
		C64.3,4.8,69.1,0,75,0s10.7,4.8,10.7,10.7v150c0,5.9-4.8,10.7-10.7,10.7C69.1,171.4,64.3,166.7,64.3,160.7z M1224.3,133.9V37.5
		c0-5.9,4.8-10.7,10.7-10.7s10.7,4.8,10.7,10.7v96.4c0,5.9-4.8,10.7-10.7,10.7S1224.3,139.9,1224.3,133.9z M1063.1,133.9V37.5
		c0-5.9,4.8-10.7,10.7-10.7s10.7,4.8,10.7,10.7v96.4c0,5.9-4.8,10.7-10.7,10.7C1068,144.6,1063.1,139.9,1063.1,133.9z M902,133.9
		V37.5c0-5.9,4.8-10.7,10.7-10.7s10.7,4.8,10.7,10.7v96.4c0,5.9-4.8,10.7-10.7,10.7C906.8,144.6,902,139.9,902,133.9z M740.9,133.9
		V37.5c0-5.9,4.8-10.7,10.7-10.7s10.7,4.8,10.7,10.7v96.4c0,5.9-4.8,10.7-10.7,10.7C745.6,144.6,740.9,139.9,740.9,133.9z
		 M579.8,133.9V37.5c0-5.9,4.8-10.7,10.7-10.7s10.7,4.8,10.7,10.7v96.4c0,5.9-4.8,10.7-10.7,10.7
		C584.6,144.6,579.8,139.9,579.8,133.9z M418.6,133.9V37.5c0-5.9,4.8-10.7,10.7-10.7S440,31.6,440,37.5v96.4
		c0,5.9-4.8,10.7-10.7,10.7C423.5,144.6,418.6,139.9,418.6,133.9z M257.6,133.9V37.5c0-5.9,4.8-10.7,10.7-10.7
		c5.9,0,10.7,4.8,10.7,10.7v96.4c0,5.9-4.8,10.7-10.7,10.7C262.3,144.6,257.6,139.9,257.6,133.9z M96.4,133.9V37.5
		c0-5.9,4.8-10.7,10.7-10.7s10.7,4.8,10.7,10.7v96.4c0,5.9-4.8,10.7-10.7,10.7C101.3,144.6,96.4,139.9,96.4,133.9z M1127.9,128.6
		V42.9c0-5.9,4.8-10.7,10.7-10.7c5.9,0,10.7,4.8,10.7,10.7v85.7c0,5.9-4.8,10.7-10.7,10.7C1132.6,139.3,1127.9,134.5,1127.9,128.6
		L1127.9,128.6z M966.7,128.6V42.9c0-5.9,4.8-10.7,10.7-10.7s10.7,4.8,10.7,10.7v85.7c0,5.9-4.8,10.7-10.7,10.7
		S966.7,134.5,966.7,128.6L966.7,128.6z M805.6,128.6V42.9c0-5.9,4.8-10.7,10.7-10.7S827,37,827,42.9v85.7c0,5.9-4.8,10.7-10.7,10.7
		S805.6,134.5,805.6,128.6L805.6,128.6z M644.5,128.6V42.9c0-5.9,4.8-10.7,10.7-10.7s10.7,4.8,10.7,10.7v85.7
		c0,5.9-4.8,10.7-10.7,10.7S644.5,134.5,644.5,128.6L644.5,128.6z M483.4,128.6V42.9c0-5.9,4.8-10.7,10.7-10.7
		c5.9,0,10.7,4.8,10.7,10.7v85.7c0,5.9-4.8,10.7-10.7,10.7C488.2,139.3,483.4,134.5,483.4,128.6L483.4,128.6z M322.2,128.6V42.9
		c0-5.9,4.8-10.7,10.7-10.7c5.9,0,10.7,4.8,10.7,10.7v85.7c0,5.9-4.8,10.7-10.7,10.7S322.2,134.5,322.2,128.6L322.2,128.6z
		 M161.2,128.6V42.9c0-5.9,4.8-10.7,10.7-10.7s10.7,4.8,10.7,10.7v85.7c0,5.9-4.8,10.7-10.7,10.7S161.2,134.5,161.2,128.6
		L161.2,128.6z M0,128.6V42.9C0,37,4.8,32.2,10.7,32.2S21.4,37,21.4,42.9v85.7c0,5.9-4.8,10.7-10.7,10.7S0,134.5,0,128.6L0,128.6z
		 M1256.4,107.1V64.3c0-5.9,4.8-10.7,10.7-10.7s10.7,4.8,10.7,10.7v42.9c0,5.9-4.8,10.7-10.7,10.7
		C1261.2,117.8,1256.4,113.1,1256.4,107.1L1256.4,107.1z M1160,107.1V64.3c0-5.9,4.8-10.7,10.7-10.7s10.7,4.8,10.7,10.7v42.9
		c0,5.9-4.8,10.7-10.7,10.7S1160,113.1,1160,107.1L1160,107.1z M1095.3,107.1V64.3c0-5.9,4.8-10.7,10.7-10.7s10.7,4.8,10.7,10.7
		v42.9c0,5.9-4.8,10.7-10.7,10.7C1100.1,117.8,1095.3,113.1,1095.3,107.1L1095.3,107.1z M998.9,107.1V64.3c0-5.9,4.8-10.7,10.7-10.7
		s10.7,4.8,10.7,10.7v42.9c0,5.9-4.8,10.7-10.7,10.7C1003.7,117.8,998.9,113.1,998.9,107.1L998.9,107.1z M934.1,107.1V64.3
		c0-5.9,4.8-10.7,10.7-10.7s10.7,4.8,10.7,10.7v42.9c0,5.9-4.8,10.7-10.7,10.7C939,117.8,934.1,113.1,934.1,107.1L934.1,107.1z
		 M837.7,107.1V64.3c0-5.9,4.8-10.7,10.7-10.7s10.7,4.8,10.7,10.7v42.9c0,5.9-4.8,10.7-10.7,10.7
		C842.5,117.8,837.7,113.1,837.7,107.1L837.7,107.1z M773.1,107.1V64.3c0-5.9,4.8-10.7,10.7-10.7s10.7,4.8,10.7,10.7v42.9
		c0,5.9-4.8,10.7-10.7,10.7C777.8,117.9,773.1,113.1,773.1,107.1L773.1,107.1z M676.6,107.1V64.3c0-5.9,4.8-10.7,10.7-10.7
		S698,58.4,698,64.3v42.9c0,5.9-4.8,10.7-10.7,10.7C681.4,117.8,676.6,113.1,676.6,107.1L676.6,107.1z M611.9,107.1V64.3
		c0-5.9,4.8-10.7,10.7-10.7s10.7,4.8,10.7,10.7v42.9c0,5.9-4.8,10.7-10.7,10.7C616.7,117.8,611.9,113.1,611.9,107.1L611.9,107.1z
		 M515.5,107.1V64.3c0-5.9,4.8-10.7,10.7-10.7s10.7,4.8,10.7,10.7v42.9c0,5.9-4.8,10.7-10.7,10.7
		C520.3,117.8,515.5,113.1,515.5,107.1L515.5,107.1z M450.8,107.1V64.3c0-5.9,4.8-10.7,10.7-10.7c5.9,0,10.7,4.8,10.7,10.7v42.9
		c0,5.9-4.8,10.7-10.7,10.7C455.6,117.8,450.8,113.1,450.8,107.1L450.8,107.1z M354.3,107.1V64.3c0-5.9,4.8-10.7,10.7-10.7
		c5.9,0,10.7,4.8,10.7,10.7v42.9c0,5.9-4.8,10.7-10.7,10.7C359.2,117.8,354.3,113.1,354.3,107.1L354.3,107.1z M289.7,107.1V64.3
		c0-5.9,4.8-10.7,10.7-10.7c5.9,0,10.7,4.8,10.7,10.7v42.9c0,5.9-4.8,10.7-10.7,10.7C294.4,117.8,289.7,113.1,289.7,107.1
		L289.7,107.1z M193.3,107.1V64.3c0-5.9,4.8-10.7,10.7-10.7s10.7,4.8,10.7,10.7v42.9c0,5.9-4.8,10.7-10.7,10.7
		C198,117.8,193.3,113.1,193.3,107.1L193.3,107.1z M128.6,107.1V64.3c0-5.9,4.8-10.7,10.7-10.7S150,58.4,150,64.3v42.9
		c0,5.9-4.8,10.7-10.7,10.7C133.4,117.8,128.6,113.1,128.6,107.1L128.6,107.1z M32.1,107.1V64.3c0-5.9,4.8-10.7,10.7-10.7
		s10.7,4.8,10.7,10.7v42.9c0,5.9-4.8,10.7-10.7,10.7S32.1,113.1,32.1,107.1L32.1,107.1L32.1,107.1z"/>
	<g id="Ebene_2_2_">
		<path id="AudioHipHop_1_" class="st0" d="M1514.3,160.7v-150c0-5.9,4.9-10.7,10.7-10.7c5.9,0,10.7,4.8,10.7,10.7v150
			c0,5.9-4.8,10.7-10.7,10.7C1519.2,171.4,1514.3,166.7,1514.3,160.7L1514.3,160.7z M1353.2,160.7v-150c0-5.9,4.8-10.7,10.7-10.7
			c5.9,0,10.7,4.8,10.7,10.7v150c0,5.9-4.8,10.7-10.7,10.7S1353.2,166.7,1353.2,160.7z M1546.5,133.9V37.5c0-5.9,4.8-10.7,10.7-10.7
			s10.7,4.8,10.7,10.7v96.4c0,5.9-4.8,10.7-10.7,10.7S1546.5,139.9,1546.5,133.9z M1385.3,133.9V37.5c0-5.9,4.8-10.7,10.7-10.7
			s10.7,4.8,10.7,10.7v96.4c0,5.9-4.8,10.7-10.7,10.7C1390.2,144.6,1385.3,139.9,1385.3,133.9z M1450.1,128.6V42.9
			c0-5.9,4.8-10.7,10.7-10.7s10.7,4.8,10.7,10.7v85.7c0,5.9-4.8,10.7-10.7,10.7S1450.1,134.5,1450.1,128.6L1450.1,128.6z
			 M1288.9,128.6V42.9c0-5.9,4.8-10.7,10.7-10.7c5.9,0,10.7,4.8,10.7,10.7v85.7c0,5.9-4.8,10.7-10.7,10.7
			C1293.7,139.3,1288.9,134.5,1288.9,128.6L1288.9,128.6z M1578.6,107.1V64.3c0-5.9,4.8-10.7,10.7-10.7c5.9,0,10.7,4.8,10.7,10.7
			v42.9c0,5.9-4.8,10.7-10.7,10.7C1583.4,117.8,1578.6,113.1,1578.6,107.1L1578.6,107.1z M1482.2,107.1V64.3
			c0-5.9,4.8-10.7,10.7-10.7c5.9,0,10.7,4.8,10.7,10.7v42.9c0,5.9-4.8,10.7-10.7,10.7C1487,117.8,1482.2,113.1,1482.2,107.1
			L1482.2,107.1z M1417.5,107.1V64.3c0-5.9,4.8-10.7,10.7-10.7s10.7,4.8,10.7,10.7v42.9c0,5.9-4.8,10.7-10.7,10.7
			C1422.3,117.8,1417.5,113.1,1417.5,107.1L1417.5,107.1z M1321,107.1V64.3c0-5.9,4.8-10.7,10.7-10.7c5.9,0,10.7,4.8,10.7,10.7v42.9
			c0,5.9-4.8,10.7-10.7,10.7S1321,113.1,1321,107.1L1321,107.1L1321,107.1z"/>
	</g>
</g>
</svg>
