<?xml version="1.0" encoding="utf-8"?>
<!-- Generator: Adobe Illustrator 24.2.1, SVG Export Plug-In . SVG Version: 6.00 Build 0)  -->
<svg version="1.1" id="Ebene_2_1_" xmlns="http://www.w3.org/2000/svg" xmlns:xlink="http://www.w3.org/1999/xlink" x="0px" y="0px"
	 viewBox="0 0 1600 121.3" style="enable-background:new 0 0 1600 121.3;" xml:space="preserve">
<style type="text/css">
	.st0{fill:#00D79F;}
</style>
<g id="Indie_1_" transform="translate(-0.002 -0.015)">
	<path id="AudioIndie_1_" class="st0" d="M1554.6,121.3c-4.4,0-8.7-1.2-12.5-3.6c-3.1-2-6-4.3-8.7-6.9l-0.1-0.1
		c-0.4-0.4-0.8-0.7-1.2-1.1c-5.1-4.7-8.3-7.3-14-7.3c-2.6,0-5.1,0.6-7.3,2c-2.4,1.6-4.6,3.3-6.7,5.3c-0.4,0.4-0.8,0.8-1.3,1.2
		l-0.1,0.1c-2.6,2.6-5.5,4.9-8.6,6.9c-7.6,4.7-17.3,4.7-24.9,0c-3.1-2-6-4.3-8.7-6.9c-0.4-0.4-0.8-0.8-1.2-1.1
		c-1.9-1.9-4-3.6-6.3-5.1c-2-1.3-4.3-2-6.7-2.2c-5.2,0.3-8.4,3-13.2,7.3c-0.4,0.4-0.9,0.8-1.3,1.2l0,0c-2.6,2.6-5.5,4.9-8.6,6.9
		c-7.6,4.7-17.3,4.7-24.9,0c-3.1-2-6-4.3-8.7-6.9l0,0c-0.4-0.4-0.8-0.8-1.2-1.1c-5.1-4.7-8.3-7.3-14-7.3c-2.6,0-5.1,0.6-7.3,2
		c-2.4,1.6-4.6,3.3-6.7,5.3c-0.4,0.4-0.9,0.8-1.3,1.2l0,0c-2.6,2.6-5.5,4.9-8.6,6.9c-7.6,4.7-17.3,4.7-24.9,0c-3.1-2-6-4.3-8.7-6.9
		l-0.1-0.1c-0.4-0.4-0.8-0.7-1.1-1.1c-1.9-1.9-4-3.6-6.3-5.1c-2-1.3-4.3-2-6.7-2.2c-5.2,0.3-8.4,3-13.2,7.3
		c-0.4,0.4-0.9,0.8-1.3,1.2l0,0c-2.6,2.6-5.5,4.9-8.6,6.9c-7.6,4.7-17.3,4.7-24.9,0c-3.1-2-6-4.3-8.7-6.9c-0.4-0.4-0.8-0.8-1.2-1.1
		c-5.1-4.7-8.3-7.3-14-7.3c-2.6,0-5.1,0.6-7.3,2c-2.4,1.6-4.6,3.3-6.7,5.3c-0.4,0.4-0.8,0.8-1.3,1.2l-0.1,0.1
		c-2.6,2.6-5.5,4.9-8.6,6.9c-7.6,4.7-17.3,4.7-24.9,0c-3.1-2-6-4.3-8.7-6.9c-0.4-0.4-0.8-0.8-1.2-1.1c-1.9-1.9-4-3.6-6.3-5.1
		c-2-1.3-4.3-2-6.7-2.2c-5.2,0.3-8.4,3-13.2,7.3c-0.4,0.4-0.9,0.8-1.3,1.2c-2.6,2.6-5.5,4.9-8.6,6.9c-7.6,4.7-17.3,4.7-24.9,0
		c-3.1-2-6-4.3-8.7-6.9c-0.4-0.4-0.8-0.8-1.2-1.1c-5.1-4.7-8.3-7.3-14-7.3c-2.6,0-5.1,0.6-7.3,2c-2.4,1.6-4.6,3.3-6.7,5.3
		c-0.4,0.4-0.9,0.8-1.3,1.2l0,0c-2.6,2.6-5.5,4.9-8.6,6.9c-7.6,4.7-17.3,4.7-24.9,0c-3.1-2-6-4.3-8.7-6.9c-0.4-0.4-0.8-0.8-1.2-1.1
		c-1.9-1.9-4-3.6-6.3-5.1c-2-1.3-4.3-2-6.7-2.2c-5.2,0.3-8.4,3-13.2,7.3c-0.4,0.4-0.9,0.8-1.3,1.2l0,0c-2.6,2.6-5.5,4.9-8.6,6.9
		c-7.6,4.7-17.3,4.7-24.9,0c-3.1-2-6-4.3-8.7-6.9c-0.4-0.4-0.8-0.8-1.2-1.1c-5.1-4.7-8.3-7.3-14-7.3c-2.6,0-5.1,0.6-7.3,2
		c-2.4,1.6-4.6,3.3-6.7,5.3c-0.4,0.4-0.9,0.8-1.3,1.2l0,0c-2.6,2.6-5.5,4.9-8.6,6.9c-7.6,4.7-17.3,4.7-24.9,0c-3.1-2-6-4.3-8.7-6.9
		l-0.1-0.1c-0.4-0.4-0.8-0.7-1.2-1.1c-1.9-1.9-4-3.6-6.3-5.1c-2-1.3-4.3-2-6.7-2.2c-5.2,0.3-8.4,3-13.2,7.3
		c-0.4,0.4-0.9,0.8-1.3,1.2l0,0c-2.6,2.6-5.5,4.9-8.6,6.9c-7.6,4.7-17.3,4.7-24.9,0c-3.1-2-6-4.3-8.7-6.9l-0.1-0.1
		c-0.4-0.4-0.8-0.7-1.2-1.1c-5.1-4.7-8.3-7.3-14-7.3c-2.6,0-5.1,0.6-7.3,2c-2.4,1.6-4.6,3.3-6.7,5.3c-0.4,0.4-0.9,0.8-1.3,1.2l0,0
		c-2.6,2.6-5.5,4.9-8.6,6.9c-7.6,4.7-17.3,4.7-24.9,0c-3.1-2-6-4.3-8.7-6.9c-0.4-0.4-0.8-0.8-1.2-1.1c-1.9-1.9-4-3.6-6.3-5.1
		c-2-1.3-4.3-2-6.7-2.2c-5.2,0.3-8.4,3-13.2,7.3c-0.4,0.4-0.9,0.8-1.3,1.2c-2.6,2.6-5.5,4.9-8.6,6.9c-7.6,4.7-17.3,4.7-24.9,0
		c-3.1-2-6-4.3-8.7-6.9c-0.4-0.4-0.8-0.8-1.2-1.1c-5.1-4.7-8.3-7.3-14-7.3c-2.6,0-5.1,0.6-7.3,2c-2.4,1.6-4.6,3.3-6.7,5.3
		c-0.4,0.4-0.9,0.8-1.3,1.2l0,0c-2.6,2.6-5.5,4.9-8.6,6.9c-7.6,4.7-17.3,4.7-24.9,0c-3.1-2-6-4.3-8.7-6.9l0,0
		c-0.4-0.4-0.8-0.8-1.2-1.1c-1.9-1.9-4-3.6-6.3-5.1c-2-1.3-4.3-2-6.7-2.2c-5.2,0.3-8.4,3-13.2,7.3c-0.4,0.4-0.9,0.8-1.3,1.2l0,0
		c-2.6,2.6-5.5,4.9-8.6,6.9c-7.6,4.7-17.3,4.7-24.9,0c-3.1-2-6-4.3-8.7-6.9l0,0c-0.4-0.4-0.8-0.8-1.2-1.1c-5.1-4.7-8.3-7.3-14-7.3
		c-2.6,0-5.1,0.6-7.3,2c-2.4,1.6-4.6,3.3-6.7,5.3c-0.4,0.4-0.8,0.8-1.3,1.2l-0.1,0.1c-2.6,2.6-5.5,4.9-8.6,6.9
		c-7.6,4.7-17.3,4.7-24.9,0c-3.1-2-6-4.3-8.7-6.9c-0.4-0.4-0.8-0.8-1.2-1.1c-1.9-1.9-4-3.6-6.3-5.1c-2-1.3-4.3-2-6.7-2.2
		c-5.2,0.3-8.4,3-13.2,7.3c-0.4,0.4-0.8,0.8-1.3,1.2l-0.1,0.1c-2.6,2.6-5.5,4.9-8.6,6.9c-7.6,4.7-17.3,4.7-24.9,0
		c-3.1-2-6-4.3-8.7-6.9c-0.4-0.4-0.8-0.8-1.2-1.1c-5.1-4.7-8.3-7.3-14-7.3c-2.6,0-5.1,0.6-7.3,2c-2.4,1.6-4.6,3.3-6.7,5.3
		c-0.4,0.4-0.9,0.8-1.3,1.2l0,0c-2.6,2.6-5.5,4.9-8.6,6.9c-7.6,4.7-17.3,4.7-24.9,0c-3.1-2-6-4.3-8.7-6.9l-0.1-0.1
		c-0.4-0.4-0.8-0.7-1.2-1.1c-1.9-1.9-4-3.6-6.3-5.1c-2-1.3-4.3-2-6.7-2.2c-5.2,0.3-8.4,3-13.2,7.3c-0.4,0.4-0.9,0.8-1.3,1.2l0,0
		c-2.6,2.6-5.5,4.9-8.6,6.9c-7.6,4.7-17.3,4.7-24.9,0c-3.1-2-6-4.3-8.7-6.9c-0.4-0.4-0.8-0.8-1.2-1.1c-5.1-4.7-8.3-7.3-14-7.3
		c-2.6,0-5.1,0.6-7.3,2c-2.4,1.6-4.6,3.3-6.7,5.3c-0.4,0.4-0.9,0.8-1.3,1.2c-2.6,2.6-5.5,4.9-8.6,6.9c-7.6,4.7-17.3,4.7-24.9,0
		c-3.1-2-6-4.3-8.7-6.9c-0.4-0.4-0.8-0.8-1.2-1.1c-1.9-1.9-4-3.6-6.3-5.1c-2-1.3-4.3-2-6.7-2.2c0.3,0,0.7,0,1,0
		c4.8-0.2,8.6-4.1,8.8-8.8c0-1.8-0.7-3.6-1.8-5.1s-2.6-2.6-4.3-3.2c4.4,0.7,8.6,2.3,12.4,4.7c3.1,2,6,4.3,8.7,6.8
		c2,2,4.2,3.8,6.4,5.4c1.2,1,2.7,1.6,4.3,1.7c2.6,0,5.2-2.2,10.6-7.1c3.1-3,6.6-5.6,10.4-7.8c2.2-1.2,4.6-2.2,7-2.9
		c2.7-0.8,5.5-1.2,8.3-1.2c5.4,0,10.7,1.4,15.3,4.1c3.8,2.2,7.3,4.8,10.5,7.8c2,2,4.2,3.8,6.4,5.4c1.2,1,2.7,1.6,4.3,1.7
		c2.6,0,5.2-2.2,10.6-7.1c2.6-2.5,5.5-4.8,8.6-6.7c3.7-2.4,7.8-4,12.2-4.7c0.8-0.3,1.6-0.4,2.5-0.4c0.1,0,0.2,0,0.3,0
		c0.4,0,0.7,0,1.1,0s0.7,0,1.1,0c0.1,0,0.2,0,0.3,0c0.7,0,1.5,0.1,2.2,0.4c4.4,0.7,8.6,2.3,12.4,4.7c3.1,2,6,4.3,8.7,6.8
		c2,2,4.2,3.8,6.4,5.4c1.2,1,2.7,1.6,4.3,1.7c2.6,0,5.2-2.2,10.5-7.1c3.1-3,6.6-5.6,10.4-7.8c2.2-1.2,4.6-2.2,7-2.9
		c2.7-0.8,5.5-1.2,8.3-1.2c5.4,0,10.7,1.4,15.3,4.1c3.8,2.2,7.3,4.8,10.5,7.8c2,2,4.2,3.8,6.4,5.4c1.2,1,2.7,1.6,4.3,1.7
		c2.6,0,5.2-2.2,10.5-7.1c2.6-2.5,5.5-4.8,8.6-6.7c3.7-2.4,7.8-4,12.2-4.7c0.8-0.3,1.6-0.4,2.5-0.4c0.1,0,0.2,0,0.3,0
		c0.4,0,0.7,0,1.1,0s0.7,0,1.1,0c0.1,0,0.2,0,0.3,0c0.7,0,1.5,0.1,2.2,0.4c4.4,0.7,8.6,2.3,12.4,4.7c3.1,2,6,4.3,8.7,6.8
		c2,2,4.2,3.8,6.4,5.4c1.2,1,2.7,1.6,4.3,1.7c2.6,0,5.2-2.2,10.5-7.1c3.1-3,6.6-5.6,10.4-7.8c2.2-1.2,4.6-2.2,7-2.9
		c2.7-0.8,5.5-1.2,8.3-1.2c5.4,0,10.7,1.4,15.3,4.1c3.8,2.2,7.3,4.8,10.5,7.8c2,2,4.2,3.8,6.4,5.4c1.2,1,2.7,1.6,4.3,1.7
		c2.6,0,5.2-2.2,10.5-7.1c2.6-2.5,5.5-4.8,8.6-6.7c3.7-2.4,7.8-4,12.2-4.7c0.8-0.3,1.6-0.4,2.5-0.4c0.1,0,0.2,0,0.3,0
		c0.4,0,0.7,0,1.1,0c0.4,0,0.7,0,1.1,0c0.1,0,0.2,0,0.3,0c0.7,0,1.5,0.1,2.2,0.4c4.4,0.7,8.6,2.3,12.4,4.7c3.1,2,6,4.3,8.7,6.8
		c2,2,4.2,3.8,6.4,5.4c1.2,1,2.7,1.6,4.3,1.7c2.6,0,5.2-2.2,10.5-7.1c3.1-3,6.6-5.6,10.4-7.8c2.2-1.2,4.6-2.2,7-2.9
		c2.7-0.8,5.5-1.2,8.3-1.2c5.4,0,10.7,1.4,15.3,4.1c3.8,2.2,7.3,4.8,10.5,7.8c2,2,4.2,3.8,6.4,5.4c1.2,1,2.7,1.6,4.3,1.7
		c2.6,0,5.2-2.2,10.5-7.1c2.6-2.5,5.5-4.8,8.6-6.7c3.7-2.4,7.8-4,12.2-4.7c0.8-0.3,1.6-0.4,2.5-0.4c0.1,0,0.2,0,0.3,0
		c0.4,0,0.7,0,1.1,0c0.4,0,0.7,0,1.1,0c0.1,0,0.2,0,0.3,0c0.7,0,1.5,0.1,2.2,0.4c4.4,0.7,8.6,2.3,12.4,4.7c3.1,2,6,4.3,8.7,6.8
		c2,2,4.2,3.8,6.4,5.4c1.2,1,2.7,1.6,4.3,1.7c2.6,0,5.2-2.2,10.6-7.1c3.1-3,6.6-5.6,10.4-7.8c2.2-1.2,4.6-2.2,7-2.9
		c2.7-0.8,5.5-1.2,8.3-1.2c5.4,0,10.7,1.4,15.3,4.1c3.8,2.2,7.3,4.8,10.5,7.8c2,2,4.2,3.8,6.4,5.4c1.2,1,2.7,1.6,4.3,1.7
		c2.6,0,5.2-2.2,10.6-7.1c2.6-2.5,5.5-4.8,8.6-6.7c3.7-2.4,7.8-4,12.2-4.7c0.8-0.3,1.6-0.4,2.5-0.4c0.1,0,0.2,0,0.3,0
		c0.4,0,0.7,0,1.1,0c0.4,0,0.7,0,1.1,0c0.1,0,0.2,0,0.3,0c0.7,0,1.5,0.1,2.2,0.4c4.4,0.7,8.6,2.3,12.4,4.7c3.1,2,6,4.3,8.7,6.8
		c2,2,4.2,3.8,6.4,5.4c1.2,1,2.7,1.6,4.3,1.7c2.6,0,5.2-2.2,10.6-7.1c3.1-3,6.6-5.6,10.4-7.8c2.2-1.2,4.6-2.2,7-2.9
		c2.7-0.8,5.5-1.2,8.3-1.2c5.4,0,10.7,1.4,15.3,4.1c3.8,2.2,7.3,4.8,10.5,7.8c2,2,4.2,3.8,6.4,5.4c1.2,1,2.7,1.6,4.3,1.7
		c2.6,0,5.2-2.2,10.6-7.1c2.6-2.5,5.5-4.8,8.6-6.7c3.7-2.4,7.8-4,12.2-4.7c0.8-0.3,1.6-0.4,2.5-0.4c0.1,0,0.2,0,0.3,0
		c0.4,0,0.7,0,1.1,0c0.4,0,0.7,0,1.1,0c0.1,0,0.2,0,0.3,0c0.7,0,1.5,0.1,2.2,0.4c4.4,0.7,8.6,2.3,12.4,4.7c3.1,2,6,4.3,8.7,6.8
		c2,2,4.2,3.8,6.4,5.4c1.2,1,2.7,1.6,4.3,1.7c2.6,0,5.2-2.2,10.5-7.1c3.1-3,6.6-5.6,10.4-7.8c2.2-1.2,4.6-2.2,7-2.9
		c8-2.2,16.5-1.2,23.7,2.9c3.8,2.2,7.3,4.8,10.5,7.8c2,2,4.2,3.8,6.4,5.4c1.2,1,2.7,1.6,4.3,1.7c2.6,0,5.2-2.2,10.5-7.1
		c2.6-2.5,5.5-4.8,8.6-6.7c3.7-2.4,7.8-4,12.2-4.7c0.8-0.3,1.6-0.4,2.5-0.4c0.1,0,0.2,0,0.3,0c0.4,0,0.7,0,1.1,0s0.7,0,1.1,0
		c0.1,0,0.2,0,0.3,0c0.7,0,1.5,0.1,2.2,0.4c4.4,0.7,8.6,2.3,12.4,4.7c3.1,2,6,4.3,8.7,6.8c2,2,4.2,3.8,6.4,5.4
		c1.2,1,2.7,1.6,4.3,1.7c2.6,0,5.2-2.2,10.5-7.1c3.1-3,6.6-5.6,10.4-7.8c2.2-1.2,4.6-2.2,7-2.9c2.7-0.8,5.5-1.2,8.3-1.2
		c5.4,0,10.7,1.4,15.3,4.1c3.8,2.2,7.3,4.8,10.5,7.8c2,2,4.2,3.8,6.4,5.4c1.2,1,2.7,1.6,4.3,1.7c2.6,0,5.2-2.2,10.6-7.1
		c2.6-2.5,5.5-4.8,8.6-6.7c3.7-2.4,7.8-4,12.2-4.7c0.8-0.3,1.6-0.4,2.5-0.4c0.1,0,0.2,0,0.3,0c0.4,0,0.7,0,1.1,0s0.7,0,1.1,0
		c0.1,0,0.2,0,0.3,0c0.7,0,1.5,0.1,2.2,0.4c4.4,0.7,8.6,2.3,12.4,4.7c3.1,2,6,4.3,8.7,6.8c2,2,4.2,3.8,6.4,5.4
		c1.2,1,2.7,1.6,4.3,1.7c2.6,0,5.2-2.2,10.5-7.1c3.1-3,6.6-5.6,10.4-7.8c2.2-1.2,4.6-2.2,7-2.9c2.7-0.8,5.5-1.2,8.3-1.2
		c5.4,0,10.7,1.4,15.3,4.1c3.8,2.2,7.3,4.8,10.5,7.8c2,2,4.2,3.8,6.4,5.4c1.2,1,2.7,1.6,4.3,1.7c2.6,0,5.2-2.2,10.5-7.1
		c2.6-2.5,5.5-4.8,8.6-6.7c3.7-2.4,7.8-4,12.2-4.7c0.8-0.3,1.6-0.4,2.5-0.4c0.1,0,0.2,0,0.3,0c0.4,0,0.7,0,1.1,0s0.7,0,1.1,0
		c0.1,0,0.2,0,0.3,0c0.7,0,1.5,0.1,2.2,0.4c4.4,0.7,8.6,2.3,12.4,4.7c3.1,2,6,4.3,8.7,6.8c2,2,4.2,3.8,6.4,5.4
		c1.2,1,2.7,1.6,4.3,1.7c2.6,0,5.2-2.2,10.6-7.1c3.1-3,6.6-5.6,10.4-7.8c2.2-1.2,4.6-2.2,7-2.9c2.7-0.8,5.5-1.2,8.3-1.2
		c5.4,0,10.7,1.4,15.3,4.1c3.8,2.2,7.3,4.8,10.5,7.8c2,2,4.2,3.8,6.4,5.4c1.2,1,2.7,1.6,4.3,1.7c2.6,0,5.2-2.2,10.5-7.1
		c3.1-3,6.6-5.6,10.4-7.8c2.2-1.2,4.6-2.2,7-2.9c2.7-0.8,5.5-1.2,8.3-1.2c0.1,0,0.2,0,0.3,0c2.2,0.1,4.3,1,5.7,2.7
		c1.6,1.6,2.5,3.7,2.6,6c-0.2,4.8-4.1,8.6-8.8,8.8c-2.6,0-5.2,0.7-7.4,2c-2.4,1.5-4.7,3.3-6.8,5.3c-0.4,0.4-0.9,0.8-1.3,1.2
		c-2.6,2.6-5.5,4.9-8.6,6.9C1563.2,120.1,1559,121.3,1554.6,121.3z M118.1,121.3c-4.4,0-8.7-1.2-12.5-3.6c-3.1-2-6-4.3-8.7-6.9l0,0
		c-0.4-0.4-0.8-0.8-1.2-1.1c-5.1-4.7-8.3-7.3-14-7.3c-2.6,0-5.1,0.6-7.3,2c-2.4,1.6-4.6,3.3-6.7,5.3c-0.4,0.4-0.9,0.8-1.3,1.2l0,0
		c-2.6,2.6-5.5,4.9-8.6,6.9c-7.6,4.7-17.3,4.7-24.9,0c-3.1-2-6-4.3-8.7-6.9c-0.4-0.4-0.8-0.8-1.2-1.1c-5.1-4.7-8.3-7.3-14-7.3
		c-2.3-0.1-4.5-1-6.1-2.6c-1.7-1.6-2.7-3.9-2.7-6.2c0-2.3,1-4.4,2.6-6C4.3,86,6.5,85,8.7,85c0.1,0,0.2,0,0.3,0
		c2.8,0,5.6,0.4,8.4,1.2c2.5,0.7,4.8,1.7,7,2.9c3.8,2.2,7.3,4.8,10.4,7.8c2,2,4.2,3.8,6.4,5.4c1.2,1,2.7,1.6,4.3,1.7
		c2.6,0,5.2-2.2,10.5-7.1c3.1-3,6.6-5.6,10.4-7.8c2.2-1.2,4.6-2.2,7-2.9c2.7-0.8,5.5-1.2,8.3-1.2c5.4,0,10.7,1.4,15.3,4.1
		c3.8,2.2,7.3,4.8,10.5,7.8c2,2,4.2,3.8,6.4,5.4c1.2,1,2.7,1.6,4.3,1.7c2.6,0,5.2-2.2,10.5-7.1c2.6-2.5,5.5-4.8,8.6-6.7
		c3.7-2.4,7.8-4,12.2-4.7c-1.7,0.6-3.2,1.7-4.2,3.1c-1.1,1.5-1.7,3.2-1.7,5.1c0.2,4.8,4,8.7,8.8,8.8c0.3,0,0.7,0,1,0
		c-5.2,0.3-8.4,3-13.2,7.3c-0.4,0.4-0.9,0.8-1.3,1.2c-2.6,2.6-5.5,4.9-8.6,6.9C126.8,120.1,122.5,121.3,118.1,121.3z M149.8,85.4
		L149.8,85.4c0.8-0.3,1.6-0.4,2.5-0.4c0.1,0,0.2,0,0.3,0c0.4,0,0.7,0,1.1,0C152.5,85.1,151.1,85.2,149.8,85.4z M157.4,85.3
		c-1.2-0.2-2.4-0.3-3.6-0.3c0.4,0,0.8,0,1.1,0c0.1,0,0.2,0,0.3,0C155.9,85,156.7,85.1,157.4,85.3L157.4,85.3z M1556.5,78.7h-1.9
		c-3.7,0-7.3-0.9-10.5-2.5c-2.8-1.5-5.4-3.3-7.8-5.4l0,0c-1.5-1.5-2.8-2.8-4.1-3.8c-2-2-4.3-3.8-6.7-5.3c-2.2-1.3-4.7-2-7.3-2
		c-0.4,0-0.8,0-1.2,0.1c-0.3,0.1-0.6,0.1-0.9,0.1c-0.3,0.1-0.6,0.2-1,0.2c-0.3,0-0.6,0.1-1,0.2c-0.3,0.1-0.6,0.2-0.8,0.3l0,0
		c-0.3,0.1-0.5,0.2-0.9,0.3c-2.7,1-5.2,3.1-8.4,6c-0.4,0.4-0.8,0.8-1.3,1.2l-0.1,0.1c-2.4,2.4-5.1,4.6-7.9,6.5
		c-3.3,2.2-7.2,3.5-11.1,3.9h-1.9c-4.4,0-8.7-1.2-12.5-3.5c-3.1-2-6-4.3-8.7-6.9l-0.1-0.1c-0.4-0.4-0.8-0.7-1.2-1.1
		c-4.3-3.9-7.1-6.3-11.1-7.1c-0.2,0-0.4,0-0.6,0c-0.4,0-0.8,0-1.2,0.1c-0.6,0-1.3,0.1-1.9,0.3c-0.3,0-0.7,0.1-1,0.2
		c-0.3,0.1-0.6,0.2-0.9,0.3s-0.5,0.2-0.9,0.3c-2.7,1-5.2,3.1-8.4,6c-0.4,0.4-0.9,0.8-1.4,1.3c-2.4,2.4-5.1,4.6-7.9,6.5
		c-3.3,2.2-7.1,3.5-11.1,3.9h-1.9c-3.7,0-7.3-0.9-10.5-2.5c-2.8-1.5-5.4-3.3-7.8-5.4c-1.5-1.5-2.8-2.8-4.1-3.9c-2-2-4.3-3.8-6.7-5.3
		c-2.2-1.3-4.7-2-7.3-2c-0.4,0-0.8,0-1.2,0.1c-0.3,0.1-0.6,0.1-0.9,0.1c-0.3,0.1-0.6,0.2-1,0.2c-0.3,0-0.6,0.1-1,0.2
		c-0.3,0.1-0.6,0.2-0.9,0.3s-0.5,0.2-0.9,0.3c-2.7,1-5.2,3.1-8.4,6c-0.4,0.4-0.9,0.8-1.3,1.2l0,0c-2.4,2.4-5.1,4.6-7.9,6.5
		c-3.3,2.2-7.2,3.5-11.1,3.9h-1.9c-4.4,0-8.7-1.2-12.5-3.5c-3.1-2-6-4.3-8.7-6.9c-0.4-0.4-0.8-0.8-1.2-1.2
		c-4.3-3.9-7.1-6.3-11.1-7.1c-0.2,0-0.4,0-0.6,0c-0.4,0-0.8,0-1.2,0.1c-0.6,0-1.3,0.1-1.9,0.3l0,0c-0.3,0-0.7,0.1-1,0.2
		c-0.3,0.1-0.6,0.2-0.9,0.3l0,0c-0.3,0.1-0.5,0.2-0.8,0.3c-2.7,1-5.2,3.1-8.4,6c-0.4,0.4-0.9,0.8-1.3,1.2l-0.1,0.1
		c-2.4,2.4-5.1,4.6-7.9,6.5c-3.3,2.2-7.2,3.5-11.1,3.9h-1.9c-3.7,0-7.3-0.9-10.5-2.5c-2.8-1.5-5.4-3.3-7.8-5.4
		c-1.5-1.5-2.8-2.8-4.1-3.9c-2-2-4.3-3.8-6.7-5.3c-2.2-1.3-4.7-2-7.3-2c-0.4,0-0.8,0-1.2,0.1c-0.3,0.1-0.6,0.1-0.9,0.1
		c-0.3,0.1-0.6,0.2-1,0.2c-0.3,0-0.6,0.1-1,0.2c-0.3,0.1-0.6,0.2-0.8,0.3l0,0c-0.3,0.1-0.5,0.2-0.9,0.3c-2.7,1-5.2,3.1-8.4,6
		c-0.4,0.4-0.9,0.8-1.3,1.2l0,0c-2.4,2.4-5.1,4.6-7.9,6.5c-3.3,2.2-7.2,3.5-11.1,3.9h-1.9c-4.4,0-8.7-1.2-12.5-3.5
		c-3.1-2-6-4.3-8.7-6.9l-0.1-0.1c-0.4-0.4-0.8-0.7-1.2-1.1c-4.3-3.9-7.1-6.3-11.1-7.1c-0.2,0-0.4,0-0.6,0c-0.4,0-0.8,0-1.2,0.1
		c-0.6,0-1.3,0.1-1.9,0.3c-0.3,0-0.7,0.1-1,0.2c-0.3,0.1-0.6,0.2-0.9,0.3s-0.5,0.2-0.9,0.3c-2.7,1-5.2,3.1-8.4,6
		c-0.4,0.4-0.9,0.8-1.4,1.3c-2.4,2.4-5.1,4.6-7.9,6.5c-3.3,2.2-7.2,3.5-11.1,3.9h-1.9c-3.7,0-7.3-0.9-10.5-2.5
		c-2.8-1.5-5.4-3.3-7.8-5.4c-1.5-1.5-2.8-2.8-4.1-3.9c-2-2-4.3-3.8-6.7-5.3c-2.2-1.3-4.7-2-7.3-2c-0.4,0-0.8,0-1.2,0.1
		c-0.3,0.1-0.6,0.1-0.9,0.1c-0.3,0.1-0.6,0.2-1,0.2c-0.3,0-0.6,0.1-1,0.2c-0.3,0.1-0.6,0.2-0.9,0.3s-0.5,0.2-0.9,0.3
		c-2.7,1-5.2,3.1-8.4,6c-0.5,0.4-0.9,0.8-1.4,1.3c-2.4,2.4-5.1,4.6-7.9,6.5c-3.3,2.2-7.2,3.5-11.1,3.9h-1.9c-4.4,0-8.7-1.2-12.5-3.5
		c-3.1-2-6-4.3-8.7-6.9c-0.4-0.4-0.8-0.8-1.2-1.1c-4.3-3.9-7.1-6.3-11.1-7.1c-0.2,0-0.4,0-0.6,0c-0.4,0-0.8,0-1.2,0.1
		c-0.3,0.1-0.6,0.1-0.9,0.1c-0.3,0.1-0.6,0.2-1,0.2l0,0c-0.3,0-0.7,0.1-1,0.2c-0.3,0.1-0.6,0.2-0.9,0.3c-0.3,0.1-0.5,0.2-0.9,0.3
		c-2.7,1-5.2,3.1-8.4,6c-0.4,0.4-0.9,0.8-1.4,1.3c-2.4,2.4-5.1,4.6-7.9,6.5c-3.3,2.2-7.1,3.5-11.1,3.9h-2c-3.7,0-7.3-0.9-10.5-2.5
		c-2.8-1.5-5.4-3.3-7.8-5.4c-1.5-1.5-2.8-2.8-4.1-3.9c-2-2-4.3-3.8-6.7-5.3c-2.2-1.3-4.7-2-7.3-2c-0.4,0-0.8,0-1.2,0.1
		c-0.3,0.1-0.6,0.1-0.9,0.1c-0.3,0.1-0.6,0.2-1,0.2c-0.3,0-0.6,0.1-1,0.2c-0.3,0.1-0.6,0.2-0.8,0.3l0,0c-0.3,0.1-0.5,0.2-0.9,0.3
		c-2.7,1-5.2,3.1-8.4,6c-0.5,0.4-0.9,0.8-1.4,1.3c-2.4,2.4-5.1,4.6-7.9,6.5c-3.3,2.2-7.2,3.5-11.1,3.9h-1.9c-4.4,0-8.7-1.2-12.5-3.5
		c-3.1-2-6-4.3-8.7-6.9c-0.4-0.4-0.8-0.8-1.2-1.2c-4.3-3.9-7.1-6.3-11.1-7.1c-0.2,0-0.4,0-0.6,0c-0.4,0-0.8,0-1.2,0.1
		c-0.6,0-1.3,0.1-1.9,0.3c-0.3,0-0.7,0.1-1,0.2c-0.3,0.1-0.6,0.2-0.9,0.3c-0.3,0.1-0.5,0.2-0.9,0.3c-2.7,1-5.2,3.1-8.4,6
		c-0.4,0.4-0.9,0.8-1.4,1.3c-2.4,2.4-5.1,4.6-7.9,6.5c-3.3,2.2-7.2,3.5-11.1,3.9h-1.9c-3.7,0-7.3-0.9-10.5-2.5
		c-2.8-1.5-5.4-3.3-7.8-5.4c-1.5-1.5-2.8-2.8-4.1-3.9c-2-2-4.3-3.8-6.7-5.3c-2.2-1.3-4.7-2-7.3-2c-0.4,0-0.8,0-1.2,0.1
		c-0.3,0.1-0.6,0.1-0.9,0.1c-0.3,0.1-0.6,0.2-1,0.2c-0.3,0-0.6,0.1-1,0.2c-0.3,0.1-0.6,0.2-0.9,0.3c-0.3,0.1-0.5,0.2-0.9,0.3
		c-2.7,1-5.2,3.1-8.4,6c-0.5,0.4-0.9,0.8-1.4,1.3c-2.4,2.4-5.1,4.6-7.9,6.5c-3.3,2.2-7.2,3.5-11.1,3.9h-1.9c-4.4,0-8.7-1.2-12.5-3.5
		c-3.1-2-6-4.3-8.7-6.9l-0.1-0.1c-0.4-0.4-0.8-0.7-1.2-1.1c-4.3-3.9-7.1-6.3-11.1-7.1c-0.2,0-0.4,0-0.6,0c-0.4,0-0.8,0-1.2,0.1
		c-0.3,0.1-0.6,0.1-0.9,0.1c-0.3,0.1-0.6,0.2-1,0.2c-0.3,0-0.7,0.1-1,0.2c-0.3,0.1-0.6,0.2-0.9,0.3l0,0c-0.3,0.1-0.5,0.2-0.9,0.3
		c-2.7,1-5.2,3.1-8.4,6c-0.4,0.4-0.9,0.8-1.4,1.3c-2.4,2.4-5.1,4.6-7.9,6.5c-3.3,2.2-7.1,3.5-11.1,3.9h-1.9c-3.7,0-7.3-0.9-10.5-2.5
		c-2.8-1.5-5.4-3.3-7.8-5.4l0,0c-1.5-1.5-2.8-2.8-4.1-3.9c-2-2-4.3-3.8-6.7-5.3c-2.2-1.3-4.7-2-7.3-2c-0.4,0-0.8,0-1.2,0.1
		c-0.3,0.1-0.6,0.1-0.9,0.1c-0.3,0.1-0.6,0.2-1,0.2c-0.3,0-0.6,0.1-1,0.2c-0.3,0.1-0.6,0.2-0.9,0.3l0,0c-0.3,0.1-0.5,0.2-0.9,0.3
		c-2.7,1-5.2,3.1-8.4,6c-0.4,0.4-0.9,0.8-1.3,1.2l0,0c-2.4,2.4-5.1,4.6-7.9,6.5c-3.3,2.2-7.2,3.5-11.1,3.9h-1.9
		c-4.4,0-8.7-1.2-12.5-3.5c-3.1-2-6-4.3-8.7-6.9l-0.1-0.1c-0.4-0.4-0.8-0.7-1.2-1.1c-4.3-3.9-7.1-6.3-11.1-7.1c-0.2,0-0.4,0-0.6,0
		c-0.4,0-0.8,0-1.2,0.1c-0.3,0.1-0.6,0.1-0.9,0.1c-0.3,0.1-0.6,0.2-1,0.2c-0.3,0-0.7,0.1-1,0.2c-0.3,0.1-0.6,0.2-0.9,0.3
		c-0.3,0.1-0.5,0.2-0.9,0.3c-2.7,1-5.2,3.1-8.4,6c-0.4,0.4-0.9,0.8-1.4,1.3c-2.4,2.4-5.1,4.6-7.9,6.5c-3.3,2.2-7.1,3.5-11.1,3.9
		h-1.9c-3.7,0-7.3-0.9-10.5-2.5c-2.8-1.5-5.4-3.3-7.8-5.4c-1.5-1.5-2.8-2.8-4.1-3.9c-2-2-4.3-3.8-6.7-5.3c-2.2-1.3-4.7-2-7.3-2
		c-0.4,0-0.8,0-1.2,0.1c-0.3,0.1-0.6,0.1-0.9,0.1c-0.3,0.1-0.6,0.2-1,0.2c-0.3,0-0.6,0.1-1,0.2c-0.3,0.1-0.6,0.2-0.8,0.3l0,0
		c-0.3,0.1-0.5,0.2-0.9,0.3c-2.7,1-5.2,3.1-8.4,6c-0.4,0.4-0.9,0.8-1.3,1.2l0,0c-2.4,2.4-5.1,4.6-7.9,6.5c-3.3,2.2-7.2,3.5-11.1,3.9
		h-1.9c-4.4,0-8.7-1.2-12.5-3.5c-3.1-2-6-4.3-8.7-6.9l0,0c-0.4-0.4-0.8-0.8-1.2-1.1c-4.3-3.9-7.1-6.3-11.1-7.1c-0.2,0-0.4,0-0.6,0
		c-0.4,0-0.8,0-1.2,0.1c-0.6,0-1.3,0.1-1.9,0.3c-0.3,0-0.7,0.1-1,0.2c-0.3,0.1-0.6,0.2-0.9,0.3s-0.5,0.2-0.9,0.3
		c-2.7,1-5.2,3.1-8.4,6c-0.4,0.4-0.9,0.8-1.4,1.3c-2.4,2.4-5.1,4.6-7.9,6.5c-3.3,2.2-7.1,3.5-11.1,3.9h-1.9c-3.7,0-7.3-0.9-10.5-2.5
		c-2.8-1.5-5.4-3.3-7.8-5.4c-1.5-1.5-2.8-2.8-4.1-3.9c-2-2-4.3-3.8-6.7-5.3c-2.2-1.3-4.7-2-7.3-2c-0.4,0-0.8,0-1.2,0.1
		c-0.3,0.1-0.6,0.1-0.9,0.1c-0.3,0.1-0.6,0.2-1,0.2c-0.3,0-0.6,0.1-1,0.2c-0.3,0.1-0.6,0.2-0.9,0.3s-0.5,0.2-0.9,0.3
		c-2.7,1-5.2,3.1-8.4,6c-0.4,0.4-0.9,0.8-1.4,1.3c-2.4,2.4-5.1,4.6-7.9,6.5c-3.3,2.2-7.2,3.5-11.1,3.9h-1.9c-4.4,0-8.7-1.2-12.5-3.5
		c-3.1-2-6-4.3-8.7-6.9c-0.4-0.4-0.8-0.8-1.2-1.2c-4.3-3.9-7.1-6.3-11.1-7.1c-0.2,0-0.4,0-0.6,0c-0.4,0-0.8,0-1.2,0.1
		c-0.3,0.1-0.6,0.1-0.9,0.1c-0.3,0.1-0.6,0.2-1,0.2l0,0c-0.3,0-0.7,0.1-1,0.2c-0.3,0.1-0.6,0.2-0.9,0.3s-0.5,0.2-0.9,0.3
		c-2.7,1-5.2,3.1-8.4,6c-0.4,0.4-0.9,0.8-1.4,1.3c-2.4,2.4-5.1,4.6-7.9,6.5c-3.3,2.2-7.1,3.5-11.1,3.9h-1.9c-3.7,0-7.3-0.9-10.5-2.5
		c-2.8-1.5-5.4-3.3-7.8-5.4l0,0c-1.5-1.5-2.8-2.8-4.1-3.8c-2-2-4.3-3.8-6.7-5.3c-2.2-1.3-4.7-2-7.3-2c-0.4,0-0.8,0-1.2,0.1
		c-0.3,0.1-0.6,0.1-0.9,0.1c-0.3,0.1-0.6,0.2-1,0.2c-0.3,0-0.6,0.1-1,0.2c-0.3,0.1-0.6,0.2-0.8,0.3l0,0c-0.3,0.1-0.5,0.2-0.9,0.3
		c-2.7,1-5.2,3.1-8.4,6c-0.5,0.4-0.9,0.8-1.4,1.3c-2.4,2.4-5.1,4.6-7.9,6.5c-3.3,2.2-7.2,3.5-11.1,3.9h-1.9c-4.4,0-8.7-1.2-12.5-3.5
		c-3.1-2-6-4.3-8.7-6.9l-0.1-0.1c-0.4-0.4-0.8-0.7-1.2-1.1c-4.3-3.9-7.1-6.3-11.1-7.1c-0.2,0-0.4,0-0.6,0c-0.4,0-0.8,0-1.2,0.1
		c-0.3,0.1-0.6,0.1-0.9,0.1c-0.3,0.1-0.6,0.2-1,0.2c-0.3,0-0.7,0.1-1,0.2c-0.3,0.1-0.6,0.2-0.9,0.3l0,0c-0.3,0.1-0.5,0.2-0.9,0.3
		c-2.7,1-5.2,3.1-8.4,6c-0.4,0.4-0.9,0.8-1.4,1.3c-2.4,2.4-5.1,4.6-7.9,6.5c-3.3,2.2-7.1,3.5-11.1,3.9H118c-3.7,0-7.3-0.9-10.5-2.5
		c-2.8-1.5-5.4-3.3-7.8-5.4c-1.5-1.5-2.8-2.8-4.1-3.9c-2-2-4.3-3.8-6.7-5.3c-2.2-1.3-4.7-2-7.3-2c-0.4,0-0.8,0-1.2,0.1
		c-0.3,0.1-0.6,0.1-0.9,0.1c-0.3,0.1-0.6,0.2-1,0.2c-0.3,0-0.6,0.1-1,0.2c-0.3,0.1-0.6,0.2-0.9,0.3s-0.5,0.2-0.9,0.3
		c-2.7,1-5.2,3.1-8.4,6c-0.4,0.4-0.9,0.8-1.3,1.2l0,0c-2.4,2.4-5.1,4.6-7.9,6.5c-3.3,2.2-7.2,3.5-11.1,3.9h-1.9
		c-4.4,0-8.7-1.2-12.5-3.5c-3.1-2-6-4.3-8.7-6.9l0.1,0c-0.4-0.4-0.8-0.7-1.2-1.1c-2-2-4.3-3.8-6.7-5.3c-2.2-1.3-4.7-2-7.3-2
		c-0.1,0-0.2,0-0.3,0c-2.2,0-4.3-1-5.9-2.6S0,53.2,0,51c0-2.3,1-4.6,2.7-6.2c1.6-1.6,3.8-2.6,6.1-2.6c2.8,0,5.6,0.4,8.3,1.2
		c2.5,0.7,4.8,1.7,7,2.9c3.9,2,7.4,4.7,10.6,7.7c1,0.8,1.9,1.6,2.7,2.3c1.2,1.1,2.5,2.2,3.8,3.1c0.4,0.2,0.8,0.4,1.3,0.6
		c0.9,0.6,1.9,1,3,1.1c0.1,0,0.2,0,0.3-0.1c0.2-0.1,0.4-0.1,0.6-0.1c2.3-0.4,4.7-2.6,9.1-6.6l0.6-0.5c3-2.7,6.3-5.1,9.7-7.2
		c4.3-2.5,9-4,13.9-4.4h2.1c2.8,0,5.6,0.4,8.3,1.2c2.5,0.7,4.8,1.7,7,2.9c3.8,2.2,7.3,4.8,10.4,7.8c2.2,2.4,4.8,4.5,7.5,6.2
		c0.9,0.6,1.9,1,3,1.1c0.1,0,0.2,0,0.3-0.1c0.2-0.1,0.4-0.1,0.6-0.1c2.3-0.4,4.7-2.6,9.1-6.6l0.5-0.5c2.7-2.4,5.6-4.6,8.6-6.5
		c3.7-2.3,7.8-3.9,12-4.7c1-0.4,2.1-0.7,3.2-0.7c2.8,0,5.6,0.4,8.3,1.2c2.5,0.7,4.8,1.7,7,2.9c3.8,2.2,7.3,4.8,10.4,7.8
		c1,0.8,1.9,1.6,2.7,2.3c1.2,1.1,2.5,2.1,3.8,3.1c0.5,0.2,0.9,0.4,1.3,0.6c0.9,0.6,1.9,1,3,1.1c0.1,0,0.2,0,0.3-0.1
		c0.2-0.1,0.4-0.1,0.6-0.1c2.3-0.4,4.7-2.6,9.1-6.6l0.6-0.5c3-2.7,6.3-5.1,9.7-7.2c4.3-2.5,9-4,13.9-4.4h2.1c2.8,0,5.6,0.4,8.3,1.2
		c2.5,0.7,4.8,1.7,7,2.9c3.8,2.2,7.3,4.8,10.4,7.8c2.2,2.4,4.8,4.5,7.5,6.2c0.9,0.6,1.9,1,3,1.1c0.1,0,0.2,0,0.3-0.1
		c0.2-0.1,0.4-0.1,0.6-0.1c2.3-0.4,4.7-2.6,9.1-6.6l0.5-0.5c2.7-2.4,5.6-4.6,8.6-6.5c3.7-2.3,7.8-3.9,12-4.7c1-0.4,2.1-0.7,3.2-0.7
		c2.8,0,5.6,0.4,8.3,1.2c2.5,0.7,4.8,1.7,7,2.9c3.8,2.2,7.3,4.8,10.4,7.8c1,0.8,1.9,1.6,2.7,2.3c1.2,1.1,2.5,2.2,3.8,3.1
		c0.5,0.2,0.9,0.4,1.3,0.6c0.9,0.6,1.9,1,3,1.1c0.1,0,0.2,0,0.3-0.1c0.2-0.1,0.4-0.1,0.6-0.1c2.3-0.4,4.7-2.6,9.1-6.6l0.6-0.5
		c3-2.7,6.3-5.1,9.7-7.2c4.3-2.5,9-4,13.9-4.4h2.1c2.8,0,5.6,0.4,8.3,1.2c2.5,0.7,4.8,1.7,7,2.9c3.8,2.2,7.3,4.8,10.4,7.8
		c2.2,2.4,4.8,4.5,7.5,6.2c0.9,0.6,1.9,1,3,1.1c0.1,0,0.2,0,0.3-0.1c0.2-0.1,0.4-0.1,0.6-0.1c2.3-0.4,4.7-2.6,9.1-6.6l0.5-0.5
		c2.7-2.4,5.6-4.6,8.6-6.5c3.7-2.3,7.8-3.9,12-4.7c1-0.4,2.1-0.7,3.2-0.7c2.8,0,5.6,0.4,8.3,1.2c2.5,0.7,4.8,1.7,7,2.9
		c3.8,2.2,7.3,4.8,10.4,7.8c1,0.8,1.9,1.6,2.7,2.3l0,0c1.2,1.1,2.5,2.1,3.8,3.1c0.4,0.2,0.8,0.4,1.3,0.6c0.9,0.6,1.9,1,3,1.1
		c0.1,0,0.2,0,0.3-0.1c0.2-0.1,0.4-0.1,0.6-0.1c2.3-0.4,4.7-2.6,9.1-6.6l0.6-0.5c3-2.7,6.3-5.1,9.7-7.2c4.3-2.5,9-4,13.9-4.4h2.1
		c2.8,0,5.6,0.4,8.3,1.2c2.5,0.7,4.8,1.7,7,2.9c3.8,2.2,7.3,4.8,10.4,7.8c2.2,2.4,4.8,4.5,7.5,6.2c0.9,0.6,1.9,1,3,1.1
		c0.1,0,0.2,0,0.3-0.1c0.2-0.1,0.4-0.1,0.6-0.1c2.3-0.4,4.7-2.6,9.1-6.6l0.5-0.5c2.7-2.4,5.6-4.6,8.6-6.5c3.7-2.3,7.8-3.9,12-4.7
		c1-0.4,2.1-0.7,3.2-0.7c2.8,0,5.6,0.4,8.3,1.2c2.5,0.7,4.8,1.7,7,2.9c3.8,2.2,7.3,4.8,10.4,7.8c1,0.8,1.9,1.6,2.7,2.3
		c1.2,1.1,2.5,2.2,3.8,3.1c0.4,0.2,0.8,0.4,1.3,0.6c0.9,0.6,1.9,1,3,1.1c0.1,0,0.2,0,0.3-0.1c0.2-0.1,0.4-0.1,0.6-0.1
		c2.3-0.4,4.7-2.6,9.1-6.6l0.6-0.5c3-2.7,6.3-5.1,9.7-7.2c4.3-2.5,9-4,13.9-4.4h2.1c2.8,0,5.6,0.4,8.3,1.2c2.5,0.7,4.8,1.7,7,2.9
		c3.8,2.2,7.3,4.8,10.4,7.8c2.2,2.4,4.8,4.5,7.5,6.2c0.9,0.6,1.9,1,3,1.1c0.1,0,0.2,0,0.3-0.1c0.2-0.1,0.4-0.1,0.6-0.1
		c2.3-0.4,4.7-2.6,9.1-6.6l0.5-0.5c2.7-2.4,5.6-4.6,8.6-6.5c3.7-2.3,7.8-3.9,12-4.7c1-0.4,2.1-0.7,3.2-0.7c2.8,0,5.6,0.4,8.3,1.2
		c2.5,0.7,4.8,1.7,7,2.9c3.8,2.2,7.3,4.8,10.4,7.8c1,0.8,1.9,1.6,2.7,2.3c1.2,1.1,2.5,2.1,3.8,3.1c0.5,0.2,0.9,0.4,1.3,0.6
		c0.9,0.6,1.9,1,3,1.1c0.1,0,0.2,0,0.3-0.1c0.2-0.1,0.4-0.1,0.6-0.1c2.3-0.4,4.7-2.6,9.1-6.6l0.6-0.5c3-2.7,6.3-5.1,9.7-7.2
		c4.3-2.5,9-4,13.9-4.4h2.1c2.8,0,5.6,0.4,8.3,1.2c2.5,0.7,4.8,1.7,7,2.9c3.8,2.2,7.3,4.8,10.4,7.8c2.2,2.4,4.8,4.5,7.5,6.2
		c0.9,0.6,1.9,1,3,1.1c0.1,0,0.2,0,0.3-0.1c0.2-0.1,0.4-0.1,0.6-0.1c2.3-0.4,4.7-2.6,9.1-6.6l0.5-0.5c2.7-2.4,5.6-4.6,8.6-6.5
		c3.7-2.3,7.8-3.9,12-4.7c1-0.4,2.1-0.7,3.2-0.7c2.8,0,5.6,0.4,8.3,1.2c2.5,0.7,4.8,1.7,7,2.9c3.8,2.2,7.3,4.8,10.4,7.8
		c1,0.8,1.9,1.6,2.7,2.3c1.2,1.1,2.5,2.2,3.8,3.1c0.5,0.2,0.9,0.4,1.3,0.6c0.9,0.6,1.9,1,3,1.1c0.1,0,0.2,0,0.3-0.1
		c0.2-0.1,0.4-0.1,0.6-0.1c2.3-0.4,4.7-2.6,9.1-6.6l0.6-0.5c3-2.7,6.3-5.1,9.7-7.2c4.3-2.5,9-4,13.9-4.4h2.1c2.8,0,5.6,0.4,8.3,1.2
		c2.5,0.7,4.8,1.7,7,2.9c3.8,2.2,7.3,4.8,10.4,7.8c2.2,2.4,4.8,4.5,7.5,6.2c0.9,0.6,1.9,1,3,1.1c0.1,0,0.2,0,0.3-0.1
		c0.2-0.1,0.4-0.1,0.6-0.1c2.3-0.4,4.7-2.6,9.1-6.6l0.5-0.5c2.7-2.4,5.6-4.6,8.6-6.5c3.7-2.3,7.8-3.9,12-4.7c1-0.4,2.1-0.7,3.2-0.7
		c2.8,0,5.6,0.4,8.3,1.2c2.5,0.7,4.8,1.7,7,2.9c3.8,2.2,7.3,4.8,10.4,7.8c1,0.8,1.9,1.6,2.7,2.3l0,0c1.2,1.1,2.5,2.1,3.8,3.1
		c0.5,0.2,0.9,0.4,1.3,0.6c0.9,0.6,1.9,1,3,1.1c0.1,0,0.2,0,0.3-0.1c0.2-0.1,0.4-0.1,0.6-0.1c2.3-0.4,4.7-2.6,9.1-6.6l0.6-0.5
		c3-2.7,6.3-5.1,9.7-7.2c4.3-2.5,9-4,13.9-4.4h2.1c2.8,0,5.6,0.4,8.3,1.2c2.5,0.7,4.8,1.7,7,2.9c3.8,2.2,7.3,4.8,10.4,7.8
		c2.2,2.4,4.8,4.5,7.5,6.2c0.9,0.6,1.9,1,3,1.1c0.1,0,0.2,0,0.3-0.1c0.2-0.1,0.4-0.1,0.6-0.1c2.3-0.4,4.7-2.6,9.1-6.6l0.5-0.5
		c2.7-2.4,5.6-4.6,8.6-6.5c3.7-2.3,7.8-3.9,12-4.7c1-0.4,2.1-0.7,3.2-0.7c2.8,0,5.6,0.4,8.3,1.2c2.5,0.7,4.8,1.7,7,2.9
		c3.8,2.2,7.3,4.8,10.4,7.8c1,0.8,1.9,1.6,2.7,2.3c1.2,1.1,2.5,2.1,3.8,3.1c0.4,0.2,0.9,0.4,1.3,0.6c0.9,0.6,1.9,1,3,1.1
		c0.1,0,0.2,0,0.3-0.1c0.2-0.1,0.4-0.1,0.6-0.1c2.3-0.4,4.7-2.6,9.1-6.6l0.6-0.5c3-2.7,6.3-5.1,9.7-7.2c4.3-2.5,9-4,13.9-4.4h2.1
		c2.8,0,5.6,0.4,8.3,1.2c2.5,0.7,4.8,1.7,7,2.9c3.8,2.2,7.3,4.8,10.4,7.8c2.2,2.4,4.8,4.5,7.5,6.2c0.9,0.6,1.9,1,3,1.1
		c0.1,0,0.2,0,0.3-0.1c0.2-0.1,0.4-0.1,0.6-0.1c2.3-0.4,4.7-2.6,9.1-6.6l0.5-0.5c2.7-2.4,5.6-4.6,8.6-6.5c3.7-2.3,7.8-3.9,12-4.7
		c1-0.4,2.1-0.7,3.2-0.7c2.8,0,5.6,0.4,8.3,1.2c2.5,0.7,4.8,1.7,7,2.9c3.8,2.2,7.3,4.8,10.4,7.8c1,0.8,1.8,1.6,2.6,2.3l0,0l0,0
		c1.2,1.1,2.5,2.1,3.8,3.1c0.4,0.2,0.9,0.4,1.3,0.6c0.9,0.6,1.9,1,3,1.1c0.1,0,0.2,0,0.3-0.1c0.2-0.1,0.4-0.1,0.6-0.1
		c2.3-0.4,4.7-2.6,9.1-6.6l0.6-0.5c3-2.7,6.3-5.1,9.7-7.2c4.3-2.5,9-4,13.9-4.4h2.1c2.8,0,5.6,0.4,8.3,1.2c2.5,0.7,4.8,1.7,7,2.9
		c3.8,2.2,7.3,4.8,10.4,7.8c2.2,2.4,4.8,4.5,7.5,6.2c0.9,0.6,1.9,1,3,1.1c0.1,0,0.2,0,0.3-0.1c0.2-0.1,0.4-0.1,0.6-0.1
		c2.3-0.4,4.7-2.6,9.1-6.6l0.5-0.5c2.7-2.4,5.6-4.6,8.6-6.5c3.7-2.3,7.8-3.9,12-4.7c1-0.4,2.1-0.7,3.2-0.7c2.8,0,5.6,0.4,8.3,1.2
		c2.5,0.7,4.8,1.7,7,2.9c3.8,2.2,7.3,4.8,10.4,7.8c1,0.8,1.9,1.6,2.7,2.3c1.2,1.1,2.5,2.1,3.8,3.1c0.5,0.2,0.9,0.4,1.3,0.6
		c0.9,0.6,1.9,1,3,1.1c0.1,0,0.2,0,0.3-0.1c0.2-0.1,0.4-0.1,0.6-0.1c2.3-0.4,4.7-2.6,9.1-6.6l0.6-0.5c3-2.7,6.3-5.1,9.7-7.2
		c4.3-2.5,9-4,13.9-4.4h2.1c2.8,0,5.6,0.4,8.3,1.2c2.5,0.7,4.8,1.7,7,2.9c3.8,2.2,7.3,4.8,10.4,7.8c2.2,2.4,4.8,4.5,7.5,6.2
		c0.9,0.6,1.9,1,3,1.1c0.1,0,0.2,0,0.3-0.1c0.2-0.1,0.4-0.1,0.6-0.1c2.3-0.4,4.7-2.6,9.1-6.6l0.5-0.5c3-2.7,6.3-5.1,9.7-7.2
		c4.3-2.5,9-4,13.9-4.4h2.1c2.4,0.1,4.6,1,6.3,2.7c1.7,1.6,2.7,3.8,2.8,6.1c-0.1,2.3-1,4.5-2.7,6c-1.6,1.6-3.8,2.6-6.1,2.6
		c-0.4,0-0.8,0-1.2,0.1c-0.3,0.1-0.6,0.1-0.9,0.1c-0.3,0.1-0.6,0.2-1,0.2l0,0c-0.3,0-0.7,0.1-1,0.2c-0.3,0.1-0.6,0.2-0.9,0.3
		s-0.5,0.2-0.9,0.3c-2.7,1-5.2,3.1-8.4,6c-0.5,0.4-0.9,0.8-1.4,1.3l0,0c-2.4,2.4-5.1,4.6-7.9,6.5C1564.3,77,1560.5,78.4,1556.5,78.7
		z M1556.5,36.1h-1.9c-3.7,0-7.3-0.9-10.5-2.5c-2.8-1.5-5.4-3.3-7.8-5.4l0,0c-1.5-1.5-2.8-2.8-4.1-3.9c-2-2-4.3-3.8-6.7-5.3
		c-2.2-1.3-4.8-1.9-7.3-1.8c-0.4,0-0.8,0-1.2,0.1c-0.3,0.1-0.6,0.1-0.9,0.1c-4.7,0.6-7.6,3.1-12.1,7.1c-0.5,0.4-0.9,0.8-1.4,1.3
		c-2.4,2.4-5.1,4.6-7.9,6.5c-3.3,2.2-7.2,3.5-11.1,3.9h-1.9c-4.4,0-8.7-1.2-12.5-3.5c-3.1-2-6-4.3-8.7-6.9c-0.4-0.4-0.8-0.8-1.2-1.1
		c-2-2-4.3-3.7-6.7-5.2c-2.2-1.3-4.7-1.9-7.3-1.9c-4.7,0.6-7.6,3.1-12.1,7.1c-0.4,0.4-0.9,0.8-1.4,1.3c-2.4,2.4-5.1,4.6-7.9,6.5
		c-3.3,2.2-7.2,3.5-11.1,3.9h-1.9c-3.7,0-7.3-0.9-10.5-2.5c-2.8-1.5-5.4-3.3-7.8-5.4c-1.5-1.5-2.8-2.8-4.1-3.9c-2-2-4.3-3.8-6.7-5.3
		c-2.2-1.3-4.8-1.9-7.3-1.8c-0.4,0-0.8,0-1.2,0.1c-0.3,0.1-0.6,0.1-0.9,0.1c-4.7,0.6-7.6,3.1-12.1,7.1c-0.4,0.4-0.9,0.8-1.3,1.2l0,0
		c-2.4,2.4-5.1,4.6-7.9,6.5c-3.3,2.2-7.2,3.5-11.1,3.9h-1.9c-4.4,0-8.7-1.2-12.5-3.5c-3.1-2-6-4.3-8.7-6.9c-0.4-0.4-0.8-0.8-1.2-1.1
		c-2-2-4.3-3.7-6.7-5.2c-2.2-1.3-4.7-1.9-7.3-1.9c-4.7,0.6-7.6,3.1-12.1,7.1c-0.4,0.4-0.9,0.8-1.3,1.2l0,0c-2.4,2.4-5.1,4.6-7.9,6.5
		c-3.3,2.2-7.2,3.5-11.1,3.9h-1.9c-3.7,0-7.3-0.9-10.5-2.5c-2.8-1.5-5.4-3.3-7.8-5.4c-1.5-1.5-2.8-2.8-4.1-3.9c-2-2-4.3-3.8-6.7-5.3
		c-2.2-1.3-4.8-1.9-7.3-1.8c-0.4,0-0.8,0-1.2,0.1c-0.3,0.1-0.6,0.1-0.9,0.1c-4.7,0.6-7.6,3.1-12.1,7.1c-0.4,0.4-0.9,0.8-1.4,1.3
		c-2.4,2.4-5.1,4.6-7.9,6.5c-3.3,2.2-7.2,3.5-11.1,3.9h-1.9c-4.4,0-8.7-1.2-12.5-3.5c-3.1-2-6-4.3-8.7-6.9c-0.4-0.4-0.8-0.8-1.2-1.1
		c-2-2-4.3-3.7-6.7-5.2c-2.2-1.3-4.7-1.9-7.3-1.9c-4.7,0.6-7.6,3.1-12.1,7.1c-0.5,0.4-0.9,0.8-1.4,1.3c-2.4,2.4-5.1,4.6-7.9,6.5
		c-3.3,2.2-7.2,3.5-11.1,3.9h-1.9c-3.7,0-7.3-0.9-10.5-2.5c-2.8-1.5-5.4-3.3-7.8-5.4c-1.5-1.5-2.8-2.8-4.1-3.9c-2-2-4.3-3.8-6.7-5.3
		c-2.2-1.3-4.8-1.9-7.3-1.8c-0.4,0-0.8,0-1.2,0.1c-0.3,0.1-0.6,0.1-0.9,0.1c-4.7,0.6-7.6,3.1-12.1,7.1c-0.4,0.4-0.9,0.8-1.3,1.2l0,0
		c-2.4,2.4-5.1,4.6-7.9,6.5c-3.3,2.2-7.2,3.5-11.1,3.9h-1.9c-4.4,0-8.7-1.2-12.5-3.5c-3.1-2-6-4.3-8.7-6.9c-0.4-0.4-0.8-0.8-1.2-1.1
		c-2-2-4.3-3.7-6.7-5.2c-2.2-1.3-4.7-1.9-7.3-1.9c-4.7,0.6-7.6,3.1-12.1,7.1c-0.4,0.4-0.9,0.8-1.3,1.2l-0.1,0.1
		c-2.4,2.4-5.1,4.6-7.9,6.5c-3.3,2.2-7.2,3.5-11.1,3.8h-2c-3.7,0-7.3-0.9-10.5-2.5c-2.8-1.5-5.4-3.3-7.8-5.4l0,0
		c-1.5-1.5-2.8-2.8-4.1-3.9c-2-2-4.3-3.8-6.7-5.3c-2.2-1.3-4.8-1.9-7.3-1.8c-0.4,0-0.8,0-1.2,0.1c-0.3,0.1-0.6,0.1-0.9,0.1
		c-4.7,0.6-7.6,3.1-12.1,7.1c-0.5,0.4-0.9,0.8-1.4,1.3c-2.4,2.4-5.1,4.6-7.9,6.5c-3.3,2.2-7.2,3.5-11.1,3.9h-2
		c-4.4,0-8.7-1.2-12.5-3.5c-3.1-2-6-4.3-8.7-6.9l-0.1-0.1c-0.4-0.4-0.8-0.7-1.2-1.1c-2-2-4.3-3.7-6.7-5.2c-2.2-1.3-4.7-1.9-7.3-1.9
		c-4.7,0.6-7.6,3.1-12.1,7.1c-0.4,0.4-0.9,0.8-1.3,1.2l-0.1,0.1c-2.4,2.4-5.1,4.6-7.9,6.5c-3.3,2.2-7.2,3.5-11.1,3.9h-1.9
		c-3.7,0-7.3-0.9-10.5-2.5c-2.8-1.5-5.4-3.3-7.8-5.4c-1.5-1.5-2.8-2.8-4.1-3.9c-2-2-4.3-3.8-6.7-5.3c-2.2-1.3-4.8-1.9-7.3-1.8
		c-0.4,0-0.8,0-1.2,0.1c-0.3,0.1-0.6,0.1-0.9,0.1c-4.7,0.6-7.6,3.1-12.1,7.1c-0.5,0.4-0.9,0.8-1.4,1.3c-2.4,2.4-5.1,4.6-7.9,6.5
		c-3.3,2.2-7.1,3.5-11.1,3.9h-1.9c-4.4,0-8.7-1.2-12.5-3.5c-3.1-2-6-4.3-8.7-6.9c-0.4-0.4-0.8-0.8-1.2-1.1c-2-2-4.3-3.7-6.7-5.2
		c-2.2-1.3-4.7-1.9-7.3-1.9c-4.7,0.6-7.6,3.1-12.1,7.1c-0.4,0.4-0.9,0.8-1.3,1.2l0,0c-2.4,2.4-5.1,4.6-7.9,6.5
		c-3.3,2.2-7.1,3.5-11.1,3.9h-1.9c-3.7,0-7.3-0.9-10.5-2.5c-2.8-1.5-5.4-3.3-7.8-5.4c-1.5-1.5-2.8-2.8-4.1-3.9c-2-2-4.3-3.8-6.7-5.3
		c-2.2-1.3-4.8-1.9-7.3-1.8c-0.4,0-0.8,0-1.2,0.1c-0.3,0.1-0.6,0.1-0.9,0.1c-4.7,0.6-7.6,3.1-12.1,7.1c-0.4,0.4-0.9,0.8-1.3,1.2
		l-0.1,0.1c-2.4,2.4-5.1,4.6-7.9,6.5c-3.3,2.2-7.1,3.5-11.1,3.9h-1.9c-4.4,0-8.7-1.2-12.5-3.5c-3.1-2-6-4.3-8.7-6.9
		c-0.4-0.4-0.8-0.8-1.2-1.1c-2-2-4.3-3.7-6.7-5.2c-2.2-1.3-4.7-1.9-7.3-1.9c-4.7,0.6-7.6,3.1-12.1,7.1c-0.4,0.4-0.9,0.8-1.3,1.2l0,0
		c-2.4,2.4-5.1,4.6-7.9,6.5c-3.3,2.2-7.2,3.5-11.1,3.9H549c-3.7,0-7.3-0.9-10.5-2.5c-2.8-1.5-5.4-3.3-7.8-5.4l0,0
		c-1.5-1.5-2.8-2.8-4.1-3.9c-2-2-4.3-3.8-6.7-5.3c-2.2-1.3-4.8-1.9-7.3-1.8c-0.4,0-0.8,0-1.2,0.1c-0.3,0.1-0.6,0.1-0.9,0.1
		c-4.7,0.6-7.6,3.1-12.1,7.1c-0.4,0.4-0.9,0.8-1.3,1.2l0,0c-2.4,2.4-5.1,4.6-7.9,6.5c-3.3,2.2-7.1,3.5-11.1,3.9h-1.9
		c-4.4,0-8.7-1.2-12.5-3.5c-3.1-2-6-4.3-8.7-6.9c-0.4-0.4-0.8-0.8-1.2-1.1c-2-2-4.3-3.7-6.7-5.2c-2.2-1.3-4.7-1.9-7.3-1.9
		c-4.7,0.6-7.6,3.1-12.1,7.1c-0.4,0.4-0.9,0.8-1.4,1.3c-2.4,2.4-5.1,4.6-7.9,6.5c-3.3,2.2-7.2,3.5-11.1,3.9h-1.9
		c-3.7,0-7.3-0.9-10.5-2.5c-2.8-1.5-5.4-3.3-7.8-5.4l0,0c-1.5-1.5-2.8-2.8-4.1-3.9c-2-2-4.3-3.8-6.7-5.3c-2.2-1.3-4.8-1.9-7.3-1.8
		c-0.4,0-0.8,0-1.2,0.1l0,0c-0.3,0.1-0.6,0.1-0.9,0.1c-4.7,0.6-7.6,3.1-12.1,7.1c-0.4,0.4-0.9,0.8-1.4,1.3c-2.4,2.4-5.1,4.6-7.9,6.5
		c-3.3,2.2-7.2,3.5-11.1,3.9h-1.9c-4.4,0-8.7-1.2-12.5-3.5c-3.1-2-6-4.3-8.7-6.9c-0.4-0.4-0.8-0.8-1.2-1.1c-2-2-4.3-3.7-6.7-5.2
		c-2.2-1.3-4.7-1.9-7.3-1.9c-4.7,0.6-7.6,3.1-12.1,7.1c-0.5,0.4-0.9,0.8-1.4,1.3c-2.4,2.4-5.1,4.6-7.9,6.5
		c-3.3,2.2-7.2,3.5-11.1,3.9h-1.9c-3.7,0-7.3-0.9-10.5-2.5c-2.8-1.5-5.4-3.3-7.8-5.4l0,0c-1.5-1.5-2.8-2.8-4.1-3.9
		c-2-2-4.3-3.8-6.7-5.3c-2.2-1.3-4.8-1.9-7.3-1.8c-0.4,0-0.8,0-1.2,0.1c-0.3,0.1-0.6,0.1-0.9,0.1c-4.7,0.6-7.6,3.1-12.1,7.1
		c-0.5,0.4-0.9,0.8-1.4,1.3c-2.4,2.4-5.1,4.6-7.9,6.5c-3.3,2.2-7.2,3.5-11.1,3.9h-1.9c-4.4,0-8.7-1.2-12.5-3.5c-3.1-2-6-4.3-8.7-6.9
		c-0.4-0.4-0.8-0.8-1.2-1.1c-2-2-4.3-3.7-6.7-5.2c-2.2-1.3-4.7-1.9-7.3-1.9l0,0c0.3,0,0.6,0,0.9-0.1l0,0c0.4-0.1,0.8-0.1,1.2-0.1
		c1.1,0,2.2-0.2,3.2-0.6c0.1-0.1,0.2-0.1,0.4-0.2c0.4-0.2,0.8-0.4,1.2-0.7c1.2-0.8,2.2-1.8,2.9-3.1c1.3-2.2,1.5-4.9,0.5-7.3
		c-0.4-1.1-1.1-2-1.9-2.8c-0.4-0.4-0.8-0.8-1.3-1.1c-0.2-0.1-0.3-0.2-0.5-0.3l0,0c-0.3-0.2-0.6-0.4-0.9-0.5
		c9,1.6,15.5,6.8,20.2,11.1c1,0.8,1.9,1.6,2.7,2.3l0,0c1.2,1.1,2.5,2.1,3.8,3.1c0.3,0.2,0.6,0.4,0.9,0.5c0.5,0.3,0.9,0.6,1.4,0.8
		c0.6,0.2,1.3,0.4,1.9,0.4c0.1,0,0.2,0,0.3-0.1c0.2-0.1,0.4-0.1,0.6-0.1c2.3-0.4,4.7-2.6,9.1-6.6l0.6-0.5c3-2.8,6.2-5.2,9.7-7.3
		c2-1.2,4.2-2.1,6.4-2.8c2.4-0.8,5-1.3,7.5-1.5h2.1c2.8,0,5.6,0.4,8.3,1.1c2.4,0.7,4.8,1.6,7,2.8c3.8,2.1,7.3,4.7,10.4,7.7
		c1.2,1.2,2.4,2.2,3.7,3.2c1.4,1.5,3.1,2.7,5,3.7c0.6,0.2,1.3,0.4,1.9,0.4c0.1,0,0.2,0,0.3-0.1c0.2-0.1,0.4-0.1,0.6-0.1
		c2.3-0.4,4.7-2.6,9.1-6.6l0.6-0.5c3-2.8,6.2-5.2,9.7-7.3c2-1.2,4.2-2.1,6.4-2.8c2.4-0.8,5-1.3,7.5-1.5h2.1c0.6,0,1.2,0,1.7,0.2
		c0.5,0,0.9,0.1,1.4,0.3c0.1,0,0.2,0.1,0.3,0.1c0.1,0,0.1,0,0.2,0.1c9,1.6,15.5,6.8,20.2,11.1c1,0.8,1.9,1.6,2.7,2.3
		c1.2,1.1,2.5,2.2,3.8,3.1c0.3,0.2,0.6,0.3,0.9,0.5l0,0c0.5,0.3,0.9,0.6,1.4,0.8c0.6,0.2,1.3,0.4,1.9,0.4c0.1,0,0.2,0,0.3-0.1
		c0.2-0.1,0.4-0.1,0.6-0.1c2.3-0.4,4.7-2.6,9.1-6.6l0.6-0.5c3-2.8,6.2-5.2,9.7-7.3c2-1.2,4.2-2.1,6.4-2.8c2.4-0.8,5-1.3,7.5-1.5h2.1
		c2.8,0,5.6,0.4,8.3,1.1c2.4,0.7,4.8,1.6,7,2.8c3.8,2.1,7.3,4.7,10.4,7.7c1.2,1.2,2.4,2.2,3.7,3.2c1.4,1.5,3.1,2.7,5,3.7
		c0.6,0.2,1.3,0.4,1.9,0.4c0.1,0,0.2,0,0.3-0.1c0.2-0.1,0.4-0.1,0.6-0.1c2.3-0.4,4.7-2.6,9.1-6.6l0.6-0.5c3-2.8,6.2-5.2,9.7-7.3
		c2-1.2,4.2-2.1,6.4-2.8c2.4-0.8,5-1.3,7.5-1.5h2.1c0.6,0,1.2,0,1.7,0.2c0.5,0,0.9,0.1,1.4,0.3c0.1,0,0.2,0.1,0.3,0.1
		c0.1,0,0.1,0,0.2,0.1c9,1.6,15.5,6.8,20.2,11.1c1,0.8,1.9,1.6,2.6,2.3l0,0c1.2,1.1,2.5,2.2,3.8,3.1c0.3,0.2,0.6,0.3,0.9,0.5l0,0
		c0.5,0.3,0.9,0.6,1.4,0.8c0.6,0.2,1.3,0.4,1.9,0.4c0.1,0,0.2,0,0.3-0.1c0.2-0.1,0.4-0.1,0.6-0.1c2.3-0.4,4.7-2.6,9.1-6.6l0.6-0.5
		c3-2.8,6.2-5.2,9.7-7.3c2-1.2,4.2-2.1,6.4-2.8c2.4-0.8,5-1.3,7.5-1.5h2.1c2.8,0,5.6,0.4,8.3,1.1c2.4,0.7,4.8,1.6,7,2.8
		c3.8,2.1,7.3,4.7,10.4,7.7c1.2,1.2,2.4,2.2,3.7,3.2c1.4,1.5,3.1,2.7,5,3.7c0.6,0.2,1.3,0.4,1.9,0.4c0.1,0,0.2,0,0.3-0.1
		c0.2-0.1,0.4-0.1,0.6-0.1c2.3-0.4,4.7-2.6,9.1-6.6l0.6-0.5c3-2.8,6.2-5.2,9.7-7.3c2-1.2,4.2-2.1,6.4-2.8c2.4-0.8,5-1.3,7.5-1.5h2.1
		c0.6,0,1.2,0,1.7,0.2c0.5,0,0.9,0.1,1.4,0.3l0,0c0.1,0,0.2,0.1,0.3,0.1s0.1,0,0.2,0.1c9,1.6,15.5,6.8,20.2,11.1
		c1,0.8,1.9,1.6,2.7,2.3c1.2,1.1,2.5,2.1,3.8,3.1c0.3,0.2,0.6,0.4,0.9,0.5c0.5,0.3,0.9,0.6,1.4,0.8c0.6,0.2,1.3,0.4,1.9,0.4
		c0.1,0,0.2,0,0.3-0.1c0.2-0.1,0.4-0.1,0.6-0.1c2.3-0.4,4.7-2.6,9.1-6.6l0.6-0.5c3-2.8,6.2-5.2,9.7-7.3c2-1.2,4.2-2.1,6.4-2.8
		c2.4-0.8,5-1.3,7.5-1.5h2.1c2.8,0,5.6,0.4,8.3,1.1c2.4,0.7,4.8,1.6,7,2.8c3.8,2.1,7.3,4.7,10.4,7.7c1.2,1.2,2.4,2.2,3.7,3.2
		c1.4,1.5,3.1,2.7,5,3.7c0.6,0.2,1.3,0.4,1.9,0.4c0.1,0,0.2,0,0.3-0.1c0.2-0.1,0.4-0.1,0.6-0.1c2.3-0.4,4.7-2.6,9.1-6.6l0.6-0.5
		c3-2.8,6.2-5.2,9.7-7.3c2-1.2,4.2-2.1,6.4-2.8c2.4-0.8,5-1.3,7.5-1.5h2.1c0.6,0,1.2,0,1.7,0.2c0.5,0,0.9,0.1,1.4,0.3l0,0
		c0.1,0,0.2,0.1,0.3,0.1s0.1,0,0.2,0.1c9,1.6,15.5,6.8,20.2,11.1c1,0.8,1.9,1.6,2.7,2.3c1.2,1.1,2.5,2.2,3.8,3.1
		c0.3,0.2,0.6,0.4,0.9,0.5c0.5,0.3,0.9,0.6,1.4,0.8c0.6,0.2,1.3,0.4,1.9,0.4c0.1,0,0.2,0,0.3-0.1c0.2-0.1,0.4-0.1,0.6-0.1
		c2.3-0.4,4.7-2.6,9.1-6.6l0.6-0.5c3-2.8,6.2-5.2,9.7-7.3c2-1.2,4.2-2.1,6.4-2.8c2.4-0.8,5-1.3,7.5-1.5h2.1c2.8,0,5.6,0.4,8.3,1.1
		c2.4,0.7,4.8,1.6,7,2.8c3.8,2.1,7.3,4.7,10.4,7.7c1.2,1.2,2.4,2.2,3.7,3.2c1.4,1.5,3.1,2.7,5,3.7c0.6,0.2,1.3,0.4,1.9,0.4
		c0.1,0,0.2,0,0.3-0.1c0.2-0.1,0.4-0.1,0.6-0.1c2.3-0.4,4.7-2.6,9.1-6.6l0.6-0.5c3-2.8,6.2-5.2,9.7-7.3c2-1.2,4.2-2.1,6.4-2.8
		c2.4-0.8,5-1.3,7.5-1.5h2.1c0.6,0,1.2,0,1.7,0.2c0.5,0,0.9,0.1,1.4,0.3l0,0c0.1,0,0.2,0.1,0.3,0.1s0.1,0,0.2,0.1
		c9,1.6,15.5,6.8,20.2,11.1c1,0.8,1.9,1.6,2.7,2.3l0,0c1.2,1.1,2.5,2.1,3.8,3.1c0.3,0.2,0.6,0.4,0.9,0.5c0.5,0.3,0.9,0.6,1.4,0.8
		c0.6,0.2,1.3,0.4,1.9,0.4c0.1,0,0.2,0,0.3-0.1c0.2-0.1,0.4-0.1,0.6-0.1c2.3-0.4,4.7-2.6,9.1-6.6l0.6-0.5c3-2.8,6.2-5.2,9.7-7.3
		c2-1.2,4.2-2.1,6.4-2.8c2.4-0.8,5-1.3,7.5-1.5h2.1c2.8,0,5.6,0.4,8.3,1.1c2.4,0.7,4.8,1.6,7,2.8c3.8,2.1,7.3,4.7,10.4,7.7
		c1.2,1.2,2.4,2.2,3.7,3.2c1.4,1.5,3.1,2.7,5,3.7c0.6,0.2,1.3,0.4,1.9,0.4c0.1,0,0.2,0,0.3-0.1c0.2-0.1,0.4-0.1,0.6-0.1
		c2.3-0.4,4.7-2.6,9.1-6.6l0.6-0.5c3-2.8,6.2-5.2,9.7-7.3c2-1.2,4.2-2.1,6.4-2.8c2.4-0.8,5-1.3,7.5-1.5h2.1c0.6,0,1.2,0,1.7,0.2
		c0.5,0,0.9,0.1,1.4,0.3l0,0c0.1,0,0.2,0.1,0.3,0.1s0.1,0,0.2,0.1c9,1.6,15.5,6.8,20.2,11.1c1,0.8,1.9,1.6,2.7,2.3
		c1.2,1.1,2.5,2.2,3.8,3.1c0.3,0.2,0.6,0.3,0.9,0.5l0,0c0.5,0.3,0.9,0.6,1.4,0.8c0.6,0.2,1.3,0.4,1.9,0.4c0.1,0,0.2,0,0.3-0.1
		c0.2-0.1,0.4-0.1,0.6-0.1c2.3-0.4,4.7-2.6,9.1-6.6l0.6-0.5c3-2.8,6.2-5.2,9.7-7.3c2-1.2,4.2-2.1,6.4-2.8c2.4-0.8,5-1.3,7.5-1.5h2.1
		c2.8,0,5.6,0.4,8.3,1.1c2.4,0.7,4.8,1.6,7,2.8c3.8,2.1,7.3,4.7,10.4,7.7c1.2,1.2,2.4,2.2,3.7,3.2c1.4,1.5,3.1,2.7,5,3.7
		c0.6,0.2,1.3,0.4,1.9,0.4c0.1,0,0.2,0,0.3-0.1c0.2-0.1,0.4-0.1,0.6-0.1c2.3-0.4,4.7-2.6,9.1-6.6l0.5-0.5c3-2.8,6.2-5.2,9.7-7.3
		c2-1.2,4.2-2.1,6.4-2.8c2.4-0.8,5-1.3,7.5-1.5h2.1c0.6,0,1.2,0,1.7,0.2c0.5,0,0.9,0.1,1.4,0.3l0,0c0.1,0,0.2,0.1,0.3,0.1
		c0.1,0,0.1,0,0.2,0.1c9,1.6,15.5,6.8,20.2,11.1c1,0.8,1.9,1.6,2.6,2.3l0,0c1.2,1.1,2.5,2.1,3.8,3.1c0.3,0.2,0.6,0.4,0.9,0.5
		c0.5,0.3,0.9,0.6,1.4,0.8c0.6,0.2,1.3,0.4,1.9,0.4c0.1,0,0.2,0,0.3-0.1c0.2-0.1,0.4-0.1,0.6-0.1c2.3-0.4,4.7-2.6,9.1-6.6l0.6-0.5
		c3-2.8,6.2-5.2,9.7-7.3c2-1.2,4.2-2.1,6.4-2.8c2.4-0.8,5-1.3,7.5-1.5h2.1c2.8,0,5.6,0.4,8.3,1.1c2.4,0.7,4.8,1.6,7,2.8
		c3.8,2.1,7.3,4.7,10.4,7.7c1.2,1.2,2.4,2.2,3.7,3.2c1.4,1.5,3.1,2.7,5,3.7c0.6,0.2,1.3,0.4,1.9,0.4c0.1,0,0.2,0,0.3-0.1
		c0.2-0.1,0.4-0.1,0.6-0.1c2.3-0.4,4.7-2.6,9.1-6.6l0.6-0.5c3-2.8,6.2-5.2,9.7-7.3c2-1.2,4.2-2.1,6.4-2.8c2.4-0.8,5-1.3,7.5-1.5h2.1
		c0.6,0,1.2,0,1.7,0.2c0.5,0,0.9,0.1,1.4,0.3l0,0c0.1,0,0.2,0.1,0.3,0.1c0.1,0,0.1,0,0.2,0.1c9,1.6,15.5,6.8,20.2,11.1
		c1,0.8,1.9,1.6,2.7,2.3l0,0c1.2,1.1,2.5,2.1,3.8,3.1c0.3,0.2,0.6,0.3,0.9,0.5l0,0c0.5,0.3,0.9,0.6,1.4,0.8c0.6,0.2,1.3,0.4,1.9,0.4
		c0.1,0,0.2,0,0.3-0.1c0.2-0.1,0.4-0.1,0.6-0.1c2.3-0.4,4.7-2.6,9.1-6.6l0.6-0.5c3-2.8,6.2-5.2,9.7-7.3c2-1.2,4.2-2.1,6.4-2.8
		c2.4-0.8,5-1.3,7.5-1.5h2.1c2.8,0,5.6,0.4,8.3,1.1c2.4,0.7,4.8,1.6,7,2.8c3.8,2.1,7.3,4.7,10.4,7.7c1.2,1.2,2.4,2.2,3.7,3.2
		c1.4,1.5,3.1,2.7,5,3.7c0.6,0.2,1.3,0.4,1.9,0.4c0.1,0,0.2,0,0.3-0.1c0.2-0.1,0.4-0.1,0.6-0.1c2.3-0.4,4.7-2.6,9.1-6.6l0.6-0.5
		c3-2.8,6.2-5.2,9.7-7.3c2-1.2,4.2-2.1,6.4-2.8c2.4-0.8,5-1.3,7.5-1.5h2.1c0.6,0,1.2,0,1.7,0.2c0.5,0,0.9,0.1,1.4,0.3
		c0.1,0,0.2,0.1,0.3,0.1c0.1,0,0.1,0,0.2,0.1c9,1.6,15.5,6.8,20.2,11.1c1,0.8,1.9,1.6,2.7,2.3c1.2,1.1,2.5,2.1,3.8,3.1
		c0.3,0.2,0.6,0.4,0.9,0.5c0.5,0.3,0.9,0.6,1.4,0.8c0.6,0.2,1.3,0.4,1.9,0.4c0.1,0,0.2,0,0.3-0.1c0.2-0.1,0.4-0.1,0.6-0.1
		c2.3-0.4,4.7-2.6,9.1-6.6l0.6-0.5c3-2.8,6.2-5.2,9.7-7.3c2-1.2,4.2-2.1,6.4-2.8c2.4-0.8,5-1.3,7.5-1.5h2.1c2.8,0,5.6,0.4,8.3,1.1
		c2.4,0.7,4.8,1.6,7,2.8c3.8,2.1,7.3,4.7,10.4,7.7c1.2,1.2,2.4,2.2,3.7,3.2c1.4,1.5,3.1,2.7,5,3.7c0.6,0.2,1.3,0.4,1.9,0.4
		c0.1,0,0.2,0,0.3-0.1c0.2-0.1,0.4-0.1,0.6-0.1c2.3-0.4,4.7-2.6,9.1-6.6l0.6-0.5c3-2.8,6.2-5.2,9.7-7.3c2-1.2,4.2-2.1,6.4-2.8
		c2.4-0.8,5-1.3,7.5-1.5h2.1c0.6,0,1.2,0,1.7,0.2c0.5,0,0.9,0.1,1.4,0.3c0.1,0,0.2,0.1,0.3,0.1c0.4,0.1,0.7,0.3,1,0.6
		c0.1,0.1,0.3,0.2,0.5,0.3c0.5,0.3,0.9,0.7,1.3,1.1c0.8,0.8,1.5,1.8,1.9,2.8c1,2.4,0.8,5.1-0.5,7.3c-0.7,1.2-1.7,2.3-2.9,3.1
		c-0.3,0.3-0.7,0.5-1.1,0.7l0,0c-0.1,0.1-0.3,0.1-0.4,0.2c-1,0.4-2.1,0.6-3.2,0.6c-0.4,0-0.8,0-1.2,0.1c-0.3,0.1-0.6,0.1-0.9,0.1
		c-4.7,0.6-7.6,3.1-12.1,7.1c-0.4,0.4-0.9,0.8-1.3,1.2l0,0c-2.4,2.4-5.1,4.6-7.9,6.5C1564.3,34.4,1560.4,35.8,1556.5,36.1
		L1556.5,36.1z M120,36.1h-1.9c-3.7,0-7.3-0.9-10.5-2.5c-2.8-1.5-5.4-3.3-7.8-5.4c-1.5-1.5-2.8-2.8-4.1-3.9c-2-2-4.3-3.8-6.7-5.3
		c-2.2-1.3-4.8-1.9-7.3-1.8c-0.4,0-0.8,0-1.2,0.1c-0.3,0.1-0.6,0.1-0.9,0.1c-4.7,0.6-7.6,3.1-12.1,7.1c-0.5,0.4-0.9,0.8-1.4,1.3
		c-2.4,2.4-5.1,4.6-7.9,6.5c-3.3,2.2-7.2,3.5-11.1,3.9h-1.9c-4.4,0-8.7-1.2-12.5-3.5c-3.1-2-6-4.3-8.7-6.9c-0.4-0.4-0.8-0.8-1.2-1.1
		c-2-2-4.3-3.8-6.7-5.3c-2.2-1.3-4.8-1.9-7.3-1.8c-0.1,0-0.2,0-0.4,0c-2.4,0-4.7-1.1-6.3-2.8C0.7,13.2-0.1,11.3,0,9.3
		c-0.1-2.2,0.6-4.3,2.1-6c1.5-1.8,3.7-2.9,6.1-3.1H9c2.8,0,5.6,0.4,8.3,1.1c2.4,0.7,4.8,1.6,7,2.8c3.8,2.1,7.3,4.7,10.4,7.7
		c1,0.8,1.9,1.6,2.7,2.3c1.2,1.1,2.5,2.2,3.8,3.1c0.3,0.2,0.6,0.4,0.9,0.5c0.5,0.3,0.9,0.6,1.4,0.8c0.6,0.2,1.3,0.4,1.9,0.4
		c0.1,0,0.2,0,0.3-0.1c0.2-0.1,0.4-0.1,0.6-0.1c2.3-0.4,4.7-2.6,9.1-6.6l0.6-0.5c3-2.8,6.2-5.2,9.7-7.3c2-1.2,4.2-2.1,6.4-2.8
		c2.4-0.8,5-1.3,7.5-1.5H82c2.8,0,5.6,0.4,8.3,1.1c2.4,0.7,4.8,1.6,7,2.8c3.8,2.1,7.3,4.7,10.4,7.7c1.2,1.2,2.4,2.2,3.7,3.2
		c1.4,1.5,3.1,2.7,5,3.7c0.6,0.2,1.3,0.4,1.9,0.4c0.1,0,0.2,0,0.3-0.1c0.2-0.1,0.4-0.1,0.6-0.1c2.3-0.4,4.7-2.6,9.1-6.6l0.6-0.5
		c3-2.8,6.2-5.2,9.7-7.3c2-1.2,4.2-2.1,6.4-2.8c2.4-0.8,5-1.3,7.5-1.5h2.1c0.6,0,1.2,0,1.7,0.2c0.5,0,0.9,0.1,1.4,0.3
		c0.1,0,0.2,0.1,0.3,0.1s0.1,0,0.2,0.1c-1.8-0.3-3.7-0.5-5.6-0.5h-0.8c-2.4,0.2-4.6,1.3-6.1,3.1c-1.5,1.6-2.2,3.8-2.1,5.9
		c-0.1,2,0.7,3.9,2.1,5.4c1.6,1.8,3.9,2.8,6.3,2.8c0.1,0,0.2,0,0.4,0h0.1c-4.7,0.6-7.6,3.1-12.1,7.1c-0.4,0.4-0.9,0.8-1.3,1.2
		l-0.1,0.1c-2.4,2.4-5.1,4.6-7.9,6.5C127.8,34.4,124,35.8,120,36.1L120,36.1z"/>
</g>
</svg>
