<?xml version="1.0" encoding="utf-8"?>
<!-- Generator: Adobe Illustrator 24.2.3, SVG Export Plug-In . SVG Version: 6.00 Build 0)  -->
<svg version="1.1" id="Ebene_1" xmlns="http://www.w3.org/2000/svg" xmlns:xlink="http://www.w3.org/1999/xlink" x="0px" y="0px"
	 viewBox="0 0 297.7 60" style="enable-background:new 0 0 297.7 60;" xml:space="preserve">
<style type="text/css">
	.st0{fill:#FFFFFF;}
	.st1{enable-background:new    ;}
</style>
<g id="Rectangle_1_Google_Play_Icon_Imported_Layers_Imported_Layers_App_Store">
	<path id="Imported_Layers" class="st0" d="M35.9,58.4c-1.5,0-2.9-0.4-4.2-1.1C29.9,56.4,28,55.9,26,56c-2,0-3.9,0.5-5.7,1.3
		c-1.3,0.7-2.8,1-4.3,1.1c-3.3,0-7.2-3.4-10.6-9.1C2.1,43.8,0.2,37.4,0,31c-0.2-5.1,1.7-10.1,5.3-13.8c2.5-2.5,5.9-4,9.5-4.2
		c2.2,0,4.3,0.6,6.2,1.6c1.5,0.8,3.2,1.3,4.9,1.4c1.5-0.1,3.1-0.5,4.4-1.3c2.1-1,4.3-1.6,6.7-1.7c3,0.1,5.9,1.2,8.1,3.3
		c1.1,1,2.1,2.1,3,3.3c-1.2,0.7-2.4,1.7-3.3,2.8c-2.1,2.4-3.3,5.4-3.3,8.6c-0.1,3.6,1.4,7.1,4.1,9.4c1.2,1.1,2.6,1.9,4.1,2.5l0,0
		c-1.2,2.7-2.6,5.3-4.2,7.7C43.2,54.2,39.7,58.4,35.9,58.4z M24.6,13.8L24.6,13.8h-0.3c-0.4-3.2,0.5-6.3,2.6-8.8
		c2.2-2.8,5.4-4.6,8.9-5c0.4,3.5-0.8,7-3.1,9.7C30.7,12.2,27.8,13.7,24.6,13.8z"/>
	<g class="st1">
		<path class="st0" d="M92,14.3l14,35.8h-5.3l-3.9-10.8H81.7l-4,10.8h-4.9l13.9-35.8C86.7,14.3,92,14.3,92,14.3z M95.3,35.3l-6-16.7
			h-0.1l-6.1,16.7H95.3z"/>
		<path class="st0" d="M113.2,24.2v3.5h0.1c0.7-1.4,1.8-2.5,3.3-3.1c1.5-0.7,3.2-1,5-1c2,0,3.8,0.4,5.2,1.1c1.5,0.7,2.7,1.7,3.7,3
			s1.7,2.7,2.2,4.3s0.8,3.4,0.8,5.2s-0.2,3.6-0.7,5.2c-0.5,1.6-1.2,3.1-2.2,4.3s-2.2,2.2-3.7,2.9s-3.2,1.1-5.2,1.1
			c-0.6,0-1.3-0.1-2.1-0.2c-0.8-0.1-1.6-0.4-2.3-0.7c-0.8-0.3-1.5-0.7-2.2-1.2s-1.3-1.2-1.7-1.9h-0.1V60H109V24.2H113.2z
			 M128.5,33.4c-0.3-1.2-0.8-2.2-1.5-3.1s-1.5-1.6-2.5-2.2c-1-0.5-2.2-0.8-3.6-0.8s-2.7,0.3-3.7,0.9s-1.8,1.3-2.5,2.2
			c-0.6,0.9-1.1,2-1.4,3.1c-0.3,1.2-0.4,2.4-0.4,3.6c0,1.3,0.2,2.5,0.5,3.7s0.8,2.2,1.4,3.1c0.7,0.9,1.5,1.6,2.5,2.2
			c1,0.6,2.3,0.8,3.8,0.8s2.7-0.3,3.7-0.9c1-0.6,1.8-1.3,2.4-2.3c0.6-0.9,1-2,1.3-3.2c0.3-1.2,0.4-2.4,0.4-3.7
			C129,35.7,128.8,34.6,128.5,33.4z"/>
		<path class="st0" d="M142.9,24.2v3.5h0.1c0.7-1.4,1.8-2.5,3.3-3.1c1.5-0.7,3.2-1,5-1c2,0,3.8,0.4,5.2,1.1c1.5,0.7,2.7,1.7,3.7,3
			s1.7,2.7,2.2,4.3s0.8,3.4,0.8,5.2s-0.2,3.6-0.7,5.2c-0.5,1.6-1.2,3.1-2.2,4.3s-2.2,2.2-3.7,2.9s-3.2,1.1-5.2,1.1
			c-0.6,0-1.3-0.1-2.1-0.2c-0.8-0.1-1.6-0.4-2.3-0.7c-0.8-0.3-1.5-0.7-2.2-1.2s-1.3-1.2-1.7-1.9H143V60h-4.3V24.2H142.9z
			 M158.3,33.4c-0.3-1.2-0.8-2.2-1.5-3.1s-1.5-1.6-2.5-2.2c-1-0.5-2.2-0.8-3.6-0.8c-1.4,0-2.7,0.3-3.7,0.9s-1.8,1.3-2.5,2.2
			c-0.6,0.9-1.1,2-1.4,3.1c-0.3,1.2-0.4,2.4-0.4,3.6c0,1.3,0.2,2.5,0.5,3.7s0.8,2.2,1.4,3.1c0.7,0.9,1.5,1.6,2.5,2.2
			c1,0.6,2.3,0.8,3.8,0.8s2.7-0.3,3.7-0.9c1-0.6,1.8-1.3,2.4-2.3c0.6-0.9,1-2,1.3-3.2s0.4-2.4,0.4-3.7
			C158.7,35.7,158.6,34.6,158.3,33.4z"/>
		<path class="st0" d="M200.8,19.2c-1.6-1.2-3.6-1.7-6.1-1.7c-1,0-2,0.1-3,0.3c-1,0.2-1.8,0.5-2.6,1s-1.4,1.1-1.8,1.9
			s-0.7,1.8-0.7,2.9s0.3,2,1,2.7s1.5,1.2,2.6,1.7c1.1,0.4,2.3,0.8,3.7,1.1c1.4,0.3,2.8,0.6,4.2,0.9s2.8,0.7,4.2,1.2s2.6,1.1,3.7,1.8
			c1.1,0.8,2,1.7,2.6,2.9c0.7,1.2,1,2.6,1,4.4c0,1.9-0.4,3.5-1.3,4.9c-0.9,1.4-1.9,2.5-3.3,3.3c-1.3,0.9-2.8,1.5-4.5,1.9
			s-3.3,0.6-4.9,0.6c-2,0-3.9-0.3-5.7-0.8s-3.4-1.3-4.7-2.3c-1.4-1-2.4-2.3-3.2-3.9c-0.8-1.6-1.2-3.5-1.2-5.6h4.5
			c0,1.5,0.3,2.8,0.9,3.9c0.6,1.1,1.4,2,2.3,2.7s2.1,1.2,3.3,1.6c1.3,0.3,2.6,0.5,3.9,0.5c1.1,0,2.1-0.1,3.2-0.3
			c1.1-0.2,2.1-0.5,2.9-1c0.9-0.5,1.6-1.1,2.1-2c0.5-0.8,0.8-1.9,0.8-3.2c0-1.2-0.3-2.2-1-3s-1.5-1.4-2.6-1.9s-2.3-0.9-3.7-1.2
			s-2.8-0.6-4.2-0.9c-1.4-0.3-2.8-0.7-4.2-1.1c-1.4-0.4-2.6-1-3.7-1.7c-1.1-0.7-2-1.6-2.6-2.7c-0.7-1.1-1-2.4-1-4.1
			c0-1.8,0.4-3.4,1.1-4.7c0.7-1.3,1.7-2.4,2.9-3.3s2.6-1.5,4.2-1.9c1.6-0.4,3.1-0.6,4.8-0.6c1.8,0,3.5,0.2,5.1,0.7
			c1.6,0.4,2.9,1.1,4.1,2.1c1.2,0.9,2.1,2.1,2.8,3.5s1.1,3.1,1.1,5.1h-4.5C203.3,22.2,202.4,20.4,200.8,19.2z"/>
		<path class="st0" d="M225.7,24.2V28h-5.2v16.1c0,0.5,0,0.9,0.1,1.2s0.2,0.5,0.5,0.7c0.2,0.2,0.6,0.3,1,0.3s1,0.1,1.6,0.1h2v3.8
			h-3.3c-1.1,0-2-0.1-2.8-0.2c-0.8-0.2-1.4-0.4-1.9-0.8c-0.5-0.4-0.8-1-1.1-1.7c-0.2-0.7-0.4-1.7-0.4-2.9V28h-4.4v-3.8h4.4v-7.8h4.3
			v7.8H225.7z"/>
		<path class="st0" d="M229.9,31.9c0.5-1.7,1.3-3.1,2.4-4.3c1.1-1.2,2.4-2.2,4-2.9c1.6-0.7,3.4-1.1,5.4-1.1c2.1,0,3.9,0.4,5.4,1.1
			c1.6,0.7,2.9,1.7,3.9,2.9c1.1,1.2,1.9,2.7,2.4,4.3c0.5,1.7,0.8,3.4,0.8,5.3s-0.3,3.7-0.8,5.3s-1.3,3.1-2.4,4.3
			c-1.1,1.2-2.4,2.2-3.9,2.9c-1.6,0.7-3.4,1-5.4,1s-3.8-0.3-5.4-1c-1.6-0.7-2.9-1.6-4-2.9c-1.1-1.2-1.9-2.6-2.4-4.3
			c-0.5-1.6-0.8-3.4-0.8-5.3S229.3,33.5,229.9,31.9z M234.2,41.4c0.4,1.2,1,2.2,1.7,3.1c0.7,0.8,1.6,1.4,2.6,1.9
			c1,0.4,2,0.7,3.1,0.7s2.1-0.2,3.1-0.7c1-0.4,1.8-1.1,2.6-1.9c0.7-0.8,1.3-1.8,1.7-3.1c0.4-1.2,0.6-2.6,0.6-4.2
			c0-1.6-0.2-3-0.6-4.2c-0.4-1.2-1-2.2-1.7-3.1c-0.7-0.8-1.6-1.5-2.6-1.9s-2-0.7-3.1-0.7s-2.1,0.2-3.1,0.7c-1,0.4-1.8,1.1-2.6,1.9
			c-0.7,0.8-1.3,1.9-1.7,3.1s-0.6,2.6-0.6,4.2C233.6,38.8,233.8,40.2,234.2,41.4z"/>
		<path class="st0" d="M263.1,24.2v5.5h0.1c1-2.1,2.3-3.7,3.8-4.7s3.4-1.5,5.7-1.4v4.5c-1.7,0-3.2,0.2-4.4,0.7
			c-1.2,0.5-2.2,1.2-2.9,2.1c-0.7,0.9-1.3,2-1.6,3.3c-0.3,1.3-0.5,2.8-0.5,4.4v11.5H259V24.2H263.1z"/>
		<path class="st0" d="M293.4,48.5c-1.9,1.5-4.4,2.2-7.3,2.2c-2.1,0-3.9-0.3-5.4-1s-2.8-1.6-3.8-2.8s-1.8-2.6-2.3-4.3
			s-0.8-3.5-0.9-5.5c0-2,0.3-3.8,0.9-5.4s1.4-3.1,2.5-4.3s2.4-2.1,3.9-2.8c1.5-0.7,3.1-1,4.9-1c2.3,0,4.2,0.5,5.7,1.4
			c1.5,1,2.7,2.2,3.7,3.6c0.9,1.5,1.6,3.1,1.9,4.8c0.4,1.7,0.5,3.4,0.4,5h-19.4c0,1.1,0.1,2.2,0.4,3.2s0.8,1.9,1.5,2.7
			s1.5,1.4,2.6,1.9c1,0.5,2.3,0.7,3.7,0.7c1.8,0,3.3-0.4,4.4-1.3c1.2-0.8,1.9-2.1,2.3-3.8h4.2C296.6,44.8,295.3,47,293.4,48.5z
			 M292.3,31.8c-0.4-0.9-0.9-1.7-1.6-2.3c-0.7-0.7-1.4-1.2-2.3-1.6s-1.9-0.6-2.9-0.6c-1.1,0-2.1,0.2-3,0.6s-1.6,0.9-2.3,1.6
			c-0.6,0.7-1.1,1.4-1.5,2.3c-0.4,0.9-0.6,1.8-0.7,2.8h15C292.9,33.7,292.7,32.7,292.3,31.8z"/>
	</g>
</g>
</svg>
