<?xml version="1.0" encoding="utf-8"?>
<!-- Generator: Adobe Illustrator 24.2.1, SVG Export Plug-In . SVG Version: 6.00 Build 0)  -->
<svg version="1.1" id="Ebene_2_1_" xmlns="http://www.w3.org/2000/svg" xmlns:xlink="http://www.w3.org/1999/xlink" x="0px" y="0px"
	 viewBox="0 0 1599.9 141.2" style="enable-background:new 0 0 1599.9 141.2;" xml:space="preserve">
<style type="text/css">
	.st0{fill:#3949AB;}
</style>
<path class="st0" d="M1594.6,1.4c-5-2.9-11.4-1.1-14.2,4L1531,85.8l-18.6-24.2c-0.8-1.1-1.8-2-3-2.8c-4.8-3-11.1-1.4-14.1,3.5
	L1474,98l-9.8-12.9c-0.8-1.1-1.8-1.9-2.9-2.6c-4.9-3.1-11.5-1.6-14.6,3.4l-15.1,25l-15.1-25c-0.7-1.2-1.6-2.2-2.6-2.9
	c-4.7-3.5-11.4-2.5-14.8,2.2l-9.8,12.9l-21.2-35.7c-0.7-1.2-1.7-2.2-2.8-3c-4.5-3.4-11-2.3-14.4,2.3l-18.6,24.2L1283,5.4
	c-0.8-1.3-2-2.5-3.4-3.4c-5.1-3.2-11.9-1.8-15.1,3.4l-49.3,80.5l-18.6-24.2c-0.8-1.1-1.8-2-3-2.8c-4.8-3-11.1-1.4-14.1,3.5
	l-21.3,35.7l-9.8-12.9c-0.8-1.1-1.8-1.9-2.9-2.6c-5-3.1-11.6-1.6-14.7,3.4l-15.1,25l-15.1-25c-0.7-1.2-1.6-2.2-2.6-2.9
	c-4.7-3.5-11.4-2.5-14.8,2.2l-9.8,12.9l-21.3-35.7c-0.7-1.2-1.7-2.2-2.8-3c-4.5-3.4-11-2.3-14.4,2.3L1016.3,86L967.1,5.4
	c-0.8-1.3-2-2.5-3.4-3.4c-5.1-3.2-11.9-1.8-15.1,3.4l-49.3,80.5l-18.6-24.2c-0.8-1.1-1.8-2-3-2.8c-4.8-3-11.1-1.4-14.1,3.5
	l-21.2,35.7l-9.8-12.9c-0.8-1.1-1.8-1.9-2.9-2.6c-5-3.1-11.6-1.6-14.7,3.4l-15.1,25l-15.1-25c-0.7-1.2-1.6-2.2-2.6-2.9
	c-4.7-3.5-11.4-2.5-14.8,2.2l-9.8,12.9l-21.3-35.7c-0.7-1.2-1.7-2.2-2.8-3c-4.5-3.4-11-2.3-14.4,2.3L700.5,86L651.3,5.4
	c-0.8-1.3-2-2.5-3.4-3.4c-5.1-3.2-11.9-1.8-15.1,3.4l-49.3,80.5l-18.4-24.2c-0.8-1.1-1.8-2-3-2.8c-4.8-3-11.1-1.4-14.1,3.5
	l-21.3,35.7l-9.8-12.9c-0.8-1.1-1.8-1.9-2.9-2.6c-5-3.1-11.6-1.6-14.7,3.4l-15.1,25l-15.1-25c-0.7-1.2-1.6-2.2-2.6-2.9
	c-4.7-3.5-11.4-2.5-14.8,2.2l-9.8,12.9l-21.3-35.7c-0.7-1.2-1.7-2.2-2.8-3c-4.5-3.4-11-2.3-14.4,2.3L384.8,86L335.6,5.4
	c-0.8-1.3-2-2.5-3.4-3.4c-5.1-3.2-11.9-1.8-15.1,3.4l-49.3,80.5l-18.6-24.2c-0.8-1.1-1.8-2-3-2.8c-4.8-3-11.1-1.4-14.1,3.5
	l-21.3,35.7l-9.8-13c-0.8-1.1-1.8-1.9-2.9-2.6c-5-3.1-11.6-1.6-14.7,3.4l-15.1,25l-15.1-25c-0.7-1.2-1.6-2.2-2.6-2.9
	c-4.7-3.5-11.4-2.5-14.8,2.2L126,98.1l-21.2-35.7c-0.7-1.2-1.7-2.2-2.8-3c-4.5-3.4-11-2.3-14.4,2.3L69.1,85.8L19.7,5.4
	c-0.4-0.6-0.8-1.1-1.2-1.6c-3.2-3.9-9-5-13.5-2.3c0,0.1-0.1,0.1-0.1,0.1c-4.9,3-6.3,9.5-3.4,14.2l57.6,94.3c0.7,1,1.6,1.9,2.5,2.6
	c4.7,3.5,11.3,2.5,14.7-2l18.6-24.2l21.3,36c0.7,1.2,1.6,2.2,2.6,2.9c4.7,3.5,11.4,2.5,14.8-2.2l9.8-13.3l15.6,26.2
	c1.1,1.7,2.5,3,4.3,3.8c1.6,0.7,3.1,1.1,4.8,1.1s3.4-0.4,4.8-1.1c1.8-1,3.2-2.2,4.3-3.8l15.8-26.2l9.8,13.2c0.8,1.1,1.8,1.9,2.9,2.6
	c5,3.1,11.6,1.6,14.7-3.4l21.3-36l18.6,24.2c0.7,1,1.6,1.8,2.6,2.5c4.9,3.2,11.4,1.8,14.5-3.1l48.7-79.6l48.7,79.7
	c0.7,1,1.6,1.9,2.5,2.6c4.7,3.5,11.3,2.5,14.7-2l18.6-24.2l21.3,36c0.7,1.2,1.6,2.2,2.6,2.9c4.7,3.5,11.4,2.5,14.8-2.2l9.8-13.3
	l15.6,26.2c1.1,1.7,2.5,3,4.3,3.8c1.6,0.7,3.1,1.1,4.8,1.1c1.7,0,3.4-0.4,4.8-1.1c1.7-1,3.2-2.2,4.3-3.8l15.8-26.2l9.8,13.2
	c0.8,1.1,1.8,1.9,2.9,2.6c5,3.1,11.6,1.6,14.7-3.4l21.3-36l18.6,24.2c0.7,1,1.6,1.8,2.6,2.5c4.9,3.2,11.4,1.8,14.5-3.1l48.7-79.6
	l48.7,79.7c0.7,1,1.6,1.9,2.5,2.6c4.7,3.5,11.3,2.5,14.7-2l18.6-24.2l21.3,36c0.7,1.2,1.6,2.2,2.6,2.9c4.7,3.5,11.4,2.5,14.8-2.2
	l9.8-13.3l15.6,26.2c1.1,1.7,2.5,3,4.3,3.8c1.6,0.7,3.1,1.1,4.8,1.1s3.4-0.4,4.8-1.1c1.8-1,3.2-2.2,4.3-3.8l15.8-26.2l9.8,13.2
	c0.8,1.1,1.8,1.9,2.9,2.6c5,3.1,11.6,1.6,14.7-3.4l21.3-36l18.6,24.2c0.7,1,1.6,1.8,2.6,2.5c4.9,3.2,11.4,1.8,14.5-3.1l48.7-79.6
	l48.7,79.7c0.7,1,1.6,1.9,2.5,2.6c4.7,3.5,11.3,2.5,14.7-2l18.6-24.2l21.3,36c0.7,1.2,1.6,2.2,2.6,2.9c4.7,3.5,11.4,2.5,14.8-2.2
	l9.8-13.3l15.6,26.1c1.1,1.7,2.5,3,4.3,3.8c1.6,0.7,3.1,1.1,4.8,1.1s3.4-0.4,4.8-1.1c1.8-1,3.2-2.2,4.3-3.8l15.8-26.2l9.8,13.3
	c0.8,1.1,1.8,1.9,2.9,2.6c5,3.1,11.6,1.6,14.7-3.4l21.3-36l18.6,24.2c0.7,1,1.6,1.8,2.6,2.5c4.9,3.2,11.4,1.8,14.5-3.1l48.6-79.6
	l48.7,79.7c0.7,1,1.6,1.9,2.5,2.6c4.7,3.5,11.3,2.5,14.7-2l18.6-24.2l21.4,36c0.7,1.2,1.6,2.2,2.6,2.9c4.7,3.5,11.4,2.5,14.8-2.2
	l9.8-13.3l15.7,26.2c1.1,1.7,2.5,3,4.3,3.8c1.6,0.7,3.1,1.1,4.8,1.1c1.7,0,3.2-0.4,4.7-1.2c1.8-1,3.2-2.2,4.3-3.8l15.8-26.2
	l9.8,13.3c0.8,1.1,1.8,1.9,2.9,2.6c5,3.1,11.6,1.6,14.7-3.4l21.3-36l18.6,24.2c0.7,1,1.6,1.8,2.6,2.5c4.9,3.2,11.4,1.8,14.5-3.1
	l57.3-93.9c0.1-0.1,0.2-0.2,0.4-0.5C1601.4,10.7,1599.7,4.3,1594.6,1.4z"/>
</svg>
