<?xml version="1.0" encoding="utf-8"?>
<!-- Generator: Adobe Illustrator 24.2.1, SVG Export Plug-In . SVG Version: 6.00 Build 0)  -->
<svg version="1.1" id="Ebene_1" xmlns="http://www.w3.org/2000/svg" xmlns:xlink="http://www.w3.org/1999/xlink" x="0px" y="0px"
	 viewBox="0 0 295.8 57.2" style="enable-background:new 0 0 295.8 57.2;" xml:space="preserve">
<style type="text/css">
	.st0{fill:url(#Fill_1-2_1_);}
	.st1{fill:url(#Fill_2_1_);}
	.st2{fill:url(#Fill_3-2_1_);}
	.st3{fill:url(#Fill_4-2_1_);}
	.st4{fill:#FFFFFF;}
</style>
<g id="Rectangle_1_Google_Play_Icon_Imported_Layers_Fill_1">
	<g id="Rectangle_1_Google_Play_Icon_Imported_Layers">
		<g id="Google_Play_Icon" transform="translate(10 11)">
			
				<linearGradient id="Fill_1-2_1_" gradientUnits="userSpaceOnUse" x1="-21.0061" y1="126.5703" x2="-19.9841" y2="123.9449" gradientTransform="matrix(18.412 0 0 -13.9733 386.9407 1747.2156)">
				<stop  offset="0" style="stop-color:#19A3B4"/>
				<stop  offset="0.348" style="stop-color:#5BC3AF"/>
				<stop  offset="0.922" style="stop-color:#C8F7A6"/>
				<stop  offset="1" style="stop-color:#D7FEA5"/>
			</linearGradient>
			<path id="Fill_1-2" class="st0" d="M29.3,8.6L-5.6-10.5c-0.8-0.5-1.7-0.7-2.7-0.4l28.6,28.4L29.3,8.6"/>
			
				<linearGradient id="Fill_2_1_" gradientUnits="userSpaceOnUse" x1="-13.9839" y1="117.0668" x2="-12.1582" y2="112.4056" gradientTransform="matrix(11.1457 0 0 -8.749 173.0623 1012.368)">
				<stop  offset="0" style="stop-color:#FC227C"/>
				<stop  offset="1" style="stop-color:#FEEB7B"/>
			</linearGradient>
			<path id="Fill_2" class="st1" d="M29.4,26.4l11.9-6.5c2.4-1.3,2.4-3.5,0-4.8l-12-6.5l-9,8.9L29.4,26.4"/>
			
				<linearGradient id="Fill_3-2_1_" gradientUnits="userSpaceOnUse" x1="-18.5276" y1="134.4586" x2="-18.1196" y2="132.4657" gradientTransform="matrix(14.8869 0 0 -27.878 275.5079 3728.6858)">
				<stop  offset="0" style="stop-color:#0E4DA0"/>
				<stop  offset="1" style="stop-color:#6BFED4"/>
			</linearGradient>
			<path id="Fill_3-2" class="st2" d="M-8.2-10.9c-1.2,0.5-1.9,1.7-1.8,3V43c-0.2,1.3,0.5,2.5,1.7,3l28.6-28.5L-8.2-10.9"/>
			
				<linearGradient id="Fill_4-2_1_" gradientUnits="userSpaceOnUse" x1="-19.1866" y1="124.9466" x2="-21.761" y2="122.7068" gradientTransform="matrix(18.455 0 0 -14.0051 388.2653 1765.7258)">
				<stop  offset="0" style="stop-color:#FC472E"/>
				<stop  offset="3.000000e-03" style="stop-color:#FC472F"/>
				<stop  offset="1" style="stop-color:#893CD8"/>
			</linearGradient>
			<path id="Fill_4-2" class="st3" d="M-8.3,46c0.9,0.2,1.9,0.1,2.7-0.4l35-19.1l-9-8.9L-8.3,46"/>
		</g>
	</g>
	<path id="Fill_1-3" class="st4" d="M164.8,57.2c-7.3,0-10.5-3.6-10.5-7.1c0.1-2.5,1.5-4.8,3.8-6c2.9-1.5,6-2.2,9.3-2.3h0.1
		l-0.1-0.1c-0.8-0.9-1.3-2-1.4-3.2c0-0.6,0.1-1.2,0.4-1.7l0.1-0.2h0c-0.5,0-1,0.1-1.5,0.1c-4.3,0.2-7.9-3.1-8.1-7.4
		c0-0.1,0-0.2,0-0.3c0.1-2.6,1.2-5,3.1-6.6c2.5-1.9,5.6-2.9,8.8-2.7h10.1l-3.1,1.8h-3h0c2.1,1.6,3.4,4,3.5,6.7
		c-0.1,2.9-1.6,5.6-4.1,7l-0.1,0.1c-0.7,0.6-1.2,1.4-1.3,2.3c0.1,0.9,0.5,1.6,1.2,2.1l0,0l1.8,1.4c2.1,1.8,4.1,3.5,4.1,6.9
		c-0.1,2.5-1.3,4.9-3.3,6.4C171.7,56.3,168.3,57.3,164.8,57.2z M168,43.2c-1.7,0-3.5,0.3-5.1,0.8c-2.4,0.6-4.1,2.7-4.2,5.1
		c0,1.7,0.9,3.4,2.3,4.3c1.9,1.2,4.1,1.8,6.3,1.7c1.9,0.1,3.8-0.4,5.4-1.5c1.2-0.9,1.9-2.3,1.8-3.8c0-2.6-1.7-3.9-5.3-6.5
		C168.7,43.2,168.4,43.2,168,43.2z M165.6,21.1c-1.3,0-2.6,0.6-3.4,1.6c-0.8,1.1-1.1,2.4-1.1,3.7c0,3.1,1.8,8.8,6.1,8.8
		c1.2,0,2.4-0.5,3.3-1.4c0.9-1,1.3-2.3,1.2-3.6C171.7,26.5,169.6,21.1,165.6,21.1z M278,52c-0.8,0-1.7-0.1-2.5-0.3l0.4-2.3
		c0.6,0.2,1.3,0.4,2,0.4c1.4,0,2.5-0.5,3.5-2.8l1.8-4.1l-9.8-23.4h2.8l8.4,20.3l8.3-20.3h2.8l-11.9,28.3C283.1,50.2,280.7,52,278,52
		z M224.1,51.4h-2.5V19.3h2.5v3.7c1.8-2.6,4.8-4.2,8-4.2c2.8-0.1,5.6,1.1,7.4,3.3c2,2.5,3,5.7,2.8,8.9c0.1,3.2-0.9,6.4-2.8,8.9
		c-1.8,2.2-4.6,3.4-7.4,3.3c-3.2,0-6.2-1.7-8-4.3L224.1,51.4L224.1,51.4z M231.7,21c-3.1,0.3-6,2-7.6,4.7V36
		c1.6,2.7,4.4,4.5,7.6,4.8c2.3,0.1,4.5-1,5.9-2.9c1.5-2.1,2.2-4.6,2.1-7.1c0.1-2.5-0.6-5-2.1-7.1C236.2,22,234,20.9,231.7,21z
		 M87,43.1c-5.1,0.2-10.1-1.8-13.5-5.6c-2.6-3.1-4-7.1-4-11.2c0-4.5,1.7-8.8,4.9-12C78.1,10.7,83,8.8,88.1,9c2.4,0,4.7,0.3,7,1
		c2.1,0.6,4.1,1.5,5.9,2.8l0.1,0.1l-3.8,3.7l-1.6,0.4l1.1-1.8l0,0c-2.5-2.8-6.1-4.4-9.8-4.4c-3.4,0-6.7,1.3-9.1,3.8
		c-2.4,2.7-3.7,6.3-3.6,9.9c0,4.3,1.5,8.5,4.4,11.7c3,3.4,7.3,5.3,11.9,5.2c2,0.1,4-0.3,5.8-1.2v-7.5L89.5,33l3.7-2h9.7l-1.2,1.2
		c-0.2,0.2-0.4,0.4-0.5,0.7c0,0.4-0.1,1.8-0.1,2.2v5.6l-6.6,1.5C92.1,42.8,89.6,43.1,87,43.1z M259.7,42.9c-2,0.1-4-0.5-5.6-1.8
		c-1.4-1.3-2.1-3.1-2-4.9c0-2.1,1.1-4,2.9-5.1c2.3-1.4,4.9-2.1,7.5-1.9h5.8v-2.9c0.1-1.5-0.6-2.9-1.7-3.9c-1.4-1-3-1.5-4.7-1.4
		c-1.6-0.1-3.2,0.4-4.5,1.3c-1.1,0.7-1.7,2-1.7,3.3h-2.5l-0.1-0.1c0-1.8,0.9-3.6,2.4-4.6c1.9-1.4,4.2-2.1,6.6-2
		c2.3-0.1,4.6,0.6,6.5,2c1.7,1.4,2.6,3.5,2.5,5.6v11.5c0,0.8,0,1.6,0.1,2.4c0.1,0.8,0.3,1.5,0.5,2.3h-2.9c-0.2-0.8-0.3-1.5-0.4-2.1
		c-0.1-0.6-0.1-1.2-0.1-1.8C266.3,41.3,263.1,42.9,259.7,42.9L259.7,42.9z M262.5,31.1c-1.9-0.1-3.9,0.4-5.5,1.5
		c-1.3,0.7-2.1,2.1-2.2,3.6c0,1.2,0.5,2.4,1.4,3.2c1.1,0.9,2.4,1.3,3.8,1.2c1.8,0,3.6-0.4,5.2-1.4c1.4-0.8,2.5-2.1,3.1-3.6v-4.5
		H262.5z M201.3,42.6c-2.3,0.1-4.6-0.6-6.5-1.9c-3.2-2.5-5.1-6.4-5-10.4c-0.1-3.3,1.3-6.4,3.7-8.6c2.1-1.8,4.7-2.8,7.5-2.8
		c1.8,0,3.5,0.5,5,1.4c1.7,1.1,2.9,2.9,3.4,4.9l0,0L198,29.8l-3.8,0.3c0.5,2.8,1.8,5.3,3.8,7.3c1.7,1.7,4,2.6,6.3,2.6
		c2,0,3.9-0.6,5.6-1.6c0,0,0.1,0,0.2-0.1c0,0,0,0,0,0c0,0,0,0.1-0.1,0.1l-2.3,2.2c-0.2,0.1-0.4,0.2-0.5,0.3
		c-0.4,0.2-0.7,0.4-1.1,0.6C204.6,42.3,202.9,42.7,201.3,42.6z M199.6,20.4c-2.3,0-5.6,1.8-5.6,6.9c0,0.5,0,1.1,0.1,1.7
		c0,0.3,0,0.6,0.1,0.9l8.9-3.9c0.9-0.3,1.4-0.6,1.4-1.3C204.2,22.3,202.1,20.4,199.6,20.4z M142.2,42.5c-3.4,0.1-6.6-1.3-8.9-3.8
		c-2-2.2-3-5-3.1-7.9c0-3.2,1.3-6.2,3.5-8.4c2.5-2.4,5.7-3.6,9.1-3.6c3.2-0.1,6.3,1.3,8.5,3.6c2,2.2,3.1,5.1,3.2,8.1
		c0,6.6-5.4,12-12,12C142.5,42.5,142.4,42.5,142.2,42.5L142.2,42.5z M141.7,20.3c-1.6,0-3.2,0.6-4.4,1.7c-1.6,1.6-2.4,3.8-2.2,6
		c0,2.9,0.7,5.7,1.9,8.3c1.1,2.6,3.5,4.5,6.4,4.6c2,0,3.8-0.9,5-2.5c1.1-1.6,1.6-3.5,1.5-5.5c0-2.8-0.6-5.5-1.8-8
		C147.1,22.4,144.6,20.5,141.7,20.3z M116.2,42.5c-3.4,0.1-6.6-1.3-8.9-3.8c-2-2.2-3-5-3.1-7.9c0-3.2,1.3-6.2,3.5-8.4
		c2.5-2.3,5.7-3.6,9.1-3.6c3.2-0.1,6.3,1.3,8.5,3.6c2,2.2,3.1,5.1,3.1,8.1c0,6.6-5.4,12-12,12C116.5,42.5,116.3,42.5,116.2,42.5
		L116.2,42.5z M115.7,20.3c-1.6,0-3.2,0.6-4.4,1.7c-1.6,1.6-2.4,3.8-2.3,6c0,2.9,0.7,5.7,1.9,8.3c1.1,2.6,3.5,4.5,6.4,4.6
		c2,0,3.8-0.9,5-2.5c1.1-1.6,1.6-3.5,1.5-5.5c0-2.8-0.6-5.5-1.8-8C121,22.4,118.5,20.5,115.7,20.3z M248.2,42.5h-2.5V10.4h2.5
		L248.2,42.5L248.2,42.5z M188.6,41.9H180l0.3-0.4c0.9-1.1,1-1.3,1-2.2v-1.1l0-29.4h-3.8l3.7-1.8h7c-1.3,0.5-2.2,1.8-2.2,3.2l0,28.1
		c0,2,0.4,2.2,1.9,2.4c0.4,0.1,0.9,0.1,1.3,0.1c0.4,0,0.8,0.1,1.2,0.1L188.6,41.9L188.6,41.9z"/>
</g>
</svg>
