<?xml version="1.0" encoding="utf-8"?>
<!-- Generator: Adobe Illustrator 24.2.3, SVG Export Plug-In . SVG Version: 6.00 Build 0)  -->
<svg version="1.1" id="Ebene_1" xmlns="http://www.w3.org/2000/svg" xmlns:xlink="http://www.w3.org/1999/xlink" x="0px" y="0px"
	 viewBox="0 0 24 22.3" style="enable-background:new 0 0 24 22.3;" xml:space="preserve">
<style type="text/css">
	.st0{fill-rule:evenodd;clip-rule:evenodd;}
</style>
<desc>Created with Sketch.</desc>
<g id="Icons">
	<g id="detail_like_filled" transform="translate(-12.000000, -12.000000)">
		<g id="Shape" transform="translate(12.000000, 12.000000)">
			<path class="st0" d="M24,6.7C23.6,2.8,20.9,0,17.5,0c-2.3,0-4.4,1.2-5.5,3.2C10.8,1.2,8.8,0,6.5,0C3.1,0,0.4,2.8,0,6.7
				c0,0.2-0.1,1.1,0.2,2.5c0.5,2.1,1.6,4,3.3,5.5l8.4,7.6l8.5-7.6c1.7-1.5,2.8-3.4,3.3-5.5C24.1,7.7,24,6.8,24,6.7L24,6.7z"/>
		</g>
	</g>
</g>
</svg>
