<?xml version="1.0" encoding="utf-8"?>
<!-- Generator: Adobe Illustrator 24.2.1, SVG Export Plug-In . SVG Version: 6.00 Build 0)  -->
<svg version="1.1" id="Ebene_1" xmlns="http://www.w3.org/2000/svg" xmlns:xlink="http://www.w3.org/1999/xlink" x="0px" y="0px"
	 viewBox="0 0 1600 160.3" style="enable-background:new 0 0 1600 160.3;" xml:space="preserve">
<style type="text/css">
	.st0{fill:#FDD835;}
</style>
<g id="Jazz" transform="translate(-0.029 -0.977)">
	<path id="AudioJazz" class="st0" d="M1361.4,142.9c-15.2-15.2-39.8-15.2-55,0c-0.9,0.9-2,1.7-3.1,2.2
		c-25.1,19.2-60.4,16.8-82.8-5.4c-15.2-15.2-39.8-15.2-55,0c-0.3,0.3-0.7,0.7-1.1,1c-24.7,23.6-63.7,23.2-88-1
		c-15.2-15.2-39.8-15.2-55,0c-0.9,0.9-2,1.7-3.1,2.2c-25.1,19.2-60.4,16.8-82.8-5.4c-15.2-15.2-39.8-15.2-55,0
		c-0.4,0.4-0.9,0.8-1.4,1.2c-0.3,0.3-0.5,0.6-0.8,0.9c-24.6,24.5-64.4,24.5-88.9,0c-15.2-15.2-39.8-15.2-55,0
		c-0.9,0.9-2,1.7-3.1,2.2c-25.1,19.2-60.4,16.8-82.8-5.4c-15.2-15.2-39.8-15.2-55,0c-0.3,0.3-0.7,0.6-1,0.9l-0.2,0.2
		c-24.6,24.5-64.4,24.5-88.9,0c-15.2-15.2-39.8-15.2-55,0c-0.9,0.9-2,1.7-3.1,2.2c-25.1,19.2-60.4,16.8-82.8-5.4
		c-15.2-15.2-39.8-15.2-55,0c-0.4,0.4-0.9,0.8-1.4,1.2c-0.3,0.3-0.5,0.6-0.8,0.9c-24.6,24.5-64.4,24.5-88.9,0
		c-15.2-15.2-39.8-15.2-55,0c-0.9,0.9-2,1.7-3.1,2.2c-25.1,19.2-60.4,16.8-82.8-5.4c-15.2-15.2-39.8-15.2-55,0
		c-4.7,4.7-12.3,4.7-17,0s-4.7-12.3,0-17c24.6-24.5,64.4-24.5,88.9,0c15.2,15.2,39.8,15.2,55,0c0.9-0.9,2-1.7,3.1-2.2
		c25.1-19.2,60.4-16.8,82.8,5.4c15.2,15.2,39.8,15.2,55,0c0.4-0.4,0.9-0.8,1.4-1.2c0.3-0.3,0.5-0.6,0.8-0.9
		c24.6-24.5,64.4-24.5,88.9,0c15.2,15.2,39.8,15.2,55,0c0.9-0.9,2-1.7,3.1-2.2c25.1-19.2,60.4-16.8,82.8,5.4
		c15.2,15.2,39.8,15.2,55,0c0.3-0.3,0.6-0.6,1-0.9c0.1-0.1,0.1-0.1,0.2-0.2c24.6-24.5,64.4-24.5,88.9,0c15.2,15.2,39.8,15.2,55,0
		c0.9-0.9,2-1.7,3.1-2.2c25.1-19.2,60.4-16.8,82.8,5.4c15.2,15.2,39.8,15.2,55,0c0.4-0.4,0.9-0.8,1.4-1.2c0.3-0.3,0.5-0.6,0.8-0.9
		c24.6-24.5,64.4-24.5,88.9,0c15.2,15.2,39.8,15.2,55,0c0.9-0.9,2-1.7,3.1-2.2c25.1-19.2,60.4-16.8,82.8,5.4
		c15.2,15.2,39.8,15.2,55,0c0.3-0.3,0.7-0.7,1.1-1c24.7-23.6,63.8-23.2,88,1c15.2,15.2,39.8,15.2,55,0c0.9-0.9,2-1.7,3.1-2.2
		c25.1-19.2,60.4-16.8,82.8,5.4c15.2,15.2,39.8,15.2,55,0c0.4-0.4,0.9-0.8,1.4-1.2c0.3-0.3,0.5-0.6,0.8-0.9
		c24.6-24.5,64.4-24.5,88.9,0c15.2,15.2,39.8,15.2,55,0c4.7-4.7,12.3-4.7,17,0c4.7,4.7,4.7,12.3,0,17l0,0
		c-24.6,24.5-64.4,24.5-88.9,0c-15.2-15.2-39.8-15.2-55,0c-0.4,0.4-0.9,0.8-1.4,1.2c-0.3,0.3-0.5,0.6-0.8,0.9
		C1425.8,167.4,1386,167.4,1361.4,142.9L1361.4,142.9z M1361.4,94.9c-15.2-15.2-39.8-15.2-55,0c-0.9,0.9-2,1.7-3.1,2.2
		c-25.1,19.2-60.4,16.8-82.8-5.4c-15.2-15.2-39.8-15.2-55,0c-0.3,0.3-0.7,0.7-1.1,1c-24.7,23.6-63.7,23.2-88-1
		c-15.2-15.2-39.8-15.2-55,0c-0.9,0.9-2,1.7-3.1,2.2c-25.1,19.2-60.4,16.8-82.8-5.4c-15.2-15.2-39.8-15.2-55,0
		c-0.4,0.4-0.9,0.8-1.4,1.2c-0.3,0.3-0.5,0.6-0.8,0.9c-24.6,24.5-64.4,24.5-88.9,0c-15.2-15.2-39.8-15.2-55,0
		c-0.9,0.9-2,1.7-3.1,2.2c-25.1,19.2-60.4,16.8-82.8-5.4c-15.2-15.2-39.8-15.2-55,0c-0.3,0.3-0.7,0.6-1,0.9l-0.2,0.2
		c-24.6,24.5-64.4,24.5-88.9,0c-15.2-15.2-39.8-15.2-55,0c-0.9,0.9-2,1.7-3.1,2.2c-25.1,19.2-60.4,16.8-82.8-5.4
		c-15.2-15.2-39.8-15.2-55,0c-0.4,0.4-0.9,0.8-1.4,1.2c-0.3,0.3-0.5,0.6-0.8,0.9c-24.6,24.5-64.4,24.5-88.9,0
		c-15.2-15.2-39.8-15.2-55,0c-0.9,0.9-2,1.7-3.1,2.2c-25.1,19.2-60.4,16.8-82.8-5.4c-15.2-15.2-39.8-15.2-55,0
		c-4.7,4.7-12.3,4.7-17,0s-4.7-12.3,0-17c24.6-24.5,64.4-24.5,88.9,0c15.2,15.2,39.8,15.2,55,0c0.9-0.9,2-1.7,3.1-2.2
		c25.1-19.2,60.4-16.8,82.8,5.4c15.2,15.2,39.8,15.2,55,0c0.4-0.4,0.9-0.8,1.4-1.2c0.3-0.3,0.5-0.6,0.8-0.9
		c24.6-24.5,64.4-24.5,88.9,0c15.2,15.2,39.8,15.2,55,0c0.9-0.9,2-1.7,3.1-2.2c25.1-19.2,60.4-16.8,82.8,5.4
		c15.2,15.2,39.8,15.2,55,0c0.3-0.3,0.6-0.6,1-0.9l0.2-0.2c24.6-24.5,64.4-24.5,88.9,0c15.2,15.2,39.8,15.2,55,0
		c0.9-0.9,2-1.7,3.1-2.2c25.1-19.2,60.4-16.8,82.8,5.4c15.2,15.2,39.8,15.2,55,0c0.4-0.4,0.9-0.8,1.4-1.2c0.3-0.3,0.5-0.6,0.8-0.9
		c24.6-24.5,64.4-24.5,88.9,0c15.2,15.2,39.8,15.2,55,0c0.9-0.9,2-1.7,3.1-2.2c25.1-19.2,60.4-16.8,82.8,5.4
		c15.2,15.2,39.8,15.2,55,0c0.3-0.3,0.7-0.7,1.1-1c24.7-23.6,63.8-23.2,88,1c15.2,15.2,39.8,15.2,55,0c0.9-0.9,2-1.7,3.1-2.2
		c25.1-19.2,60.4-16.8,82.8,5.4c15.2,15.2,39.8,15.2,55,0c0.4-0.4,0.9-0.8,1.4-1.2c0.3-0.3,0.5-0.6,0.8-0.9
		c24.6-24.5,64.4-24.5,88.9,0c15.2,15.2,39.8,15.2,55,0c4.7-4.7,12.3-4.7,17,0s4.7,12.2,0,16.9c-24.6,24.5-64.4,24.5-88.9,0
		c-15.2-15.2-39.8-15.2-55,0c-0.4,0.4-0.9,0.8-1.4,1.2c-0.3,0.3-0.5,0.6-0.8,0.9C1425.8,119.4,1386,119.4,1361.4,94.9L1361.4,94.9z
		 M1361.4,46.9c-15.2-15.2-39.8-15.2-55,0c-0.9,0.9-2,1.7-3.1,2.2c-11,8.4-24.5,13-38.3,13c-16.7,0-32.7-6.6-44.5-18.4
		c-15.2-15.2-39.8-15.2-55,0c-0.3,0.3-0.7,0.7-1.1,1c-11.7,11.2-27.3,17.4-43.5,17.4c-16.7,0-32.7-6.6-44.5-18.4
		c-15.2-15.2-39.8-15.2-55,0c-0.9,0.9-2,1.7-3.1,2.2c-11,8.4-24.4,13-38.3,13c-16.7,0-32.7-6.6-44.5-18.4c-15.2-15.2-39.8-15.2-55,0
		c-0.4,0.4-0.9,0.8-1.4,1.2c-0.3,0.3-0.5,0.6-0.8,0.9C866.5,54.4,850.5,61,833.8,61s-32.7-6.6-44.5-18.4c-15.2-15.2-39.8-15.2-55,0
		c-0.9,0.9-2,1.7-3.1,2.2c-11,8.4-24.4,13-38.3,13c-16.7,0-32.7-6.6-44.5-18.4c-15.2-15.2-39.8-15.2-55,0c-0.3,0.3-0.7,0.6-1,0.9
		l-0.2,0.2c-11.8,11.8-27.8,18.4-44.5,18.4s-32.7-6.6-44.5-18.4c-15.2-15.2-39.8-15.2-55,0c-0.9,0.9-2,1.7-3.1,2.2
		c-11,8.4-24.5,13-38.3,13c-16.7,0-32.7-6.6-44.5-18.4c-15.2-15.2-39.8-15.2-55,0c-0.4,0.4-0.9,0.8-1.4,1.2
		c-0.3,0.3-0.5,0.6-0.8,0.9c-11.8,11.8-27.8,18.4-44.5,18.4s-32.7-6.6-44.5-18.4c-15.2-15.2-39.8-15.2-55,0c-0.9,0.9-2,1.7-3.1,2.2
		c-11,8.4-24.5,13-38.3,13C103,54.6,87,48,75.2,36.2C60,21,35.4,21,20.2,36.2c-4.7,4.7-12.3,4.7-17,0s-4.7-12.3,0-17
		c24.6-24.5,64.4-24.5,88.9,0c15.2,15.2,39.8,15.2,55,0c0.9-0.9,2-1.7,3.1-2.2c25.5-19,60.8-16.7,83.2,5.5c15.2,15.2,39.8,15.2,55,0
		c0.4-0.4,0.9-0.8,1.4-1.2c0.3-0.3,0.5-0.6,0.8-0.9c24.6-24.5,64.4-24.5,88.9,0c15.2,15.2,39.8,15.2,55,0c0.9-0.9,2-1.7,3.1-2.2
		C462.7-1,498,1.4,520.4,23.6c15.2,15.2,39.8,15.2,55,0c0.3-0.3,0.6-0.6,1-0.9l0.2-0.2C601.2-2,641-2,665.5,22.5
		c15.2,15.2,39.8,15.2,55,0c0.9-0.9,2-1.7,3.1-2.2c25.1-19.2,60.4-16.8,82.8,5.4c15.2,15.2,39.8,15.2,55,0c0.4-0.4,0.9-0.8,1.4-1.2
		c0.3-0.3,0.5-0.6,0.8-0.9c24.6-24.5,64.4-24.5,88.9,0c15.2,15.2,39.8,15.2,55,0c0.9-0.9,2-1.7,3.1-2.2
		c25.1-19.2,60.4-16.8,82.8,5.4c15.2,15.2,39.8,15.2,55,0c0.3-0.3,0.7-0.7,1.1-1c24.7-23.6,63.8-23.2,88,1c15.2,15.2,39.8,15.2,55,0
		c0.9-0.9,2-1.7,3.1-2.2c25.1-19.2,60.4-16.8,82.8,5.4c15.2,15.2,39.8,15.2,55,0c0.4-0.4,0.9-0.8,1.4-1.2c0.3-0.3,0.5-0.6,0.8-0.9
		c24.6-24.5,64.4-24.5,88.9,0c15.2,15.2,39.8,15.2,55,0c4.7-4.7,12.3-4.7,17,0s4.7,12.2,0,16.9c-11.8,11.8-27.8,18.4-44.5,18.4
		s-32.7-6.6-44.5-18.4c-15.2-15.2-39.8-15.2-55,0c-0.4,0.4-0.9,0.8-1.4,1.2c-0.3,0.3-0.5,0.6-0.8,0.9
		c-11.8,11.8-27.8,18.4-44.5,18.4C1389.2,65.3,1373.2,58.7,1361.4,46.9L1361.4,46.9z"/>
</g>
</svg>
