<?xml version="1.0" encoding="UTF-8" standalone="no"?>
<svg width="24px" height="19px" viewBox="0 0 24 19" version="1.1" xmlns="http://www.w3.org/2000/svg" xmlns:xlink="http://www.w3.org/1999/xlink">
    <!-- Generator: Sketch 39.1 (31720) - http://www.bohemiancoding.com/sketch -->
    <title>music_poprock</title>
    <desc>Created with Sketch.</desc>
    <defs></defs>
    <g id="Icons" stroke="none" stroke-width="1" fill="none" fill-rule="evenodd">
        <g id="music_poprock" transform="translate(-12.000000, -14.000000)" fill="#090509">
            <g transform="translate(12.000000, 14.000000)">
                <path d="M23.2993412,0.238917647 C22.6405176,-0.184611765 21.7934588,0.0506823529 21.3699294,0.709505882 L14.7346353,11.5330353 L12.2405176,8.28597647 C11.6287529,7.48597647 10.4522824,7.53303529 9.93463529,8.38009412 L7.06404706,13.1800941 L5.7464,11.4389176 C5.13463529,10.6389176 3.91110588,10.6859765 3.39345882,11.5330353 L0.193458824,16.8506824 C-0.324188235,17.7448 0.240517647,18.9683294 1.36992941,18.9683294 C1.84051765,18.9683294 2.31110588,18.7330353 2.59345882,18.3095059 L4.71110588,14.7800941 L6.02875294,16.5683294 C6.64051765,17.3683294 7.86404706,17.3212706 8.38169412,16.4742118 L11.2522824,11.6271529 L13.7464,14.8742118 C14.3581647,15.6742118 15.5346353,15.5800941 16.0522824,14.7800941 L23.7699294,2.16832941 C24.1934588,1.50950588 23.9581647,0.662447059 23.2993412,0.238917647 L23.2993412,0.238917647 Z"></path>
            </g>
        </g>
    </g>
</svg>