<?xml version="1.0" encoding="UTF-8" standalone="no"?>
<svg width="24px" height="16px" viewBox="0 0 24 16" version="1.1" xmlns="http://www.w3.org/2000/svg" xmlns:xlink="http://www.w3.org/1999/xlink">
    <!-- Generator: Sketch 39.1 (31720) - http://www.bohemiancoding.com/sketch -->
    <title>music_country</title>
    <desc>Created with Sketch.</desc>
    <defs></defs>
    <g id="Icons" stroke="none" stroke-width="1" fill="none" fill-rule="evenodd">
        <g id="music_country" transform="translate(-12.000000, -16.000000)" fill="#000000">
            <g transform="translate(12.000000, 16.000000)">
                <path d="M20.9755283,4.96659545 C20.7907299,4.59699864 20.4130604,4.36354611 19.9998276,4.36354611 C19.5865948,4.36354611 19.2088526,4.59699864 19.0240542,4.96659545 L15.7609551,11.4926483 L11.5620822,0.695504992 C11.4034654,0.287581235 11.0164141,0.0139835931 10.5788906,0.000456436935 C10.1420944,-0.0121252728 9.73824334,0.23630895 9.55489947,0.633687343 L5.48373456,9.45441132 L1.09089969,9.45441132 C0.488359427,9.45441132 0,9.94284348 0,10.545311 C0,11.1477785 0.488359427,11.6362107 1.09089969,11.6362107 L6.1817649,11.6362107 C6.60721578,11.6362107 6.99390336,11.3887947 7.1722291,11.002398 L10.4594735,3.87991391 L14.6194376,14.5769854 C14.7757999,14.979091 15.1544876,15.2513068 15.5856111,15.2713066 C15.6024837,15.2721066 15.6195017,15.272543 15.6363743,15.272543 C16.0479344,15.272543 16.4264766,15.0402541 16.6118568,14.6694936 L19.9998276,7.89377023 L21.9331201,11.7604278 C22.2024996,12.2993323 22.8579121,12.5177304 23.3966711,12.2482782 C23.9355755,11.9788259 24.1540464,11.3235588 23.8845942,10.7847271 L20.9755283,4.96659545 L20.9755283,4.96659545 Z"></path>
            </g>
        </g>
    </g>
</svg>