<?xml version="1.0" encoding="UTF-8" standalone="no"?>
<svg width="20px" height="23px" viewBox="0 0 20 23" version="1.1" xmlns="http://www.w3.org/2000/svg" xmlns:xlink="http://www.w3.org/1999/xlink">
    <!-- Generator: Sketch 39.1 (31720) - http://www.bohemiancoding.com/sketch -->
    <title>music_hiphop</title>
    <desc>Created with Sketch.</desc>
    <defs></defs>
    <g id="Icons" stroke="none" stroke-width="1" fill="none" fill-rule="evenodd">
        <g id="music_hiphop" transform="translate(-14.000000, -13.000000)" fill="#000000">
            <g transform="translate(14.000000, 13.000000)">
                <path d="M1.42857143,4.28571429 C0.639642857,4.28571429 0,4.92526786 0,5.71428571 L0,17.1428571 C0,17.9317857 0.639642857,18.5714286 1.42857143,18.5714286 C2.2175,18.5714286 2.85714286,17.9317857 2.85714286,17.1428571 L2.85714286,5.71428571 C2.85714286,4.92526786 2.2175,4.28571429 1.42857143,4.28571429 Z M5.71428571,7.14285714 C4.92535714,7.14285714 4.28571429,7.78241071 4.28571429,8.57142857 L4.28571429,14.2857143 C4.28571429,15.0746429 4.92535714,15.7142857 5.71428571,15.7142857 C6.50321429,15.7142857 7.14285714,15.0746429 7.14285714,14.2857143 L7.14285714,8.57142857 C7.14285714,7.78241071 6.50321429,7.14285714 5.71428571,7.14285714 Z M10,0 C9.21107143,0 8.57142857,0.639553571 8.57142857,1.42857143 L8.57142857,21.4285714 C8.57142857,22.2175 9.21107143,22.8571429 10,22.8571429 C10.7889286,22.8571429 11.4285714,22.2175 11.4285714,21.4285714 L11.4285714,1.42857143 C11.4285714,0.639553571 10.7889286,0 10,0 Z M14.2857143,3.57142857 C13.4967857,3.57142857 12.8571429,4.21098214 12.8571429,5 L12.8571429,17.8571429 C12.8571429,18.6460714 13.4967857,19.2857143 14.2857143,19.2857143 C15.0746429,19.2857143 15.7142857,18.6460714 15.7142857,17.8571429 L15.7142857,5 C15.7142857,4.21098214 15.0746429,3.57142857 14.2857143,3.57142857 Z M18.5714286,7.14285714 C17.7825,7.14285714 17.1428571,7.78241071 17.1428571,8.57142857 L17.1428571,14.2857143 C17.1428571,15.0746429 17.7825,15.7142857 18.5714286,15.7142857 C19.3603571,15.7142857 20,15.0746429 20,14.2857143 L20,8.57142857 C20,7.78241071 19.3603571,7.14285714 18.5714286,7.14285714 Z"></path>
            </g>
        </g>
    </g>
</svg>