<?xml version="1.0" encoding="utf-8"?>
<!-- Generator: Adobe Illustrator 24.2.3, SVG Export Plug-In . SVG Version: 6.00 Build 0)  -->
<svg version="1.1" id="Ebene_1" xmlns="http://www.w3.org/2000/svg" xmlns:xlink="http://www.w3.org/1999/xlink" x="0px" y="0px"
	 viewBox="0 0 24 24" style="enable-background:new 0 0 24 24;" xml:space="preserve">
<style type="text/css">
	.st0{fill-rule:evenodd;clip-rule:evenodd;fill:#EB69AA;stroke:#EB69AA;}
</style>
<desc>Created with Sketch.</desc>
<g id="Icons">
	<g id="music_reggae" transform="translate(-12.000000, -12.000000)">
		<g transform="translate(13.000000, 13.000000)">
			<path class="st0" d="M0.9,14.2C0.4,14.2,0,14.6,0,15v5.7c0,0.5,0.4,0.9,0.9,0.9s0.9-0.4,0.9-0.9V15C1.7,14.6,1.3,14.2,0.9,14.2z
				 M4.2,8.5c-0.5,0-0.9,0.4-0.9,0.9v11.4c0,0.5,0.4,0.9,0.9,0.9s0.9-0.4,0.9-0.9V9.4C5.1,8.9,4.7,8.5,4.2,8.5z M7.6,11.4
				c-0.5,0-0.9,0.4-0.9,0.9v8.5c0,0.5,0.4,0.9,0.9,0.9s0.9-0.4,0.9-0.9v-8.5C8.5,11.7,8.1,11.4,7.6,11.4z M11,5.7
				c-0.5,0-0.9,0.4-0.9,0.9v14.2c0,0.5,0.4,0.9,0.9,0.9s0.9-0.4,0.9-0.9V6.5C11.9,6.1,11.5,5.7,11,5.7z M14.4,0
				c-0.5,0-0.9,0.4-0.9,0.9v19.9c0,0.5,0.4,0.9,0.9,0.9s0.9-0.4,0.9-0.9V0.9C15.2,0.4,14.9,0,14.4,0z M17.8,8.5
				c-0.5,0-0.9,0.4-0.9,0.9v11.4c0,0.5,0.4,0.9,0.9,0.9s0.9-0.4,0.9-0.9V9.4C18.6,8.9,18.2,8.5,17.8,8.5z M21.1,17
				c-0.5,0-0.9,0.4-0.9,0.9v2.8c0,0.5,0.4,0.9,0.9,0.9s0.9-0.4,0.9-0.9v-2.8C22,17.4,21.6,17,21.1,17z"/>
		</g>
	</g>
</g>
</svg>
