<?xml version="1.0" encoding="UTF-8" standalone="no"?>
<svg width="24px" height="24px" viewBox="0 0 24 24" version="1.1" xmlns="http://www.w3.org/2000/svg" xmlns:xlink="http://www.w3.org/1999/xlink">
    <!-- Generator: Sketch 39.1 (31720) - http://www.bohemiancoding.com/sketch -->
    <title>music_reggae</title>
    <desc>Created with Sketch.</desc>
    <defs></defs>
    <g id="Icons" stroke="none" stroke-width="1" fill="none" fill-rule="evenodd">
        <g id="music_reggae" transform="translate(-12.000000, -12.000000)" fill="#000000" stroke="#000000">
            <g transform="translate(13.000000, 13.000000)">
                <path d="M0.851432124,14.1925244 C0.381423232,14.1925244 0,14.5739476 0,15.0434975 L0,20.7207826 C0,21.1907915 0.381423232,21.5717558 0.851432124,21.5717558 C1.32144102,21.5717558 1.70286425,21.1903325 1.70286425,20.7207826 L1.70286425,15.0434975 C1.70332324,14.5734886 1.32190001,14.1925244 0.851432124,14.1925244 Z M4.23482296,8.51569821 C3.76481406,8.51569821 3.38339083,8.89666245 3.38339083,9.36713034 L3.38339083,20.7207826 C3.38339083,21.1917095 3.76481406,21.5726738 4.23482296,21.5726738 C4.70483185,21.5726738 5.08625508,21.1912505 5.08625508,20.7212416 L5.08625508,9.36713034 C5.08625508,8.89666245 4.70483185,8.51569821 4.23482296,8.51569821 Z M7.6172958,11.3536523 C7.14728691,11.3536523 6.76586368,11.7355345 6.76586368,12.2050844 L6.76586368,20.7207826 C6.76586368,21.1907915 7.14728691,21.5717558 7.6172958,21.5717558 C8.08730469,21.5717558 8.46872793,21.1903325 8.46872793,20.7207826 L8.46872793,12.2055434 C8.46872793,11.7346165 8.08730469,11.3536523 7.6172958,11.3536523 Z M11.0002276,5.67728514 C10.5306777,5.67728514 10.1492545,6.05824938 10.1492545,6.52871726 L10.1492545,20.7207826 C10.1492545,21.1912505 10.5306777,21.5722148 11.0002276,21.5722148 C11.4702365,21.5722148 11.8516598,21.1907915 11.8516598,20.7207826 L11.8516598,6.52871726 C11.8516598,6.05824938 11.4702365,5.67728514 11.0002276,5.67728514 Z M14.3836185,0 C13.9136096,0 13.5321863,0.381423232 13.5321863,0.851432124 L13.5321863,20.7212416 C13.5321863,21.1912505 13.9136096,21.5722148 14.3836185,21.5722148 C14.8531684,21.5722148 15.2350506,21.1907915 15.2350506,20.7212416 L15.2350506,0.851432124 C15.2350506,0.381423232 14.8531684,0 14.3836185,0 Z M17.7660913,8.51569821 C17.2960824,8.51569821 16.9151182,8.89666245 16.9151182,9.36713034 L16.9151182,20.7207826 C16.9151182,21.1912505 17.2960824,21.5722148 17.7660913,21.5722148 C18.2361002,21.5722148 18.6170644,21.1907915 18.6170644,20.7207826 L18.6170644,9.36713034 C18.6179824,8.89666245 18.2361002,8.51569821 17.7660913,8.51569821 Z M21.1490232,17.0309374 C20.6790143,17.0309374 20.29805,17.4119017 20.29805,17.8819106 L20.29805,20.7207826 C20.29805,21.1907915 20.6790143,21.5717558 21.1490232,21.5717558 C21.619032,21.5717558 21.9999963,21.1903325 21.9999963,20.7207826 L21.9999963,17.8823696 C22.0013733,17.4123607 21.619491,17.0309374 21.1490232,17.0309374 Z"></path>
            </g>
        </g>
    </g>
</svg>