<?xml version="1.0" encoding="utf-8"?>
<!-- Generator: Adobe Illustrator 24.2.3, SVG Export Plug-In . SVG Version: 6.00 Build 0)  -->
<svg version="1.1" id="Ebene_1" xmlns="http://www.w3.org/2000/svg" xmlns:xlink="http://www.w3.org/1999/xlink" x="0px" y="0px"
	 viewBox="0 0 20 18" style="enable-background:new 0 0 20 18;" xml:space="preserve">
<style type="text/css">
	.st0{fill-rule:evenodd;clip-rule:evenodd;fill:#FFFFFF;}
</style>
<desc>Created with Sketch.</desc>
<g id="Icons">
	<g id="music_jazz" transform="translate(-14.000000, -15.000000)">
		<g transform="translate(14.000000, 15.000000)">
			<path class="st0" d="M14.1,17.4c-1.8,0-3.7-0.7-5.1-2.1c-1.7-1.7-4.6-1.7-6.3,0c-0.5,0.5-1.4,0.5-1.9,0c-0.5-0.5-0.5-1.4,0-1.9
				c2.8-2.8,7.4-2.8,10.2,0c1.7,1.7,4.6,1.7,6.3,0c0.5-0.5,1.4-0.5,1.9,0c0.5,0.5,0.5,1.4,0,1.9C17.8,16.7,16,17.4,14.1,17.4z
				 M14.1,11.9c-1.8,0-3.7-0.7-5.1-2.1C7.3,8,4.5,8,2.7,9.8c-0.5,0.5-1.4,0.5-1.9,0c-0.5-0.5-0.5-1.4,0-1.9C3.6,5,8.2,5,11,7.8
				c1.7,1.7,4.6,1.7,6.3,0c0.5-0.5,1.4-0.5,1.9,0s0.5,1.4,0,1.9C17.8,11.2,16,11.9,14.1,11.9z M14.1,6.4c-1.8,0-3.7-0.7-5.1-2.1
				c-1.7-1.7-4.6-1.7-6.3,0c-0.5,0.5-1.4,0.5-1.9,0s-0.5-1.4,0-1.9c2.8-2.8,7.4-2.8,10.2,0c1.7,1.7,4.6,1.7,6.3,0
				c0.5-0.5,1.4-0.5,1.9,0s0.5,1.4,0,1.9C17.8,5.7,16,6.4,14.1,6.4z"/>
		</g>
	</g>
</g>
</svg>
