<?xml version="1.0" encoding="utf-8"?>
<!-- Generator: Adobe Illustrator 24.2.3, SVG Export Plug-In . SVG Version: 6.00 Build 0)  -->
<svg version="1.1" id="Ebene_1" xmlns="http://www.w3.org/2000/svg" xmlns:xlink="http://www.w3.org/1999/xlink" x="0px" y="0px"
	 viewBox="0 0 20 16" style="enable-background:new 0 0 20 16;" xml:space="preserve">
<style type="text/css">
	.st0{fill-rule:evenodd;clip-rule:evenodd;fill:#FFFFFF;}
</style>
<desc>Created with Sketch.</desc>
<g id="Icons">
	<g id="music_electronic" transform="translate(-14.000000, -16.000000)">
		<g transform="translate(14.000000, 16.000000)">
			<path class="st0" d="M19.3,12.9H0.7c-0.2,0-0.4,0.1-0.5,0.2C0.1,13.2,0,13.4,0,13.6V15c0,0.2,0.1,0.4,0.2,0.5
				c0.1,0.1,0.3,0.2,0.5,0.2h18.6c0.2,0,0.4-0.1,0.5-0.2c0.1-0.1,0.2-0.3,0.2-0.5v-1.4c0-0.2-0.1-0.4-0.2-0.5
				C19.6,12.9,19.5,12.9,19.3,12.9z M19.3,8.6H5c-0.2,0-0.4,0.1-0.5,0.2C4.4,8.9,4.3,9.1,4.3,9.3v1.4c0,0.2,0.1,0.4,0.2,0.5
				c0.1,0.1,0.3,0.2,0.5,0.2h14.3c0.2,0,0.4-0.1,0.5-0.2c0.1-0.1,0.2-0.3,0.2-0.5V9.3c0-0.2-0.1-0.4-0.2-0.5
				C19.6,8.7,19.5,8.6,19.3,8.6z M19.3,4.3H2.1c-0.2,0-0.4,0.1-0.5,0.2C1.5,4.7,1.4,4.8,1.4,5v1.4c0,0.2,0.1,0.4,0.2,0.5
				c0.1,0.1,0.3,0.2,0.5,0.2h17.1c0.2,0,0.4-0.1,0.5-0.2C19.9,6.8,20,6.6,20,6.5V5c0-0.2-0.1-0.4-0.2-0.5
				C19.6,4.4,19.5,4.3,19.3,4.3z M19.8,0.2C19.6,0.1,19.5,0,19.3,0H6.4C6.2,0,6.1,0.1,5.9,0.2C5.8,0.4,5.7,0.6,5.7,0.7v1.4
				c0,0.2,0.1,0.4,0.2,0.5c0.1,0.1,0.3,0.2,0.5,0.2h12.8c0.2,0,0.4-0.1,0.5-0.2C19.9,2.5,20,2.4,20,2.2V0.7
				C20,0.6,19.9,0.4,19.8,0.2z"/>
		</g>
	</g>
</g>
</svg>
