<?xml version="1.0" encoding="utf-8"?>
<!-- Generator: Adobe Illustrator 24.2.3, SVG Export Plug-In . SVG Version: 6.00 Build 0)  -->
<svg version="1.1" id="Ebene_1" xmlns="http://www.w3.org/2000/svg" xmlns:xlink="http://www.w3.org/1999/xlink" x="0px" y="0px"
	 viewBox="0 0 20 23" style="enable-background:new 0 0 20 23;" xml:space="preserve">
<style type="text/css">
	.st0{fill-rule:evenodd;clip-rule:evenodd;fill:#FFFFFF;}
</style>
<desc>Created with Sketch.</desc>
<g id="Icons">
	<g id="music_hiphop" transform="translate(-14.000000, -13.000000)">
		<g transform="translate(14.000000, 13.000000)">
			<path class="st0" d="M1.4,4.3C0.6,4.3,0,4.9,0,5.7v11.4c0,0.8,0.6,1.4,1.4,1.4s1.4-0.6,1.4-1.4V5.7C2.9,4.9,2.2,4.3,1.4,4.3z
				 M5.7,7.1c-0.8,0-1.4,0.6-1.4,1.4v5.7c0,0.8,0.6,1.4,1.4,1.4s1.4-0.6,1.4-1.4V8.6C7.1,7.8,6.5,7.1,5.7,7.1z M10,0
				C9.2,0,8.6,0.6,8.6,1.4v20c0,0.8,0.6,1.4,1.4,1.4s1.4-0.6,1.4-1.4v-20C11.4,0.6,10.8,0,10,0z M14.3,3.6c-0.8,0-1.4,0.6-1.4,1.4
				v12.9c0,0.8,0.6,1.4,1.4,1.4c0.8,0,1.4-0.6,1.4-1.4V5C15.7,4.2,15.1,3.6,14.3,3.6z M18.6,7.1c-0.8,0-1.4,0.6-1.4,1.4v5.7
				c0,0.8,0.6,1.4,1.4,1.4s1.4-0.6,1.4-1.4V8.6C20,7.8,19.4,7.1,18.6,7.1z"/>
		</g>
	</g>
</g>
</svg>
