<?xml version="1.0" encoding="UTF-8" standalone="no"?>
<svg width="20px" height="18px" viewBox="0 0 20 18" version="1.1" xmlns="http://www.w3.org/2000/svg" xmlns:xlink="http://www.w3.org/1999/xlink">
    <!-- Generator: Sketch 39.1 (31720) - http://www.bohemiancoding.com/sketch -->
    <title>music_jazz</title>
    <desc>Created with Sketch.</desc>
    <defs></defs>
    <g id="Icons" stroke="none" stroke-width="1" fill="none" fill-rule="evenodd">
        <g id="music_jazz" transform="translate(-14.000000, -15.000000)" fill="#030104">
            <g transform="translate(14.000000, 15.000000)">
                <path d="M14.1142857,17.3563429 C12.2738286,17.3563429 10.432,16.6555429 9.0304,15.2553143 C7.29417143,13.5204571 4.47314286,13.5218286 2.74102857,15.2553143 C2.2048,15.7915429 1.33805714,15.7915429 0.801828571,15.2553143 C0.2656,14.7190857 0.2656,13.8523429 0.801828571,13.3161143 C3.60365714,10.5142857 8.16502857,10.5142857 10.9696,13.3161143 C12.7044571,15.0496 15.5254857,15.0482286 17.2589714,13.3161143 C17.7952,12.7798857 18.6619429,12.7798857 19.1981714,13.3161143 C19.7344,13.8523429 19.7344,14.7190857 19.1981714,15.2553143 C17.7979429,16.6555429 15.9561143,17.3563429 14.1142857,17.3563429 Z M14.1142857,11.8706286 C12.2738286,11.8706286 10.432,11.1698286 9.0304,9.7696 C7.29417143,8.03474286 4.47314286,8.03611429 2.74102857,9.7696 C2.2048,10.3058286 1.33805714,10.3058286 0.801828571,9.7696 C0.2656,9.23337143 0.2656,8.36662857 0.801828571,7.8304 C3.60365714,5.02857143 8.16502857,5.02857143 10.9696,7.8304 C12.7044571,9.56388571 15.5254857,9.56251429 17.2589714,7.8304 C17.7952,7.29417143 18.6619429,7.29417143 19.1981714,7.8304 C19.7344,8.36662857 19.7344,9.23337143 19.1981714,9.7696 C17.7979429,11.1698286 15.9561143,11.8706286 14.1142857,11.8706286 Z M14.1142857,6.38491429 C12.2738286,6.38491429 10.432,5.68411429 9.0304,4.28388571 C7.29417143,2.54902857 4.47314286,2.5504 2.74102857,4.28388571 C2.2048,4.82011429 1.33805714,4.82011429 0.801828571,4.28388571 C0.2656,3.74765714 0.2656,2.88091429 0.801828571,2.34468571 C3.60365714,-0.455771429 8.16502857,-0.458514286 10.9696,2.34468571 C12.7044571,4.07817143 15.5254857,4.0768 17.2589714,2.34468571 C17.7952,1.80845714 18.6619429,1.80845714 19.1981714,2.34468571 C19.7344,2.88091429 19.7344,3.74765714 19.1981714,4.28388571 C17.7979429,5.68411429 15.9561143,6.38491429 14.1142857,6.38491429 Z"></path>
            </g>
        </g>
    </g>
</svg>