<?xml version="1.0" encoding="UTF-8" standalone="no"?>
<svg width="20px" height="16px" viewBox="0 0 20 16" version="1.1" xmlns="http://www.w3.org/2000/svg" xmlns:xlink="http://www.w3.org/1999/xlink">
    <!-- Generator: Sketch 39.1 (31720) - http://www.bohemiancoding.com/sketch -->
    <title>music_electronic</title>
    <desc>Created with Sketch.</desc>
    <defs></defs>
    <g id="Icons" stroke="none" stroke-width="1" fill="none" fill-rule="evenodd">
        <g id="music_electronic" transform="translate(-14.000000, -16.000000)" fill="#000000">
            <g transform="translate(14.000000, 16.000000)">
                <path d="M19.2690405,12.8779366 L0.713728923,12.8779366 C0.520318305,12.8779366 0.353114982,12.9486299 0.211806498,13.0898994 C0.0706542421,13.2310516 1.77635684e-15,13.3983721 1.77635684e-15,13.5916265 L1.77635684e-15,15.0190062 C1.77635684e-15,15.2122606 0.0706542421,15.3795811 0.211845555,15.5210458 C0.353271211,15.6620419 0.520552648,15.7327742 0.71376798,15.7327742 L19.2690796,15.7327742 C19.4621777,15.7327742 19.6296545,15.6620419 19.7709629,15.5210458 C19.9121152,15.3796202 19.9828476,15.2122997 19.9828476,15.0190062 L19.9828476,13.5916265 C19.9828476,13.3983721 19.9121152,13.2310516 19.7709629,13.0898603 C19.6296154,12.9485909 19.4621387,12.8779366 19.2690405,12.8779366 Z M19.2690405,8.59599273 L4.99579,8.59599273 C4.80237938,8.59599273 4.63517606,8.66672508 4.49390663,8.80799451 C4.35259815,8.94910771 4.28206108,9.11658443 4.28206108,9.30976071 L4.28206108,10.7371014 C4.28206108,10.9303558 4.35263721,11.0978325 4.49390663,11.2388676 C4.63529323,11.380137 4.80249656,11.4510256 4.99579,11.4510256 L19.2690405,11.4510256 C19.4621387,11.4510256 19.6296154,11.3801761 19.7709239,11.2388676 C19.9120761,11.0978716 19.9828085,10.9303948 19.9828085,10.7371014 L19.9828085,9.30976071 C19.9828085,9.11662349 19.9120761,8.94914677 19.7709239,8.80799451 C19.6296154,8.66656886 19.4621387,8.59599273 19.2690405,8.59599273 Z M19.2690405,4.31408788 L2.14114771,4.31408788 C1.94773709,4.31408788 1.78045566,4.38466401 1.63926434,4.52593343 C1.49799492,4.66712475 1.42741879,4.83440618 1.42741879,5.02769963 L1.42741879,6.45511842 C1.42741879,6.64833375 1.49799492,6.81573236 1.63926434,6.9568065 C1.78061188,7.09807593 1.94773709,7.16884734 2.14114771,7.16884734 L19.2690405,7.16884734 C19.4621387,7.16884734 19.6296154,7.09807593 19.7709239,6.9568065 C19.9120761,6.81573236 19.9828085,6.64833375 19.9828085,6.45511842 L19.9828085,5.02769963 C19.9828085,4.83428901 19.9120761,4.6671638 19.7709239,4.52593343 C19.6296154,4.38466401 19.4621387,4.31408788 19.2690405,4.31408788 Z M19.7709239,0.243755183 C19.6296545,0.102681041 19.4621777,0.0319096273 19.2690405,0.0319096273 L6.42320879,0.0319096273 C6.22979817,0.0319096273 6.06251674,0.102681041 5.92132542,0.243755183 C5.780056,0.38502461 5.70940175,0.552384161 5.70940175,0.74563855 L5.70940175,2.17305734 C5.70940175,2.36631173 5.780056,2.53351505 5.92132542,2.67482353 C6.06267296,2.8160539 6.22991534,2.88666909 6.42320879,2.88666909 L19.2690405,2.88666909 C19.4621387,2.88666909 19.6296154,2.81601485 19.7709239,2.67482353 C19.9120761,2.53355411 19.9828085,2.36635078 19.9828085,2.17305734 L19.9828085,0.74563855 C19.9827694,0.552384161 19.9120761,0.385141781 19.7709239,0.243755183 Z"></path>
            </g>
        </g>
    </g>
</svg>