<?xml version="1.0" encoding="utf-8"?>
<!-- Generator: Adobe Illustrator 24.2.3, SVG Export Plug-In . SVG Version: 6.00 Build 0)  -->
<svg version="1.1" id="Ebene_1" xmlns="http://www.w3.org/2000/svg" xmlns:xlink="http://www.w3.org/1999/xlink" x="0px" y="0px"
	 viewBox="0 0 20 15" style="enable-background:new 0 0 20 15;" xml:space="preserve">
<style type="text/css">
	.st0{fill-rule:evenodd;clip-rule:evenodd;fill:#1DE9B6;}
</style>
<desc>Created with Sketch.</desc>
<g id="Icons">
	<g id="music_indie" transform="translate(-14.000000, -17.000000)">
		<g transform="translate(14.000000, 17.000000)">
			<path class="st0" d="M20,11.4c0,0.6-0.5,1.1-1.1,1.1c-0.7,0-1.1,0.3-1.7,0.9c-0.6,0.6-1.4,1.4-2.7,1.4s-2.1-0.9-2.7-1.4
				c-0.6-0.6-1-0.9-1.7-0.9S9,12.8,8.4,13.4S7,14.8,5.7,14.8S3.4,14,2.8,13.4s-1-0.9-1.7-0.9C0.5,12.5,0,12,0,11.4s0.5-1.1,1.1-1.1
				c1.5,0,2.5,0.8,3.2,1.4c0.7,0.6,1,0.9,1.3,0.9s0.6-0.3,1.3-0.9s1.7-1.4,3.2-1.4s2.5,0.8,3.2,1.4c0.7,0.6,1,0.9,1.3,0.9
				s0.6-0.3,1.3-0.9c0.7-0.6,1.7-1.4,3.2-1.4C19.5,10.4,20,10.9,20,11.4L20,11.4z M1.1,2.1c0.7,0,1.1,0.3,1.7,0.9s1.4,1.4,2.7,1.4
				h0.2c1.2-0.1,2-0.9,2.6-1.4c0.5-0.5,0.9-0.8,1.5-0.9c0.1,0,0.2,0,0.3,0c0.7,0,1.1,0.3,1.7,0.9c0.2,0.1,0.3,0.3,0.5,0.5
				c0.6,0.5,1.2,1,2.2,1h0.2c1.2-0.1,1.9-0.9,2.5-1.4c0.5-0.5,0.9-0.8,1.5-0.9c0.1,0,0.2,0,0.3,0c0.1,0,0.3,0,0.4-0.1
				c0.1,0,0.1-0.1,0.2-0.1C19.8,1.7,20,1.4,20,1.1c0-0.1,0-0.3-0.1-0.4l0,0c-0.1-0.1-0.1-0.2-0.2-0.3s-0.1-0.1-0.2-0.1
				s-0.1-0.1-0.2-0.1s-0.1-0.1-0.2-0.1C19,0,19,0,18.9,0h-0.3c-1.3,0.1-2.3,0.8-2.9,1.4c-0.6,0.5-0.9,0.8-1.2,0.9
				c-0.1,0-0.1,0-0.1,0c-0.1,0-0.2,0-0.2-0.1C14,2.1,13.8,2,13.6,1.8c-0.1-0.1-0.3-0.2-0.4-0.4C12.5,0.8,11.5,0,10,0H9.8
				C8.4,0.1,7.5,0.8,6.9,1.4C6.3,1.9,6,2.2,5.7,2.3c-0.1,0-0.1,0-0.1,0c-0.1,0-0.2,0-0.2-0.1C5.3,2.2,5.2,2.1,5.1,2
				C4.8,2,4.6,1.7,4.3,1.4C3.6,0.8,2.6,0,1.1,0H1l0,0C0.5,0.1,0,0.6,0,1.1C0,1.7,0.5,2.2,1.1,2.1L1.1,2.1z M18.9,5.2h-0.3
				c-1.3,0.1-2.3,0.9-2.9,1.4s-0.9,0.8-1.2,0.9c-0.1,0-0.1,0-0.1,0c-0.1,0-0.2-0.1-0.4-0.1c-0.2-0.1-0.5-0.4-0.9-0.8
				C12.5,6,11.5,5.2,10,5.2H9.7C8.4,5.3,7.5,6,6.8,6.6C6.3,7.1,6,7.4,5.7,7.4c-0.1,0-0.1,0-0.1,0c-0.1,0-0.2-0.1-0.4-0.1
				c-0.1,0-0.1,0-0.2,0C4.8,7.1,4.6,6.9,4.2,6.6C3.6,6,2.6,5.1,1.1,5.1C0.5,5.1,0,5.6,0,6.2s0.5,1.1,1.1,1.1c0.7,0,1.1,0.3,1.7,0.9
				s1.4,1.4,2.7,1.4h0.2c1.2-0.1,1.9-0.9,2.5-1.4c0.4-0.3,0.7-0.6,1-0.7c0.1,0,0.1-0.1,0.2-0.1s0.2,0,0.2-0.1c0.1,0,0.2,0,0.3,0
				c0.7,0,1.1,0.3,1.7,0.9c0.2,0.1,0.3,0.3,0.5,0.5c0.6,0.5,1.2,1,2.2,1h0.2c1.2-0.1,1.9-0.9,2.5-1.4c0.4-0.3,0.7-0.6,1-0.7
				c0.1,0,0.1-0.1,0.2-0.1s0.2,0,0.2-0.1c0.1,0,0.2,0,0.3,0c0.6,0,1.1-0.5,1.1-1.1C20,5.7,19.5,5.2,18.9,5.2L18.9,5.2z"/>
		</g>
	</g>
</g>
</svg>
