<?xml version="1.0" encoding="utf-8"?>
<!-- Generator: Adobe Illustrator 24.2.3, SVG Export Plug-In . SVG Version: 6.00 Build 0)  -->
<svg version="1.1" id="Ebene_1" xmlns="http://www.w3.org/2000/svg" xmlns:xlink="http://www.w3.org/1999/xlink" x="0px" y="0px"
	 viewBox="0 0 25 24" style="enable-background:new 0 0 25 24;" xml:space="preserve">
<style type="text/css">
	.st0{fill-rule:evenodd;clip-rule:evenodd;fill:#FFFFFF;}
</style>
<desc>Created with Sketch.</desc>
<g id="Icons">
	<g id="music_alternative" transform="translate(-12.000000, -12.000000)">
		<g transform="translate(12.000000, 12.000000)">
			<path class="st0" d="M0.9,6.6C0.4,6.6,0,7,0,7.5v9c0,0.5,0.4,0.9,0.9,0.9s0.9-0.4,0.9-0.9v-9C1.9,7,1.5,6.6,0.9,6.6z M5.4,3.9
				c-0.5,0-0.9,0.4-0.9,0.9v14.4c0,0.5,0.4,0.9,0.9,0.9s0.9-0.4,0.9-0.9V4.8C6.3,4.3,5.9,3.9,5.4,3.9z M9.9,0.1
				C9.4,0.1,8.9,0.5,8.9,1V23c0,0.5,0.4,0.9,0.9,0.9c0.5,0,0.9-0.4,0.9-0.9V1C10.8,0.5,10.4,0.1,9.9,0.1z M14.3,5.5
				c-0.5,0-0.9,0.4-0.9,0.9v11c0,0.5,0.4,0.9,0.9,0.9c0.5,0,0.9-0.4,0.9-0.9v-11C15.3,6,14.8,5.5,14.3,5.5z M18.8,6.6
				c-0.5,0-0.9,0.4-0.9,0.9v9c0,0.5,0.4,0.9,0.9,0.9c0.5,0,0.9-0.4,0.9-0.9v-9C19.7,7,19.3,6.6,18.8,6.6z M23.3,9.6
				c-0.5,0-0.9,0.4-0.9,0.9v3c0,0.5,0.4,0.9,0.9,0.9s0.9-0.4,0.9-0.9v-3C24.2,10,23.8,9.6,23.3,9.6z"/>
		</g>
	</g>
</g>
</svg>
