<?xml version="1.0" encoding="UTF-8" standalone="no"?>
<svg width="22px" height="21px" viewBox="0 0 22 21" version="1.1" xmlns="http://www.w3.org/2000/svg" xmlns:xlink="http://www.w3.org/1999/xlink">
    <!-- Generator: Sketch 39.1 (31720) - http://www.bohemiancoding.com/sketch -->
    <title>music_rnb</title>
    <desc>Created with Sketch.</desc>
    <defs></defs>
    <g id="Icons" stroke="none" stroke-width="1" fill="none" fill-rule="evenodd">
        <g id="music_rnb" transform="translate(-13.000000, -14.000000)" fill="#000000">
            <g transform="translate(13.000000, 14.000000)">
                <path d="M1.8931,0.0803 C0.847592308,0.0803 0,0.927892308 0,1.9734 L0,18.6326462 C0,19.6781538 0.847592308,20.5257462 1.8931,20.5257462 C2.93860769,20.5257462 3.78611538,19.6781538 3.78611538,18.6326462 L3.78611538,1.9734 C3.78611538,0.927892308 2.93860769,0.0803 1.8931,0.0803 L1.8931,0.0803 Z M6.43652308,3.8665 C5.39101538,3.8665 4.54350769,4.71409231 4.54350769,5.75968462 L4.54350769,18.6327308 C4.54350769,19.6782385 5.3911,20.5258308 6.43652308,20.5258308 C7.48203077,20.5258308 8.32970769,19.6782385 8.32970769,18.6327308 L8.32970769,5.75968462 C8.32962308,4.71409231 7.48203077,3.8665 6.43652308,3.8665 L6.43652308,3.8665 Z M10.9799462,10.6816769 C9.93443846,10.6816769 9.08684615,11.5292692 9.08684615,12.5747769 L9.08684615,18.6327308 C9.08684615,19.6782385 9.93443846,20.5258308 10.9799462,20.5258308 C12.0254538,20.5258308 12.8730462,19.6782385 12.8730462,18.6327308 L12.8730462,12.5747769 C12.8730462,11.5291846 12.0254538,10.6816769 10.9799462,10.6816769 L10.9799462,10.6816769 Z M15.5233692,6.13816923 C14.4778615,6.13816923 13.6303538,6.98576154 13.6303538,8.03126923 L13.6303538,18.6326462 C13.6303538,19.6781538 14.4777769,20.5257462 15.5233692,20.5257462 C16.5689615,20.5257462 17.4164692,19.6781538 17.4164692,18.6326462 L17.4164692,8.03135385 C17.4164692,6.98576154 16.5689615,6.13816923 15.5233692,6.13816923 L15.5233692,6.13816923 Z M20.0667923,0.0803 C19.0212,0.0803 18.1736923,0.927892308 18.1736923,1.97348462 L18.1736923,18.6327308 C18.1736923,19.6782385 19.0212846,20.5258308 20.0667923,20.5258308 C21.1123,20.5258308 21.9598923,19.6782385 21.9598923,18.6327308 L21.9598923,1.9734 C21.9598923,0.927892308 21.1123846,0.0803 20.0667923,0.0803 L20.0667923,0.0803 Z"></path>
            </g>
        </g>
    </g>
</svg>