<?xml version="1.0" encoding="utf-8"?>
<!-- Generator: Adobe Illustrator 24.2.3, SVG Export Plug-In . SVG Version: 6.00 Build 0)  -->
<svg version="1.1" id="Ebene_1" xmlns="http://www.w3.org/2000/svg" xmlns:xlink="http://www.w3.org/1999/xlink" x="0px" y="0px"
	 viewBox="0 0 22 21" style="enable-background:new 0 0 22 21;" xml:space="preserve">
<style type="text/css">
	.st0{fill-rule:evenodd;clip-rule:evenodd;fill:#FFFFFF;}
</style>
<desc>Created with Sketch.</desc>
<g id="Icons">
	<g id="music_rnb" transform="translate(-13.000000, -14.000000)">
		<g transform="translate(13.000000, 14.000000)">
			<path class="st0" d="M1.9,0.1C0.8,0.1,0,0.9,0,2v16.7c0,1,0.8,1.9,1.9,1.9s1.9-0.8,1.9-1.9V2C3.8,0.9,2.9,0.1,1.9,0.1L1.9,0.1z
				 M6.4,3.9c-1,0-1.9,0.8-1.9,1.9v12.9c0,1,0.8,1.9,1.9,1.9c1,0,1.9-0.8,1.9-1.9V5.8C8.3,4.7,7.5,3.9,6.4,3.9L6.4,3.9z M11,10.7
				c-1,0-1.9,0.8-1.9,1.9v6.1c0,1,0.8,1.9,1.9,1.9s1.9-0.8,1.9-1.9v-6.1C12.9,11.5,12,10.7,11,10.7L11,10.7z M15.5,6.1
				c-1,0-1.9,0.8-1.9,1.9v10.6c0,1,0.8,1.9,1.9,1.9s1.9-0.8,1.9-1.9V8C17.4,7,16.6,6.1,15.5,6.1L15.5,6.1z M20.1,0.1
				c-1,0-1.9,0.8-1.9,1.9v16.7c0,1,0.8,1.9,1.9,1.9c1,0,1.9-0.8,1.9-1.9V2C22,0.9,21.1,0.1,20.1,0.1L20.1,0.1z"/>
		</g>
	</g>
</g>
</svg>
