<?xml version="1.0" encoding="utf-8"?>
<!-- Generator: Adobe Illustrator 24.2.3, SVG Export Plug-In . SVG Version: 6.00 Build 0)  -->
<svg version="1.1" id="Ebene_1" xmlns="http://www.w3.org/2000/svg" xmlns:xlink="http://www.w3.org/1999/xlink" x="0px" y="0px"
	 viewBox="0 0 24 19" style="enable-background:new 0 0 24 19;" xml:space="preserve">
<style type="text/css">
	.st0{fill-rule:evenodd;clip-rule:evenodd;fill:#FFFFFF;}
</style>
<desc>Created with Sketch.</desc>
<g id="Icons">
	<g id="music_poprock" transform="translate(-12.000000, -14.000000)">
		<g transform="translate(12.000000, 14.000000)">
			<path class="st0" d="M23.3,0.2c-0.7-0.4-1.5-0.2-1.9,0.5l-6.6,10.8l-2.5-3.2c-0.6-0.8-1.8-0.8-2.3,0.1l-2.9,4.8l-1.3-1.7
				c-0.6-0.8-1.8-0.8-2.4,0.1l-3.2,5.3c-0.5,0.9,0,2.1,1.2,2.1c0.5,0,0.9-0.2,1.2-0.7l2.1-3.5L6,16.6c0.6,0.8,1.8,0.8,2.4-0.1
				l2.9-4.8l2.5,3.2c0.6,0.8,1.8,0.7,2.3-0.1l7.7-12.6C24.2,1.5,24,0.7,23.3,0.2L23.3,0.2z"/>
		</g>
	</g>
</g>
</svg>
