<?xml version="1.0" encoding="UTF-8" standalone="no"?>
<svg width="20px" height="15px" viewBox="0 0 20 15" version="1.1" xmlns="http://www.w3.org/2000/svg" xmlns:xlink="http://www.w3.org/1999/xlink">
    <!-- Generator: Sketch 39.1 (31720) - http://www.bohemiancoding.com/sketch -->
    <title>music_indie</title>
    <desc>Created with Sketch.</desc>
    <defs></defs>
    <g id="Icons" stroke="none" stroke-width="1" fill="none" fill-rule="evenodd">
        <g id="music_indie" transform="translate(-14.000000, -17.000000)" fill="#000000">
            <g transform="translate(14.000000, 17.000000)">
                <path d="M19.9956137,11.4430794 C19.9956137,11.9978172 19.471021,12.5224959 18.9162402,12.5224959 C18.2066919,12.5224959 17.7852631,12.8665194 17.1789218,13.4169569 C16.5725805,13.9673944 15.7598252,14.8360535 14.4439356,14.8360535 C13.1280459,14.8360535 12.3109903,13.9673944 11.7089493,13.4169569 C11.102565,12.8622191 10.706938,12.5224959 9.99743269,12.5224959 C9.28788436,12.5224959 8.89225742,12.8665194 8.28591612,13.4169569 C7.67957482,13.9673944 6.86681946,14.8360535 5.55092983,14.8360535 C4.2350402,14.8360535 3.41798455,13.9673944 2.81594354,13.4169569 C2.20960224,12.8622191 1.81397529,12.5224959 1.10442696,12.5224959 C0.549689178,12.5224959 0.0250534434,12.023619 0.0250534434,11.4430794 C0.0250534434,10.8625399 0.549689178,10.3637059 1.10442696,10.3895077 C2.57942743,10.3895077 3.60289714,11.2324081 4.26084196,11.8387064 C4.91878677,12.4450907 5.2628102,12.7073655 5.57673159,12.7073655 C5.89065297,12.7073655 6.20887464,12.4450477 6.86681946,11.8387064 C7.52476427,11.2323651 8.55253428,10.3895077 10.0232345,10.3895077 C11.4939346,10.3895077 12.4959029,11.2324081 13.1796064,11.8387064 C13.8375943,12.4450907 14.1816177,12.7073655 14.4955391,12.7073655 C14.8094605,12.7073655 15.1276821,12.4450477 15.7856269,11.8387064 C16.4435718,11.2323651 17.4713418,10.3895077 18.9419989,10.3895077 C19.471021,10.3637059 19.9956137,10.8926419 19.9956137,11.4430794 L19.9956137,11.4430794 Z M1.07436792,2.12864499 C1.78391625,2.12864499 2.17954319,2.44256637 2.78588449,2.99730416 C3.39222579,3.55204194 4.20498115,4.41640081 5.52087078,4.41640081 L5.75738689,4.41640081 C6.93996744,4.31319379 7.67961782,3.52193989 8.25585707,2.99730416 C8.7804928,2.52427194 9.15031799,2.20605026 9.73085754,2.12864499 C9.80826281,2.12864499 9.88996837,2.10284323 9.9931754,2.10284323 C10.7027237,2.10284323 11.0983507,2.41676461 11.704692,2.9715024 C11.8638028,3.10481148 12.0186134,3.25962202 12.203569,3.44453462 C12.7582637,3.91756684 13.4420533,4.41640081 14.4397213,4.41640081 L14.6762374,4.41640081 C15.8588179,4.31319379 16.5984253,3.52193989 17.1747076,2.99730416 C17.6993433,2.52427194 18.0691685,2.20605026 18.649708,2.12864499 C18.7271133,2.12864499 18.8088189,2.10284323 18.9120689,2.10284323 C19.045378,2.10284323 19.2001455,2.07704147 19.3076528,2.02543796 C19.3592564,1.9996362 19.4410049,1.97383444 19.4926084,1.92223093 C19.7806851,1.73731833 19.9914424,1.39759519 19.9914424,1.05357176 C19.9914424,0.920262682 19.9656407,0.765452137 19.9140371,0.657944815 L19.9140371,0.657944815 C19.8624336,0.524635735 19.7806851,0.421428705 19.677521,0.313921382 C19.6259175,0.262317867 19.574314,0.210714352 19.5184102,0.180612302 C19.4668067,0.154810545 19.4152032,0.10320703 19.3334976,0.0774052723 C19.2560923,0.0516035149 19.2001455,0.0258017574 19.1227833,0.0258017574 C19.045378,6.11108377e-16 18.9894742,6.11108377e-16 18.9121119,6.11108377e-16 L18.649751,6.11108377e-16 C17.3338614,0.10320703 16.387797,0.84285741 15.7556539,1.41909666 C15.1751144,1.94373239 14.861193,2.23615231 14.5730734,2.28775583 C14.5214698,2.28775583 14.4956681,2.31355758 14.4698663,2.31355758 C14.3924611,2.31355758 14.3107555,2.28775583 14.2333502,2.26195407 C14.0742394,2.1845488 13.863525,2.05123972 13.6270089,1.81472361 C13.4936568,1.71151658 13.3388893,1.5782075 13.1797785,1.41909666 C12.5218336,0.812755359 11.4940636,0 10.0233635,0 L9.76104559,0 C8.44515596,0.10320703 7.49909152,0.84285741 6.86694847,1.41909666 C6.28640892,1.94373239 5.97248754,2.23615231 5.68436792,2.28775583 C5.6327644,2.28775583 5.60696264,2.31355758 5.58116089,2.31355758 C5.50375562,2.31355758 5.42205005,2.28775583 5.34464478,2.26195407 C5.26723951,2.23615231 5.15973218,2.15874704 5.05652515,2.10284323 C4.8458108,1.96953415 4.60929469,1.73301804 4.26527126,1.44489842 C3.60732644,0.838557117 2.57955644,0.0258017574 1.10885626,0.0258017574 L1.00564923,0.0258017574 L1.00564923,0.0258017574 C0.45091145,0.0516035149 -0.0479225272,0.580539542 0.00368098764,1.13097703 C-0.0308073615,1.68141453 0.519630131,2.15444675 1.07436792,2.12864499 L1.07436792,2.12864499 Z M18.8904814,5.18185295 L18.6281206,5.18185295 C17.3122309,5.28505998 16.3661665,6.05051212 15.7340234,6.60094961 C15.1534839,7.12558535 14.8395625,7.41800526 14.5514429,7.46960878 C14.4998394,7.46960878 14.4740376,7.49541054 14.4482359,7.49541054 C14.3450718,7.49541054 14.2117197,7.44380702 14.0784107,7.36210146 C13.8418946,7.22879238 13.5537749,6.99227627 13.158148,6.60094961 C12.5002032,5.99460831 11.4724762,5.1517509 10.001776,5.1517509 L9.73945812,5.1517509 C8.42356849,5.25495793 7.47750405,6.02041007 6.845361,6.57084756 C6.26482145,7.0954833 5.95090007,7.38790321 5.66278045,7.43950673 C5.61117693,7.43950673 5.58537517,7.46530849 5.55957342,7.46530849 C5.45636639,7.46530849 5.32305731,7.41374797 5.18974823,7.33199941 C5.13814471,7.30619765 5.0865412,7.28039589 5.03063739,7.25459413 C4.81992304,7.12128505 4.58340693,6.88476894 4.23938349,6.59664932 C3.58143868,5.99030802 2.55366868,5.14745061 1.0829685,5.14745061 C0.528230716,5.14745061 0.00359498179,5.64628459 0.00359498179,6.22682413 C0.00359498179,6.80736367 0.528230716,7.30619765 1.0829685,7.28039589 C1.79251683,7.28039589 2.18814378,7.62441932 2.79448508,8.17485682 C3.40082638,8.7295946 4.21358174,9.59395347 5.52947137,9.59395347 L5.76598748,9.59395347 C6.94856803,9.49078945 7.68821841,8.69949255 8.26445766,8.17485682 C8.63428285,7.83083338 8.94820423,7.56851552 9.29222766,7.43950673 C9.36963293,7.41370497 9.42553674,7.38790321 9.50294201,7.36210146 C9.58034728,7.3362997 9.66205285,7.3362997 9.73945812,7.31049794 C9.81686339,7.31049794 9.89856896,7.28469618 10.001776,7.28469618 C10.7113243,7.28469618 11.1069513,7.62871962 11.7132926,8.17915711 C11.8724034,8.31246619 12.0272139,8.46727673 12.2121265,8.65218933 C12.7668643,9.12522155 13.4506539,9.62405552 14.4482789,9.62405552 L14.684795,9.62405552 C15.8673755,9.5208915 16.6070259,8.7295946 17.1833081,8.20495887 C17.5531333,7.86093543 17.8670117,7.59861757 18.2110351,7.46960878 C18.2884834,7.44376402 18.3443872,7.41800526 18.4217495,7.39220351 C18.4991118,7.36640175 18.5808603,7.36640175 18.6582656,7.34059999 C18.7356709,7.34059999 18.8173764,7.31479823 18.9205835,7.31479823 C19.4753213,7.31479823 20,6.81596426 20,6.26122647 C19.9956137,5.70648869 19.471021,5.18185295 18.8904814,5.18185295 L18.8904814,5.18185295 Z"></path>
            </g>
        </g>
    </g>
</svg>