<?xml version="1.0" encoding="utf-8"?>
<!-- Generator: Adobe Illustrator 24.2.3, SVG Export Plug-In . SVG Version: 6.00 Build 0)  -->
<svg version="1.1" id="Ebene_1" xmlns="http://www.w3.org/2000/svg" xmlns:xlink="http://www.w3.org/1999/xlink" x="0px" y="0px"
	 viewBox="0 0 24 16" style="enable-background:new 0 0 24 16;" xml:space="preserve">
<style type="text/css">
	.st0{fill-rule:evenodd;clip-rule:evenodd;fill:#FFFFFF;}
</style>
<desc>Created with Sketch.</desc>
<g id="Icons">
	<g id="music_country" transform="translate(-12.000000, -16.000000)">
		<g transform="translate(12.000000, 16.000000)">
			<path class="st0" d="M21,5c-0.2-0.4-0.6-0.6-1-0.6S19.2,4.6,19,5l-3.3,6.5L11.6,0.7C11.4,0.3,11,0,10.6,0c-0.4,0-0.8,0.2-1,0.6
				L5.5,9.5H1.1C0.5,9.5,0,9.9,0,10.5s0.5,1.1,1.1,1.1h5.1c0.4,0,0.8-0.2,1-0.6l3.3-7.1l4.2,10.7c0.2,0.4,0.5,0.7,1,0.7
				c0,0,0,0,0.1,0c0.4,0,0.8-0.2,1-0.6L20,7.9l1.9,3.9c0.3,0.5,0.9,0.8,1.5,0.5c0.5-0.3,0.8-0.9,0.5-1.5L21,5L21,5z"/>
		</g>
	</g>
</g>
</svg>
