<?xml version="1.0" encoding="UTF-8" standalone="no"?>
<svg width="25px" height="24px" viewBox="0 0 25 24" version="1.1" xmlns="http://www.w3.org/2000/svg" xmlns:xlink="http://www.w3.org/1999/xlink">
    <!-- Generator: Sketch 39.1 (31720) - http://www.bohemiancoding.com/sketch -->
    <title>music_alternative</title>
    <desc>Created with Sketch.</desc>
    <defs></defs>
    <g id="Icons" stroke="none" stroke-width="1" fill="none" fill-rule="evenodd">
        <g id="music_alternative" transform="translate(-12.000000, -12.000000)" fill="#000000">
            <g transform="translate(12.000000, 12.000000)">
                <path d="M0.935064935,6.55574026 C0.418597403,6.55574026 -1.77635684e-15,6.97433766 -1.77635684e-15,7.49080519 L-1.77635684e-15,16.5002597 C-1.77635684e-15,17.0167273 0.418597403,17.4353247 0.935064935,17.4353247 C1.45153247,17.4353247 1.87012987,17.0167273 1.87012987,16.5002597 L1.87012987,7.49080519 C1.87012987,6.97433766 1.45153247,6.55574026 0.935064935,6.55574026 Z M5.40083117,3.85371429 C4.88436364,3.85371429 4.46576623,4.27231169 4.46576623,4.78877922 L4.46576623,19.2022857 C4.46576623,19.7187532 4.88436364,20.1373506 5.40083117,20.1373506 C5.9172987,20.1373506 6.3358961,19.7187532 6.3358961,19.2022857 L6.3358961,4.78877922 C6.3358961,4.27231169 5.9172987,3.85371429 5.40083117,3.85371429 Z M9.8665974,0.0930909091 C9.35012987,0.0930909091 8.93153247,0.511688312 8.93153247,1.02815584 L8.93153247,22.9628052 C8.93153247,23.4792727 9.35012987,23.8978701 9.8665974,23.8978701 C10.3830649,23.8978701 10.8016623,23.4792727 10.8016623,22.9628052 L10.8016623,1.02815584 C10.8016623,0.511792208 10.3830649,0.0930909091 9.8665974,0.0930909091 Z M14.3322597,5.544 C13.8157922,5.544 13.3971948,5.9625974 13.3971948,6.47906494 L13.3971948,17.5121039 C13.3971948,18.0285714 13.8157922,18.4471688 14.3322597,18.4471688 C14.8487273,18.4471688 15.2673247,18.0285714 15.2673247,17.5121039 L15.2673247,6.47906494 C15.2673247,5.9625974 14.8487273,5.544 14.3322597,5.544 Z M18.798026,6.55574026 C18.2815584,6.55574026 17.862961,6.97433766 17.862961,7.49080519 L17.862961,16.5002597 C17.862961,17.0167273 18.2815584,17.4353247 18.798026,17.4353247 C19.3144935,17.4353247 19.7330909,17.0167273 19.7330909,16.5002597 L19.7330909,7.49080519 C19.7330909,6.97433766 19.3143896,6.55574026 18.798026,6.55574026 Z M23.2637922,9.55002597 C22.7473247,9.55002597 22.3287273,9.96862338 22.3287273,10.4850909 L22.3287273,13.5060779 C22.3287273,14.0225455 22.7473247,14.4411429 23.2637922,14.4411429 C23.7802597,14.4411429 24.1988571,14.0225455 24.1988571,13.5060779 L24.1988571,10.4850909 C24.1988571,9.96862338 23.7802597,9.55002597 23.2637922,9.55002597 Z"></path>
            </g>
        </g>
    </g>
</svg>