<?xml version="1.0" encoding="UTF-8" standalone="no"?>
<svg width="24px" height="22px" viewBox="0 0 24 22" version="1.1" xmlns="http://www.w3.org/2000/svg" xmlns:xlink="http://www.w3.org/1999/xlink">
    <!-- Generator: Sketch 39.1 (31720) - http://www.bohemiancoding.com/sketch -->
    <title>navigation_ticketkauf</title>
    <desc>Created with Sketch.</desc>
    <defs></defs>
    <g id="Icons" stroke="none" stroke-width="1" fill="none" fill-rule="evenodd">
        <g id="navigation_ticketkauf" transform="translate(-12.000000, -13.000000)" fill="#000000">
            <g transform="translate(12.000000, 13.000000)" id="Shape">
                <path d="M23.8414118,8.42552941 L22.688549,6.77960784 C22.681451,6.78458824 22.6747451,6.79007843 22.6677255,6.79494118 C21.3627451,7.70937255 19.5636471,7.39219608 18.649451,6.08709804 C17.7352549,4.78223529 18.0522745,2.98301961 19.3574118,2.06890196 C19.3645098,2.06392157 19.3717647,2.05956863 19.3788627,2.05470588 L18.2260392,0.409019608 C17.9483922,0.0125098039 17.4016471,-0.0837254902 17.005098,0.193921569 L12.4452941,3.38803922 L13.4432941,4.81286275 L12.3613333,5.57015686 L11.3636471,4.14568627 L0.373960784,11.8439608 C-0.0227843137,12.1213725 -0.119137255,12.6681569 0.158862745,13.0646667 L5.77423529,21.0811765 C6.05188235,21.4776863 6.59866667,21.5739216 6.99490196,21.2960392 L17.9845098,13.5981961 L16.9989804,12.191098 L18.0808627,11.4333725 L19.0662353,12.8405882 L23.6263137,9.64635294 C24.0224706,9.36843137 24.1190588,8.82188235 23.8414118,8.42552941 L23.8414118,8.42552941 Z M13.1307451,6.61670588 L14.2125882,5.85909804 L15.5077255,7.70760784 L14.4253725,8.46545098 L13.1307451,6.61670588 L13.1307451,6.61670588 Z M16.300902,11.1944314 L15.1063529,9.48937255 L16.1882353,8.73176471 L17.3826275,10.4368235 L16.300902,11.1944314 L16.300902,11.1944314 Z"></path>
            </g>
        </g>
    </g>
</svg>