<?xml version="1.0" encoding="utf-8"?>
<!-- Generator: Adobe Illustrator 24.2.3, SVG Export Plug-In . SVG Version: 6.00 Build 0)  -->
<svg version="1.1" id="Ebene_1" xmlns="http://www.w3.org/2000/svg" xmlns:xlink="http://www.w3.org/1999/xlink" x="0px" y="0px"
	 viewBox="0 0 24 24" style="enable-background:new 0 0 24 24;" xml:space="preserve">
<style type="text/css">
	.st0{fill-rule:evenodd;clip-rule:evenodd;fill:#C2C2C2;}
</style>
<desc>Created with Sketch.</desc>
<g id="Icons">
	<g id="navigation_zurück" transform="translate(-12.000000, -12.000000)">
		
			<g id="Shape" transform="translate(24.000000, 24.000000) rotate(-90.000000) translate(-24.000000, -24.000000) translate(12.000000, 12.000000)">
			<path class="st0" d="M23.8,11.4L12.6,0.2C12.5,0.1,12.2,0,12,0s-0.5,0.1-0.6,0.2L0.2,11.4c-0.3,0.3-0.3,0.9,0,1.2
				c0.2,0.2,0.4,0.2,0.6,0.2s0.4-0.1,0.6-0.2l9.7-9.7v20.3c0,0.5,0.4,0.8,0.8,0.8s0.8-0.4,0.8-0.8V2.9l9.7,9.7
				c0.3,0.3,0.9,0.3,1.2,0C24.1,12.3,24.1,11.7,23.8,11.4L23.8,11.4z"/>
		</g>
	</g>
</g>
</svg>
