<?xml version="1.0" encoding="utf-8"?>
<!-- Generator: Adobe Illustrator 24.2.3, SVG Export Plug-In . SVG Version: 6.00 Build 0)  -->
<svg version="1.1" id="Ebene_1" xmlns="http://www.w3.org/2000/svg" xmlns:xlink="http://www.w3.org/1999/xlink" x="0px" y="0px"
	 viewBox="0 0 24 24" style="enable-background:new 0 0 24 24;" xml:space="preserve">
<style type="text/css">
	.st0{fill-rule:evenodd;clip-rule:evenodd;fill:#FFFFFF;}
</style>
<desc>Created with Sketch.</desc>
<g id="Icons">
	<g id="navigation_zurück" transform="translate(-12.000000, -12.000000)">
		
			<g id="Shape" transform="translate(24.000000, 24.000000) rotate(-90.000000) translate(-24.000000, -24.000000) translate(12.000000, 12.000000)">
			<path class="st0" d="M0.2,12.6l11.2,11.2c0.1,0.1,0.4,0.2,0.6,0.2s0.5-0.1,0.6-0.2l11.2-11.2c0.3-0.3,0.3-0.9,0-1.2
				c-0.2-0.2-0.4-0.2-0.6-0.2c-0.2,0-0.4,0.1-0.6,0.2l-9.7,9.7V0.8c0-0.5-0.4-0.8-0.8-0.8s-0.8,0.4-0.8,0.8v20.3l-9.7-9.7
				c-0.3-0.3-0.9-0.3-1.2,0C-0.1,11.7-0.1,12.3,0.2,12.6L0.2,12.6z"/>
		</g>
	</g>
</g>
</svg>
