<?xml version="1.0" encoding="utf-8"?>
<!-- Generator: Adobe Illustrator 24.2.3, SVG Export Plug-In . SVG Version: 6.00 Build 0)  -->
<svg version="1.1" id="Ebene_1" xmlns="http://www.w3.org/2000/svg" xmlns:xlink="http://www.w3.org/1999/xlink" x="0px" y="0px"
	 viewBox="0 0 24 24" style="enable-background:new 0 0 24 24;" xml:space="preserve">
<style type="text/css">
	.st0{fill-rule:evenodd;clip-rule:evenodd;fill:#FFFFFF;}
</style>
<desc>Created with Sketch.</desc>
<g id="Icons">
	<g id="navigation_login" transform="translate(-12.000000, -12.000000)">
		<g id="Shape" transform="translate(12.000000, 12.000000)">
			<path class="st0" d="M12,0C5.4,0,0,5.4,0,12s5.4,12,12,12s12-5.4,12-12S18.6,0,12,0L12,0z M12,17.7L12,17.7L12,17.7H6.8
				c0-3.7,3.3-3.7,4-4.7l0.1-0.4c-1-0.5-1.8-1.8-1.8-3.2c0-1.9,1.3-3.5,2.8-3.5s2.8,1.6,2.8,3.5c0,1.5-0.7,2.7-1.7,3.2l0.1,0.5
				c0.8,0.9,4,1,4,4.7H12V17.7z"/>
		</g>
	</g>
</g>
</svg>
