<?xml version="1.0" encoding="utf-8"?>
<!-- Generator: Adobe Illustrator 24.2.3, SVG Export Plug-In . SVG Version: 6.00 Build 0)  -->
<svg version="1.1" id="Ebene_1" xmlns="http://www.w3.org/2000/svg" xmlns:xlink="http://www.w3.org/1999/xlink" x="0px" y="0px"
	 viewBox="0 0 24 22.7" style="enable-background:new 0 0 24 22.7;" xml:space="preserve">
<style type="text/css">
	.st0{fill-rule:evenodd;clip-rule:evenodd;fill:#C2C2C2;}
</style>
<desc>Created with Sketch.</desc>
<g id="Icons">
	<g id="navigation_home" transform="translate(-12.000000, -13.000000)">
		<g id="home-icon" transform="translate(12.000000, 13.000000)">
			<path class="st0" d="M20,11.1c-0.4,0-0.7,0.3-0.7,0.7v9.5h-4.9v-3.9c0-0.4-0.3-0.7-0.7-0.7h-3.5c-0.4,0-0.7,0.3-0.7,0.7v3.9H4.6
				v-9.1c0-0.4-0.3-0.7-0.7-0.7s-0.7,0.3-0.7,0.7V22c0,0.4,0.3,0.7,0.7,0.7h6.3c0.4,0,0.7-0.3,0.7-0.7v-4h2.2v3.9
				c0,0.4,0.3,0.7,0.7,0.7H20c0.4,0,0.7-0.3,0.7-0.7V11.7C20.7,11.4,20.4,11.1,20,11.1z M23.8,11.6l-5.5-5.5V2.4
				c0-0.4-0.3-0.7-0.7-0.7C17.3,1.7,17,2,17,2.4v2.4l-4.5-4.5C12.3,0.1,12.2,0,12,0s-0.4,0.1-0.5,0.2L0.2,11.5c-0.3,0.3-0.3,0.7,0,1
				s0.7,0.3,1,0L12,1.7l10.8,10.9c0.1,0.1,0.3,0.2,0.5,0.2s0.4-0.1,0.5-0.2C24.1,12.3,24.1,11.9,23.8,11.6z"/>
		</g>
	</g>
</g>
</svg>
