<?xml version="1.0" encoding="utf-8"?>
<!-- Generator: Adobe Illustrator 24.2.3, SVG Export Plug-In . SVG Version: 6.00 Build 0)  -->
<svg version="1.1" id="Ebene_1" xmlns="http://www.w3.org/2000/svg" xmlns:xlink="http://www.w3.org/1999/xlink" x="0px" y="0px"
	 viewBox="0 0 23.4 23.5" style="enable-background:new 0 0 23.4 23.5;" xml:space="preserve">
<style type="text/css">
	.st0{fill-rule:evenodd;clip-rule:evenodd;fill:#FFFFFF;}
</style>
<desc>Created with Sketch.</desc>
<g id="Icons">
	<g id="navigation_suche" transform="translate(-12.000000, -12.000000)">
		<g id="Shape" transform="translate(12.000000, 12.000000)">
			<path class="st0" d="M15.7,2.7c-3.6-3.6-9.4-3.6-13,0s-3.6,9.4,0,13c3.2,3.2,8.1,3.5,11.7,1c0.1,0.4,0.2,0.7,0.5,1l5.2,5.2
				c0.8,0.8,2,0.8,2.7,0c0.8-0.8,0.8-2,0-2.7L17.6,15c-0.3-0.3-0.6-0.4-1-0.5C19.3,10.8,18.9,5.9,15.7,2.7L15.7,2.7z M14.1,14
				c-2.7,2.7-7,2.7-9.7,0s-2.7-7,0-9.7s7-2.7,9.7,0S16.8,11.3,14.1,14L14.1,14z"/>
		</g>
	</g>
</g>
</svg>
