<?xml version="1.0" encoding="UTF-8" standalone="no"?>
<svg width="24px" height="24px" viewBox="0 0 24 24" version="1.1" xmlns="http://www.w3.org/2000/svg" xmlns:xlink="http://www.w3.org/1999/xlink">
    <!-- Generator: Sketch 39.1 (31720) - http://www.bohemiancoding.com/sketch -->
    <title>navigation_login</title>
    <desc>Created with Sketch.</desc>
    <defs></defs>
    <g id="Icons" stroke="none" stroke-width="1" fill="none" fill-rule="evenodd">
        <g id="navigation_login" transform="translate(-12.000000, -12.000000)" fill="#000000">
            <g transform="translate(12.000000, 12.000000)" id="Shape">
                <path d="M11.99968,0 C5.37256,0 8e-05,5.37264 8e-05,11.99976 C8e-05,18.62672 5.37256,23.99976 11.99968,23.99976 C18.6268,23.99976 23.99968,18.62672 23.99968,11.99976 C23.99968,5.37248 18.6268,0 11.99968,0 L11.99968,0 Z M12.03624,17.66104 L12.03624,17.66088 L11.96296,17.66088 L6.8372,17.66088 C6.8372,13.9124 10.12936,13.91328 10.85992,12.93312 L10.94352,12.48616 C9.91712,11.966 9.19256,10.71192 9.19256,9.2452 C9.19256,7.31288 10.44952,5.74616 11.99968,5.74616 C13.54984,5.74616 14.8068,7.31288 14.8068,9.2452 C14.8068,10.69944 14.09512,11.94568 13.0824,12.47408 L13.1776,12.982 C13.97912,13.91464 17.16176,13.97544 17.16176,17.66104 L12.03624,17.66104 L12.03624,17.66104 Z"></path>
            </g>
        </g>
    </g>
</svg>