<?xml version="1.0" encoding="utf-8"?>
<!-- Generator: Adobe Illustrator 24.2.3, SVG Export Plug-In . SVG Version: 6.00 Build 0)  -->
<svg version="1.1" id="Ebene_1" xmlns="http://www.w3.org/2000/svg" xmlns:xlink="http://www.w3.org/1999/xlink" x="0px" y="0px"
	 viewBox="0 0 24 24" style="enable-background:new 0 0 24 24;" xml:space="preserve">
<style type="text/css">
	.st0{fill-rule:evenodd;clip-rule:evenodd;fill:#FFFFFF;}
</style>
<desc>Created with Sketch.</desc>
<g id="Icons">
	<g id="tickets_info" transform="translate(-12.000000, -12.000000)">
		<g id="Shape" transform="translate(12.000000, 12.000000)">
			<path class="st0" d="M12,0C5.4,0,0,5.4,0,12s5.4,12,12,12s12-5.4,12-12S18.6,0,12,0L12,0z M12,22.6C6.2,22.6,1.4,17.8,1.4,12
				S6.2,1.4,12,1.4S22.6,6.2,22.6,12S17.8,22.6,12,22.6L12,22.6z"/>
			<g id="Icons_1_">
				<g id="steuerung_checkmark" transform="translate(-13.000000, -14.000000)">
					<g id="Shape_1_" transform="translate(13.000000, 14.000000)">
						<path class="st0" d="M18.3,8.2l-1.7-1.5c-0.1,0-0.1-0.1-0.2-0.1c-0.1,0-0.1,0-0.2,0.1l-6.2,7l-2.2-2.9c0-0.1-0.1-0.1-0.2-0.1
							c-0.1,0-0.1,0-0.2,0.1l-1.8,1.4c-0.1,0.1-0.1,0.3-0.1,0.4L9.7,18c0,0.1,0.1,0.1,0.2,0.1h0c0.1,0,0.1,0,0.2-0.1l8.2-9.4
							C18.4,8.5,18.4,8.3,18.3,8.2L18.3,8.2z"/>
					</g>
				</g>
			</g>
		</g>
	</g>
</g>
</svg>
