<?xml version="1.0" encoding="utf-8"?>
<!-- Generator: Adobe Illustrator 24.2.3, SVG Export Plug-In . SVG Version: 6.00 Build 0)  -->
<svg version="1.1" id="Ebene_1" xmlns="http://www.w3.org/2000/svg" xmlns:xlink="http://www.w3.org/1999/xlink" x="0px" y="0px"
	 viewBox="0 0 12 15.6" style="enable-background:new 0 0 12 15.6;" xml:space="preserve">
<style type="text/css">
	.st0{fill-rule:evenodd;clip-rule:evenodd;fill:#FFFFFF;}
</style>
<desc>Created with Sketch.</desc>
<g id="Icons">
	<g id="tickets_security" transform="translate(-18.000000, -16.000000)">
		<g id="tickets_securtiy" transform="translate(18.000000, 16.000000)">
			<path id="Shape" class="st0" d="M11.1,6.3h-0.3V4.9C10.8,2.2,8.7,0,6.1,0C6.1,0,5.9,0,5.8,0C3.2,0,1.2,2.2,1.2,4.9v1.4H0.8
				C0.4,6.3,0,6.8,0,7.4v7.1c0,0.6,0.4,1.1,0.8,1.1h10.3c0.5,0,0.8-0.5,0.8-1.1V7.4C12,6.8,11.6,6.3,11.1,6.3L11.1,6.3z M6.9,10.9
				v2.2c0,0.2-0.2,0.5-0.5,0.5h-1c-0.2,0-0.5-0.2-0.5-0.5v-2.2c-0.2-0.2-0.4-0.6-0.4-0.9c0-0.7,0.5-1.3,1.2-1.3c0.1,0,0.2,0,0.3,0
				c0.7,0,1.2,0.6,1.2,1.3C7.3,10.4,7.2,10.7,6.9,10.9L6.9,10.9z M8.8,6.3H6.1H5.8H3.2V4.9C3.2,3.3,4.4,2,6,2s2.8,1.3,2.8,2.9
				L8.8,6.3L8.8,6.3z"/>
		</g>
	</g>
</g>
</svg>
