<?xml version="1.0" encoding="utf-8"?>
<!-- Generator: Adobe Illustrator 24.2.3, SVG Export Plug-In . SVG Version: 6.00 Build 0)  -->
<svg version="1.1" id="Ebene_1" xmlns="http://www.w3.org/2000/svg" xmlns:xlink="http://www.w3.org/1999/xlink" x="0px" y="0px"
	 viewBox="0 0 24 24" style="enable-background:new 0 0 24 24;" xml:space="preserve">
<style type="text/css">
	.st0{fill-rule:evenodd;clip-rule:evenodd;}
</style>
<desc>Created with Sketch.</desc>
<g id="Icons">
	<g id="socialmedia_instagram" transform="translate(-12.000000, -12.000000)">
		<g transform="translate(12.000000, 12.000000)">
			<path id="XMLID_17_" class="st0" d="M16.8,0H7.1C3.2,0,0,3.2,0,7.1v9.7C0,20.8,3.2,24,7.1,24h9.7c3.9,0,7.1-3.2,7.1-7.1V7.1
				C24,3.2,20.8,0,16.8,0L16.8,0z M21.5,16.8c0,2.6-2.1,4.7-4.7,4.7H7.1c-2.6,0-4.7-2.1-4.7-4.7V7.1c0-2.6,2.1-4.7,4.7-4.7h9.7
				c2.6,0,4.7,2.1,4.7,4.7V16.8L21.5,16.8L21.5,16.8z"/>
			<path id="XMLID_81_" class="st0" d="M12,5.8c-3.4,0-6.2,2.8-6.2,6.2s2.8,6.2,6.2,6.2s6.2-2.8,6.2-6.2S15.4,5.8,12,5.8L12,5.8z
				 M12,15.8c-2.1,0-3.8-1.7-3.8-3.8S9.9,8.2,12,8.2c2.1,0,3.8,1.7,3.8,3.8C15.8,14.1,14.1,15.8,12,15.8L12,15.8z"/>
			<circle id="XMLID_83_" class="st0" cx="18.2" cy="5.8" r="1.5"/>
		</g>
	</g>
</g>
</svg>
