<?xml version="1.0" encoding="utf-8"?>
<!-- Generator: Adobe Illustrator 24.2.3, SVG Export Plug-In . SVG Version: 6.00 Build 0)  -->
<svg version="1.1" id="Ebene_1" xmlns="http://www.w3.org/2000/svg" xmlns:xlink="http://www.w3.org/1999/xlink" x="0px" y="0px"
	 viewBox="0 0 24.1 16.9" style="enable-background:new 0 0 24.1 16.9;" xml:space="preserve">
<style type="text/css">
	.st0{fill-rule:evenodd;clip-rule:evenodd;fill:#FFFFFF;}
</style>
<desc>Created with Sketch.</desc>
<g id="Icons">
	<g id="socialmedia_youtube" transform="translate(-12.000000, -15.000000)">
		<g id="youtube" transform="translate(12.000000, 15.000000)">
			<path class="st0" d="M23.1,1.4c-0.9-1-2.5-1.4-5.5-1.4H6.5C3.4,0,1.7,0.4,0.9,1.5C0,2.6,0,4.2,0,6.3v4.2c0,4.2,1,6.4,6.5,6.4
				h11.1c2.6,0,4.1-0.4,5.1-1.3c1-0.9,1.4-2.5,1.4-5.1V6.3C24,4,23.9,2.5,23.1,1.4L23.1,1.4z M15.4,9l-5,2.6
				c-0.1,0.1-0.2,0.1-0.4,0.1c-0.1,0-0.3,0-0.4-0.1c-0.2-0.1-0.4-0.4-0.4-0.7V5.7c0-0.3,0.1-0.5,0.4-0.7c0.2-0.1,0.5-0.2,0.8,0
				l5,2.6c0.3,0.1,0.4,0.4,0.4,0.7C15.8,8.6,15.7,8.9,15.4,9L15.4,9z"/>
		</g>
	</g>
</g>
</svg>
