<?xml version="1.0" encoding="utf-8"?>
<!-- Generator: Adobe Illustrator 24.2.3, SVG Export Plug-In . SVG Version: 6.00 Build 0)  -->
<svg version="1.1" id="Ebene_1" xmlns="http://www.w3.org/2000/svg" xmlns:xlink="http://www.w3.org/1999/xlink" x="0px" y="0px"
	 viewBox="0 0 24.5 23.6" style="enable-background:new 0 0 24.5 23.6;" xml:space="preserve">
<style type="text/css">
	.st0{fill-rule:evenodd;clip-rule:evenodd;fill:#050505;stroke:#000000;stroke-width:0.5;}
</style>
<desc>Created with Sketch.</desc>
<g id="Icons">
	<g id="socialmedia_snapchat" transform="translate(-11.000000, -11.000000)">
		<g id="Shape" transform="translate(12.000000, 12.000000)">
			<path class="st0" d="M11.2,0.5c3.2,0,5.9,2.7,5.9,5.9c0,0.8,0,1.5,0.1,2.1c0,0.4,0.4,0.7,0.7,0.7c0.1,0,0.1,0,0.2,0l1-0.2
				c0,0,0.1,0,0.1,0c0.3,0,0.5,0.2,0.5,0.4c0.1,0.4-0.1,0.7-0.5,0.9l-1.5,0.6c-0.4,0.2-0.6,0.6-0.5,1c1.2,4.5,4.7,4.1,4.7,4.7
				c0,0.7-2.6,0.8-2.8,1.1c-0.2,0.2,0,1.4-0.5,1.6c-0.1,0-0.2,0.1-0.4,0.1c-0.4,0-0.9-0.1-1.5-0.1c-0.5,0-1,0.1-1.5,0.3
				C13.9,20,12.7,21,11.2,21S8.6,20,7.3,19.4c-0.5-0.2-1-0.3-1.5-0.3c-0.6,0-1.1,0.1-1.5,0.1c-0.2,0-0.3,0-0.4-0.1
				c-0.5-0.2-0.3-1.4-0.5-1.6c-0.2-0.2-2.8-0.3-2.8-1.1c0-0.6,3.4-0.1,4.7-4.7c0.1-0.4-0.1-0.8-0.5-1l-1.5-0.6
				c-0.4-0.1-0.6-0.5-0.5-0.9C2.7,9.1,3,8.9,3.2,8.9c0,0,0.1,0,0.1,0l1,0.2c0.1,0,0.1,0,0.2,0c0.4,0,0.7-0.3,0.7-0.7
				c0-0.6,0.1-1.3,0.1-2.1C5.3,3.2,8,0.5,11.2,0.5L11.2,0.5z M11.2-0.8L11.2-0.8L11.2-0.8c-1,0-1.9,0.2-2.8,0.6
				C7.6,0.2,6.8,0.7,6.2,1.4C5.5,2,5,2.8,4.6,3.6C4.3,4.5,4.1,5.5,4.1,6.4c0,0.5,0,0.9,0,1.4L3.7,7.7c-0.1,0-0.3,0-0.4,0
				c-0.4,0-0.8,0.1-1.1,0.4c-0.3,0.3-0.6,0.6-0.7,1c-0.2,1,0.3,2,1.3,2.3l1.1,0.5c-0.7,2.3-2.1,2.7-3,3C0.6,15,0.3,15,0.1,15.1
				c-0.8,0.4-0.9,1.1-0.9,1.3c0,0.5,0.2,1,0.7,1.3c0.2,0.2,0.5,0.3,0.8,0.4c0.5,0.2,1,0.3,1.5,0.3c0,0.2,0.1,0.3,0.1,0.5
				c0.2,0.7,0.7,1.1,1,1.2c0.3,0.1,0.7,0.2,0.9,0.2c0.2,0,0.5,0,0.7,0c0.3,0,0.5,0,0.8,0c0.4,0,0.7,0.1,1,0.2c0.3,0.1,0.6,0.3,1,0.5
				c1,0.6,2.1,1.2,3.5,1.2s2.5-0.6,3.5-1.2c0.3-0.2,0.7-0.4,1-0.5c0.2-0.1,0.5-0.2,1-0.2c0.3,0,0.6,0,0.8,0c0.3,0,0.5,0,0.7,0
				c0.2,0,0.6,0,0.9-0.2c0.3-0.1,0.8-0.5,1-1.2c0.1-0.2,0.1-0.4,0.1-0.5c0.4-0.1,1-0.2,1.5-0.3c0.3-0.1,0.6-0.3,0.8-0.4
				c0.4-0.3,0.7-0.8,0.7-1.3c0-0.3-0.1-0.9-0.9-1.3c-0.2-0.1-0.4-0.2-0.7-0.2c-0.9-0.3-2.3-0.7-3-3l1.1-0.5c0.9-0.4,1.5-1.3,1.3-2.3
				c-0.1-0.4-0.3-0.8-0.7-1c-0.3-0.3-0.7-0.4-1.1-0.4c-0.1,0-0.3,0-0.4,0l-0.4,0.1c0-0.4,0-0.9,0-1.4c0-1-0.2-1.9-0.6-2.8
				c-0.4-0.9-0.9-1.6-1.5-2.3c-0.7-0.7-1.4-1.2-2.3-1.5C13.1-0.6,12.2-0.7,11.2-0.8L11.2-0.8L11.2-0.8z"/>
		</g>
	</g>
</g>
</svg>
