<?xml version="1.0" encoding="utf-8"?>
<!-- Generator: Adobe Illustrator 24.2.3, SVG Export Plug-In . SVG Version: 6.00 Build 0)  -->
<svg version="1.1" id="Ebene_1" xmlns="http://www.w3.org/2000/svg" xmlns:xlink="http://www.w3.org/1999/xlink" x="0px" y="0px"
	 viewBox="0 0 24 19.3" style="enable-background:new 0 0 24 19.3;" xml:space="preserve">
<style type="text/css">
	.st0{fill-rule:evenodd;clip-rule:evenodd;fill:#FFFFFF;}
</style>
<desc>Created with Sketch.</desc>
<g id="Icons">
	<g id="socialmedia_twitter" transform="translate(-12.000000, -14.000000)">
		<g id="Shape" transform="translate(12.000000, 14.000000)">
			<path class="st0" d="M24,2.2c-0.9,0.4-1.9,0.7-2.8,0.8c1.1-0.6,1.8-1.5,2.2-2.7c-1,0.6-2,1-3.1,1.2c-1-1-2.2-1.5-3.6-1.5
				s-2.5,0.5-3.5,1.4c-1,1-1.4,2.1-1.4,3.5c0,0.4,0,0.7,0.1,1.1C9.8,5.8,8,5.3,6.2,4.4S2.9,2.3,1.7,0.8C1.3,1.6,1.1,2.4,1.1,3.3
				c0,0.8,0.2,1.6,0.6,2.3C2,6.3,2.6,6.9,3.2,7.4C2.5,7.3,1.7,7.1,1,6.8v0.1C1,8,1.4,9,2.1,9.9s1.7,1.5,2.8,1.7
				c-0.4,0.1-0.9,0.2-1.3,0.2c-0.3,0-0.6,0-0.9-0.1c0.3,1,0.9,1.8,1.7,2.4c0.8,0.6,1.8,1,2.9,1c-1.8,1.4-3.8,2.1-6.1,2.1
				c-0.4,0-0.8,0-1.2-0.1c2.3,1.5,4.8,2.2,7.5,2.2c1.7,0,3.4-0.3,4.9-0.8c1.5-0.6,2.8-1.3,3.9-2.2c1.1-0.9,2-2,2.8-3.2
				c0.9-1.2,1.5-2.4,1.9-3.8c0.4-1.3,0.6-2.6,0.6-3.9c0-0.3,0-0.5,0-0.6C22.5,4.1,23.3,3.2,24,2.2L24,2.2z"/>
		</g>
	</g>
</g>
</svg>
