<?xml version="1.0" encoding="utf-8"?>
<!-- Generator: Adobe Illustrator 24.2.3, SVG Export Plug-In . SVG Version: 6.00 Build 0)  -->
<svg version="1.1" id="Ebene_1" xmlns="http://www.w3.org/2000/svg" xmlns:xlink="http://www.w3.org/1999/xlink" x="0px" y="0px"
	 viewBox="0 0 24 21.6" style="enable-background:new 0 0 24 21.6;" xml:space="preserve">
<style type="text/css">
	.st0{fill-rule:evenodd;clip-rule:evenodd;fill:#FFFFFF;}
</style>
<desc>Created with Sketch.</desc>
<g id="Icons">
	<g id="tickets_vip" transform="translate(-12.000000, -13.000000)">
		<g id="Shape" transform="translate(12.000000, 13.000000)">
			<path class="st0" d="M24,6.9C24,6.9,24,6.8,24,6.9c0-0.1,0-0.1,0-0.1c0,0,0,0,0,0c0,0,0,0,0-0.1c0,0,0,0,0,0c0,0,0,0,0,0s0,0,0,0
				l-4-6.4c0,0,0-0.1-0.1-0.1c0,0,0,0,0,0c0,0-0.1-0.1-0.1-0.1c0,0,0,0,0,0c0,0,0,0,0,0c0,0-0.1,0-0.1,0H4.4c0,0-0.1,0-0.1,0
				c0,0,0,0,0,0c0,0,0,0,0,0c0,0-0.1,0-0.1,0.1c0,0,0,0,0,0c0,0,0,0.1-0.1,0.1l-4,6.4c0,0,0,0,0,0c0,0,0,0,0,0c0,0,0,0,0,0
				c0,0,0,0,0,0.1c0,0,0,0,0,0c0,0,0,0,0,0.1c0,0,0,0,0,0c0,0,0,0,0,0.1c0,0,0,0,0,0c0,0,0,0,0,0c0,0,0,0,0,0c0,0,0,0,0,0l11.6,14.4
				c0,0,0,0,0,0l0,0c0,0,0,0,0,0c0,0,0.1,0.1,0.1,0.1c0,0,0,0,0,0c0,0,0.1,0,0.2,0c0,0,0.1,0,0.1,0c0,0,0,0,0,0c0,0,0,0,0.1,0
				c0,0,0.1,0,0.1-0.1c0,0,0,0,0,0L23.9,7.1c0,0,0,0,0,0c0,0,0,0,0,0c0,0,0,0,0,0C24,7,24,6.9,24,6.9C24,6.9,24,6.9,24,6.9L24,6.9z
				 M12.8,0.8H19L17.1,6L12.8,0.8L12.8,0.8z M16.4,6.4H7.6L12,1L16.4,6.4L16.4,6.4z M6.9,6.1L5,0.8h6.2L6.9,6.1L6.9,6.1z M16.6,7.2
				l-4.7,12.6L7.3,7.2H16.6L16.6,7.2z M19.7,1.3l3.2,5.1h-5.1L19.7,1.3L19.7,1.3z M4.3,1.3l1.9,5.1h-5L4.3,1.3L4.3,1.3z M6.5,7.2
				l4.3,11.9L1.2,7.2H6.5L6.5,7.2z M13,19.4l4.5-12.2h5.3L13,19.4L13,19.4z"/>
		</g>
	</g>
</g>
</svg>
