<?xml version="1.0" encoding="utf-8"?>
<!-- Generator: Adobe Illustrator 24.2.3, SVG Export Plug-In . SVG Version: 6.00 Build 0)  -->
<svg version="1.1" id="Ebene_1" xmlns="http://www.w3.org/2000/svg" xmlns:xlink="http://www.w3.org/1999/xlink" x="0px" y="0px"
	 viewBox="0 0 24 24" style="enable-background:new 0 0 24 24;" xml:space="preserve">
<style type="text/css">
	.st0{fill-rule:evenodd;clip-rule:evenodd;fill:#FFFFFF;}
</style>
<desc>Created with Sketch.</desc>
<g id="Icons">
	<g id="tickets_camping_vip" transform="translate(-12.000000, -12.000000)">
		<g id="Shape" transform="translate(12.000000, 12.000000)">
			<path class="st0" d="M11.6,5.6c0.2,0,0.4-0.2,0.4-0.4V0.8h2.6l-0.5,0.5c-0.2,0.2-0.2,0.4,0,0.6l0.5,0.5h-1.4
				c-0.2,0-0.4,0.2-0.4,0.4c0,0.2,0.2,0.4,0.4,0.4h2.4c0.2,0,0.3-0.1,0.4-0.2c0.1-0.1,0-0.3-0.1-0.4L15,1.6l0.9-0.9
				C16,0.6,16,0.4,16,0.2C15.9,0.1,15.8,0,15.6,0h-4c-0.2,0-0.4,0.2-0.4,0.4v4.8C11.2,5.4,11.4,5.6,11.6,5.6L11.6,5.6z"/>
			<path class="st0" d="M24,23.5c0,0-0.6-4.3-2.4-8.5c-1.5-3.5-3.3-5.9-5.4-7.3c0,0-0.1,0-0.1-0.1c-1.3-0.8-2.7-1.2-4.2-1.2
				c-1.5,0-2.9,0.4-4.2,1.2c0,0-0.1,0-0.1,0.1C5.7,9.1,3.8,11.6,2.4,15C0.6,19.2,0,23.5,0,23.5c0,0.1,0,0.2,0.1,0.3
				C0.2,23.9,0.3,24,0.4,24h4c0.2,0,0.4-0.2,0.4-0.4s-0.2-0.4-0.4-0.4H0.9c0.1-0.4,0.2-0.9,0.3-1.6h4.5c0,0.5-0.1,1-0.1,1.5
				c0,0.2,0,0.4,0,0.5C5.6,23.8,5.8,24,6,24s0.4-0.2,0.4-0.4c0-3.7,2.2-9.2,5.6-9.2s5.6,5.5,5.6,9.2c0,0.2,0.2,0.4,0.4,0.4
				s0.4-0.2,0.4-0.4c0-0.2,0-0.4,0-0.5c0-0.5,0-1-0.1-1.5h4.5c0.2,0.7,0.3,1.2,0.3,1.6h-3.5c-0.2,0-0.4,0.2-0.4,0.4s0.2,0.4,0.4,0.4
				h4c0.1,0,0.2-0.1,0.3-0.1C24,23.8,24,23.7,24,23.5L24,23.5z M12,7.2c1.1,0,2,0.2,2.9,0.7c-1,0.3-2,0.8-2.9,1.4
				c-0.9-0.6-1.9-1.1-2.9-1.4C10,7.4,10.9,7.2,12,7.2L12,7.2z M5.8,20.8H1.4C2.3,17.2,4.3,11,8.1,8.4c1.2,0.3,2.3,0.7,3.2,1.3
				c-1.3,1-2.5,2.4-3.4,4C6.8,15.8,6.1,18.2,5.8,20.8L5.8,20.8z M12,13.6c-1.9,0-3.4,1.3-4.5,3.2c0.9-2.6,2.3-4.9,4.5-6.6
				c2.2,1.6,3.6,4,4.5,6.6C15.4,14.9,13.9,13.6,12,13.6L12,13.6z M18.2,20.8c-0.3-2.6-1.1-5-2.2-7c-0.9-1.6-2-3-3.4-4
				c0.9-0.6,2-1,3.2-1.3c3.8,2.6,5.8,8.7,6.7,12.4H18.2L18.2,20.8z"/>
		</g>
	</g>
</g>
</svg>
