<?xml version="1.0" encoding="utf-8"?>
<!-- Generator: Adobe Illustrator 24.2.3, SVG Export Plug-In . SVG Version: 6.00 Build 0)  -->
<svg version="1.1" id="Ebene_1" xmlns="http://www.w3.org/2000/svg" xmlns:xlink="http://www.w3.org/1999/xlink" x="0px" y="0px"
	 viewBox="0 0 20 24" style="enable-background:new 0 0 20 24;" xml:space="preserve">
<style type="text/css">
	.st0{fill-rule:evenodd;clip-rule:evenodd;fill:#FFFFFF;}
</style>
<desc>Created with Sketch.</desc>
<g id="Icons">
	<g id="tickets_camping_standard" transform="translate(-14.000000, -12.000000)">
		<g id="Shape" transform="translate(14.000000, 12.000000)">
			<path class="st0" d="M12,24H20L10.3,4.4l2.8-2l-0.4-0.6l-2.5,1.7V0H9.5v3.6L7,1.9L6.6,2.5l2.8,2L0,24h11.1v-0.7H6.3l3.5-6.7
				l3.5,6.7H12V24L12,24z M5.4,23.3H1.1l0.4-0.8h3.8V23.3L5.4,23.3z M6.1,22.2v-6.1h3.2L6.1,22.2L6.1,22.2z M9.5,15.4H5.4v6.3H1.9
				L9.5,5.9L9.5,15.4L9.5,15.4z M18.8,23.3h-4.6l-0.4-0.8h4.6L18.8,23.3L18.8,23.3z M10.2,15.7V5.9l7.8,15.9h-4.6L10.2,15.7
				L10.2,15.7z"/>
		</g>
	</g>
</g>
</svg>
