<?xml version="1.0" encoding="utf-8"?>
<!-- Generator: Adobe Illustrator 24.2.3, SVG Export Plug-In . SVG Version: 6.00 Build 0)  -->
<svg version="1.1" id="Ebene_1" xmlns="http://www.w3.org/2000/svg" xmlns:xlink="http://www.w3.org/1999/xlink" x="0px" y="0px"
	 viewBox="0 0 24 24" style="enable-background:new 0 0 24 24;" xml:space="preserve">
<style type="text/css">
	.st0{fill-rule:evenodd;clip-rule:evenodd;}
</style>
<desc>Created with Sketch.</desc>
<g id="Icons">
	<g id="tickets_info" transform="translate(-12.000000, -12.000000)">
		<g id="Shape" transform="translate(12.000000, 12.000000)">
			<path class="st0" d="M12.6,5.6c-0.8-0.3-1.8,0-2.5,0.6S8.9,7.6,8.9,8.6c0,0.4,0.3,0.7,0.7,0.7c0.4,0,0.7-0.3,0.7-0.7
				c0-0.4,0.1-1,0.6-1.3c0.4-0.3,0.8-0.4,1.4-0.3c0.7,0.1,1.1,0.7,1.3,1.3c0.1,0.7,0,1.3-0.6,1.7c-1.1,0.8-1.7,2.1-1.7,3.4
				c0,0.4,0.3,0.7,0.7,0.7c0.4,0,0.7-0.3,0.6-0.7c0-0.8,0.6-1.7,1.3-2.3c1-0.8,1.4-2,1.1-3.1C14.7,6.8,13.7,5.9,12.6,5.6L12.6,5.6z"
				/>
			<path class="st0" d="M11.4,17.1c-0.1,0.1-0.1,0.4-0.1,0.6s0,0.3,0.1,0.4c0.1,0.1,0.4,0.3,0.6,0.3s0.4-0.1,0.4-0.3
				c0.1,0,0.3-0.3,0.3-0.4c0-0.3-0.1-0.4-0.3-0.6C12.1,16.8,11.7,16.8,11.4,17.1L11.4,17.1z"/>
			<path class="st0" d="M12,0C5.4,0,0,5.4,0,12s5.4,12,12,12s12-5.4,12-12S18.6,0,12,0L12,0z M12,22.6C6.2,22.6,1.4,17.8,1.4,12
				S6.2,1.4,12,1.4S22.6,6.2,22.6,12S17.8,22.6,12,22.6L12,22.6z"/>
		</g>
	</g>
</g>
</svg>
