<?xml version="1.0" encoding="utf-8"?>
<!-- Generator: Adobe Illustrator 24.2.3, SVG Export Plug-In . SVG Version: 6.00 Build 0)  -->
<svg version="1.1" id="Ebene_1" xmlns="http://www.w3.org/2000/svg" xmlns:xlink="http://www.w3.org/1999/xlink" x="0px" y="0px"
	 viewBox="0 0 23.9 23.9" style="enable-background:new 0 0 23.9 23.9;" xml:space="preserve">
<style type="text/css">
	.st0{fill-rule:evenodd;clip-rule:evenodd;fill:#FFFFFF;}
</style>
<desc>Created with Sketch.</desc>
<g id="Icons">
	<g id="tickets_standard" transform="translate(-12.000000, -12.000000)">
		<g id="Shape" transform="translate(12.000000, 12.000000)">
			<path class="st0" d="M21.2,6.3l-0.3,0.3c-0.5,0.5-0.8,0.6-1.6,0.6c-1.5,0-2.6-1.1-2.6-2.6c0-0.7,0.1-1.1,0.6-1.6l0.3-0.3L14.9,0
				L0,14.9l2.7,2.7L3,17.4c0.5-0.5,0.8-0.6,1.6-0.6c1.5,0,2.6,1.1,2.6,2.6c0,0.7-0.1,1.1-0.6,1.6l-0.3,0.3L9,23.9L23.9,9L21.2,6.3
				L21.2,6.3z M7.3,21.2c0.4-0.5,0.6-1,0.6-1.8c0-1.9-1.4-3.3-3.3-3.3c-0.8,0-1.3,0.2-1.8,0.6L1,14.9l8.7-8.7L11,7.4l0.5-0.5
				l-1.2-1.2L14.9,1l1.7,1.7c-0.4,0.5-0.6,1-0.6,1.8c0,1.9,1.4,3.3,3.3,3.3c0.8,0,1.3-0.2,1.8-0.6L22.9,9l-4.6,4.6L17,12.4L16.5,13
				l1.2,1.2L9,22.9L7.3,21.2L7.3,21.2z"/>
			<polygon class="st0" points="13.2,9.6 11.7,8.2 12.2,7.6 13.7,9.1 			"/>
			<polygon class="st0" points="15.8,12.2 14.3,10.8 14.8,10.2 16.3,11.7 			"/>
		</g>
	</g>
</g>
</svg>
